{
.formatVersion = 3;
classes = (
{

glyphs = (
{
glyphname = .notdef;
layers = (
{
layerId = "6C046C9F-D66B-4CE6-B064-C5BDB7BD1C21";
shapes = (
{
closed = 1;
nodes = (
(78,0,l),
(78,1760,l),
(944,1760,l),
(944,0,l)
);
},
{
closed = 1;
nodes = (
(511,1091,l),
(681,1630,l),
(341,1630,l)
);
},
{
closed = 1;
nodes = (
(218,162,l),
(445,880,l),
(218,1598,l)
);
},
{
closed = 1;
nodes = (
(804,162,l),
(804,1598,l),
(578,880,l)
);
},
{
closed = 1;
nodes = (
(511,669,l),
(341,130,l),
(681,130,l)
);
}
);
width = 1022;
}
);
},
{
glyphname = A;
layers = (
{
anchors = (
{
name = m.uni0328_3;
position = "{790, 0}";
},
{
name = m.uni032E;
position = "{497, 20}";
},
{
name = t.uni0304;
position = "{496, 1760}";
}
);
layerId = "6C046C9F-D66B-4CE6-B064-C5BDB7BD1C21";
shapes = (
{
closed = 1;
nodes = (
(30,0,l),
(200,1760,l),
(797,1760,l),
(964,0,l),
(631,0,l),
(606,284,l),
(394,284,l),
(372,0,l)
);
},
{
closed = 1;
nodes = (
(419,565,l),
(579,565,l),
(502,1460,l),
(486,1460,l)
);
}
);
width = 994;
}
);
leftKerningGroup = A2;
rightKerningGroup = A;
unicode = 65;
},
{
glyphname = AE;
layers = (
{
anchors = (
{
name = t.uni1DC7;
position = "{796, 1760}";
}
);
layerId = "6C046C9F-D66B-4CE6-B064-C5BDB7BD1C21";
shapes = (
{
closed = 1;
nodes = (
(-44,0,l),
(277,1760,l),
(1249,1760,l),
(1249,1451,l),
(963,1451,l),
(963,1049,l),
(1235,1049,l),
(1235,750,l),
(963,750,l),
(963,311,l),
(1272,311,l),
(1272,0,l),
(623,0,l),
(623,479,l),
(416,479,l),
(337,0,l)
);
},
{
closed = 1;
nodes = (
(462,769,l),
(618,769,l),
(618,1461,l),
(561,1461,l)
);
}
);
width = 1311;
}
);
unicode = 198;
},
{
glyphname = AEacute;
layers = (
{
anchors = (
{
name = t.uni1DC7;
position = "{796, 1760}";
}
);
layerId = "6C046C9F-D66B-4CE6-B064-C5BDB7BD1C21";
shapes = (
{
closed = 1;
nodes = (
(-44,0,l),
(277,1760,l),
(1249,1760,l),
(1249,1451,l),
(963,1451,l),
(963,1049,l),
(1235,1049,l),
(1235,750,l),
(963,750,l),
(963,311,l),
(1272,311,l),
(1272,0,l),
(623,0,l),
(623,479,l),
(416,479,l),
(337,0,l)
);
},
{
closed = 1;
nodes = (
(462,769,l),
(618,769,l),
(618,1461,l),
(561,1461,l)
);
},
{
closed = 1;
nodes = (
(558,1813,l),
(558,2036,l),
(1033,2254,l),
(1033,1907,l)
);
}
);
width = 1311;
}
);
unicode = 508;
},
{
glyphname = Aacute;
layers = (
{
anchors = (
{
name = m.uni0328_3;
position = "{790, 0}";
},
{
name = m.uni032E;
position = "{497, 20}";
},
{
name = t.uni0304;
position = "{496, 1760}";
}
);
layerId = "6C046C9F-D66B-4CE6-B064-C5BDB7BD1C21";
shapes = (
{
closed = 1;
nodes = (
(30,0,l),
(200,1760,l),
(797,1760,l),
(964,0,l),
(631,0,l),
(606,284,l),
(394,284,l),
(372,0,l)
);
},
{
closed = 1;
nodes = (
(419,565,l),
(579,565,l),
(502,1460,l),
(486,1460,l)
);
},
{
closed = 1;
nodes = (
(258,1813,l),
(258,2036,l),
(733,2254,l),
(733,1907,l)
);
}
);
width = 994;
}
);
leftKerningGroup = A2;
rightKerningGroup = A;
unicode = 193;
},
{
glyphname = Abreve;
layers = (
{
anchors = (
{
name = m.uni0328_3;
position = "{790, 0}";
},
{
name = m.uni032E;
position = "{497, 20}";
},
{
name = t.uni0304;
position = "{496, 1760}";
}
);
layerId = "6C046C9F-D66B-4CE6-B064-C5BDB7BD1C21";
shapes = (
{
closed = 1;
nodes = (
(30,0,l),
(200,1760,l),
(797,1760,l),
(964,0,l),
(631,0,l),
(606,284,l),
(394,284,l),
(372,0,l)
);
},
{
closed = 1;
nodes = (
(419,565,l),
(579,565,l),
(502,1460,l),
(486,1460,l)
);
},
{
closed = 1;
nodes = (
(324,1852,o),
(107,2000,o),
(107,2163,qs),
(107,2184,o),
(110,2205,q),
(366,2205,l),
(366,2148,o),
(424,2089,o),
(501,2089,qs),
(578,2089,o),
(636,2148,o),
(636,2205,q),
(892,2205,l),
(893,2195,o),
(894,2175,o),
(894,2170,qs),
(894,2003,o),
(679,1852,o),
(499,1852,qs)
);
}
);
width = 994;
}
);
leftKerningGroup = A2;
rightKerningGroup = A;
unicode = 258;
},
{
glyphname = uni1EAE;
layers = (
{
anchors = (
{
name = m.uni0328_3;
position = "{790, 0}";
},
{
name = m.uni032E;
position = "{497, 20}";
},
{
name = t.uni0304;
position = "{496, 1760}";
}
);
layerId = "6C046C9F-D66B-4CE6-B064-C5BDB7BD1C21";
shapes = (
{
closed = 1;
nodes = (
(30,0,l),
(200,1760,l),
(797,1760,l),
(964,0,l),
(631,0,l),
(606,284,l),
(394,284,l),
(372,0,l)
);
},
{
closed = 1;
nodes = (
(419,565,l),
(579,565,l),
(502,1460,l),
(486,1460,l)
);
},
{
closed = 1;
nodes = (
(331,2161,l),
(331,2266,l),
(705,2454,l),
(705,2225,l)
);
},
{
closed = 1;
nodes = (
(393,1830,o),
(245,1900,o),
(164,2010,o),
(164,2069,qs),
(164,2090,o),
(167,2111,q),
(357,2111,l),
(357,2049,o),
(415,1985,o),
(491,1985,qs),
(568,1985,o),
(625,2049,o),
(625,2111,q),
(826,2111,l),
(828,2087,o),
(828,2076,qs),
(828,2014,o),
(747,1901,o),
(596,1830,o),
(491,1830,qs)
);
}
);
width = 994;
}
);
leftKerningGroup = A2;
rightKerningGroup = A;
unicode = 7854;
},
{
glyphname = uni1EB6;
layers = (
{
anchors = (
{
name = m.uni0328_3;
position = "{790, 0}";
},
{
name = m.uni032E;
position = "{497, 20}";
},
{
name = t.uni0304;
position = "{497, 2174}";
}
);
layerId = "6C046C9F-D66B-4CE6-B064-C5BDB7BD1C21";
shapes = (
{
closed = 1;
nodes = (
(30,0,l),
(200,1760,l),
(797,1760,l),
(964,0,l),
(631,0,l),
(606,284,l),
(394,284,l),
(372,0,l)
);
},
{
closed = 1;
nodes = (
(419,565,l),
(579,565,l),
(502,1460,l),
(486,1460,l)
);
},
{
closed = 1;
nodes = (
(320,1852,o),
(103,1986,o),
(103,2133,qs),
(103,2154,o),
(106,2175,q),
(362,2175,l),
(362,2113,o),
(420,2049,o),
(497,2049,qs),
(574,2049,o),
(632,2113,o),
(632,2175,q),
(888,2175,l),
(890,2151,o),
(890,2140,qs),
(890,1989,o),
(675,1852,o),
(495,1852,qs)
);
},
{
closed = 1;
nodes = (
(318,-397,l),
(318,-99,l),
(676,-99,l),
(676,-397,l)
);
}
);
width = 994;
}
);
leftKerningGroup = A2;
rightKerningGroup = A;
unicode = 7862;
},
{
glyphname = uni1EB0;
layers = (
{
anchors = (
{
name = m.uni0328_3;
position = "{790, 0}";
},
{
name = m.uni032E;
position = "{497, 20}";
},
{
name = t.uni0304;
position = "{496, 1760}";
}
);
layerId = "6C046C9F-D66B-4CE6-B064-C5BDB7BD1C21";
shapes = (
{
closed = 1;
nodes = (
(30,0,l),
(200,1760,l),
(797,1760,l),
(964,0,l),
(631,0,l),
(606,284,l),
(394,284,l),
(372,0,l)
);
},
{
closed = 1;
nodes = (
(419,565,l),
(579,565,l),
(502,1460,l),
(486,1460,l)
);
},
{
closed = 1;
nodes = (
(705,2161,l),
(331,2225,l),
(331,2454,l),
(705,2266,l)
);
},
{
closed = 1;
nodes = (
(393,1830,o),
(245,1900,o),
(164,2010,o),
(164,2069,qs),
(164,2090,o),
(167,2111,q),
(357,2111,l),
(357,2049,o),
(415,1985,o),
(491,1985,qs),
(568,1985,o),
(625,2049,o),
(625,2111,q),
(826,2111,l),
(828,2089,o),
(828,2076,qs),
(828,2014,o),
(747,1901,o),
(596,1830,o),
(491,1830,qs)
);
}
);
width = 994;
}
);
leftKerningGroup = A2;
rightKerningGroup = A;
unicode = 7856;
},
{
glyphname = uni1EB2;
layers = (
{
anchors = (
{
name = m.uni0328_3;
position = "{790, 0}";
},
{
name = m.uni032E;
position = "{497, 20}";
},
{
name = t.uni0304;
position = "{496, 1760}";
}
);
layerId = "6C046C9F-D66B-4CE6-B064-C5BDB7BD1C21";
shapes = (
{
closed = 1;
nodes = (
(30,0,l),
(200,1760,l),
(797,1760,l),
(964,0,l),
(631,0,l),
(606,284,l),
(394,284,l),
(372,0,l)
);
},
{
closed = 1;
nodes = (
(419,565,l),
(579,565,l),
(502,1460,l),
(486,1460,l)
);
},
{
closed = 1;
nodes = (
(436,2206,l),
(470,2219,o),
(511,2256,o),
(511,2287,qs),
(511,2346,o),
(448,2346,qs),
(420,2346,o),
(392,2336,q),
(392,2448,l),
(449,2469,o),
(506,2469,qs),
(583,2469,o),
(671,2391,o),
(671,2321,qs),
(671,2242,o),
(574,2152,o),
(502,2129,q)
);
},
{
closed = 1;
nodes = (
(393,1830,o),
(245,1900,o),
(164,2010,o),
(164,2069,qs),
(164,2090,o),
(167,2111,q),
(357,2111,l),
(357,2049,o),
(415,1985,o),
(491,1985,qs),
(568,1985,o),
(625,2049,o),
(625,2111,q),
(826,2111,l),
(827,2101,o),
(828,2081,o),
(828,2076,qs),
(828,2014,o),
(747,1901,o),
(596,1830,o),
(491,1830,qs)
);
}
);
width = 994;
}
);
leftKerningGroup = A2;
rightKerningGroup = A;
unicode = 7858;
},
{
glyphname = uni1EB4;
layers = (
{
anchors = (
{
name = m.uni0328_3;
position = "{790, 0}";
},
{
name = m.uni032E;
position = "{497, 20}";
},
{
name = t.uni0304;
position = "{496, 1760}";
}
);
layerId = "6C046C9F-D66B-4CE6-B064-C5BDB7BD1C21";
shapes = (
{
closed = 1;
nodes = (
(30,0,l),
(200,1760,l),
(797,1760,l),
(964,0,l),
(631,0,l),
(606,284,l),
(394,284,l),
(372,0,l)
);
},
{
closed = 1;
nodes = (
(419,565,l),
(579,565,l),
(502,1460,l),
(486,1460,l)
);
},
{
closed = 1;
nodes = (
(589,2174,o),
(510,2208,o),
(434,2242,o),
(395,2242,qs),
(371,2242,o),
(329,2220,o),
(311,2191,q),
(200,2249,l),
(226,2314,o),
(298,2407,o),
(373,2407,qs),
(420,2407,o),
(498,2373,o),
(572,2339,o),
(612,2339,qs),
(662,2339,o),
(696,2395,q),
(821,2355,l),
(793,2285,o),
(719,2174,o),
(634,2174,qs)
);
},
{
closed = 1;
nodes = (
(393,1830,o),
(245,1900,o),
(164,2010,o),
(164,2069,qs),
(164,2090,o),
(167,2111,q),
(357,2111,l),
(357,2049,o),
(415,1985,o),
(491,1985,qs),
(568,1985,o),
(625,2049,o),
(625,2111,q),
(826,2111,l),
(827,2101,o),
(828,2081,o),
(828,2076,qs),
(828,2014,o),
(747,1901,o),
(596,1830,o),
(491,1830,qs)
);
}
);
width = 994;
}
);
leftKerningGroup = A2;
rightKerningGroup = A;
unicode = 7860;
},
{
glyphname = uni01CD;
layers = (
{
anchors = (
{
name = m.uni0328_3;
position = "{790, 0}";
},
{
name = m.uni032E;
position = "{497, 20}";
},
{
name = t.uni0304;
position = "{496, 1760}";
}
);
layerId = "6C046C9F-D66B-4CE6-B064-C5BDB7BD1C21";
shapes = (
{
closed = 1;
nodes = (
(30,0,l),
(200,1760,l),
(797,1760,l),
(964,0,l),
(631,0,l),
(606,284,l),
(394,284,l),
(372,0,l)
);
},
{
closed = 1;
nodes = (
(419,565,l),
(579,565,l),
(502,1460,l),
(486,1460,l)
);
},
{
closed = 1;
nodes = (
(292,1851,l),
(51,2254,l),
(410,2254,l),
(496,1969,l),
(582,2254,l),
(941,2254,l),
(700,1851,l)
);
}
);
width = 994;
}
);
leftKerningGroup = A2;
rightKerningGroup = A;
unicode = 461;
},
{
glyphname = Acircumflex;
layers = (
{
anchors = (
{
name = m.uni0328_3;
position = "{790, 0}";
},
{
name = m.uni032E;
position = "{497, 20}";
},
{
name = t.uni0304;
position = "{496, 1760}";
}
);
layerId = "6C046C9F-D66B-4CE6-B064-C5BDB7BD1C21";
shapes = (
{
closed = 1;
nodes = (
(30,0,l),
(200,1760,l),
(797,1760,l),
(964,0,l),
(631,0,l),
(606,284,l),
(394,284,l),
(372,0,l)
);
},
{
closed = 1;
nodes = (
(419,565,l),
(579,565,l),
(502,1460,l),
(486,1460,l)
);
},
{
closed = 1;
nodes = (
(51,1851,l),
(292,2254,l),
(700,2254,l),
(941,1851,l),
(582,1851,l),
(496,2136,l),
(410,1851,l)
);
}
);
width = 994;
}
);
leftKerningGroup = A2;
rightKerningGroup = A;
unicode = 194;
},
{
glyphname = uni1EA4;
layers = (
{
anchors = (
{
name = m.uni0328_3;
position = "{790, 0}";
},
{
name = m.uni032E;
position = "{497, 20}";
},
{
name = t.uni0304;
position = "{496, 1760}";
}
);
layerId = "6C046C9F-D66B-4CE6-B064-C5BDB7BD1C21";
shapes = (
{
closed = 1;
nodes = (
(30,0,l),
(200,1760,l),
(797,1760,l),
(964,0,l),
(631,0,l),
(606,284,l),
(394,284,l),
(372,0,l)
);
},
{
closed = 1;
nodes = (
(419,565,l),
(579,565,l),
(502,1460,l),
(486,1460,l)
);
},
{
closed = 1;
nodes = (
(785,2000,l),
(899,2204,l),
(1206,2204,l),
(1018,2000,l)
);
},
{
closed = 1;
nodes = (
(112,1839,l),
(349,2093,l),
(643,2093,l),
(880,1839,l),
(595,1839,l),
(496,1974,l),
(397,1839,l)
);
}
);
width = 994;
}
);
leftKerningGroup = A2;
rightKerningGroup = A;
unicode = 7844;
},
{
glyphname = uni1EAC;
layers = (
{
anchors = (
{
name = m.uni0328_3;
position = "{790, 0}";
},
{
name = m.uni032E;
position = "{497, 20}";
},
{
name = t.uni0304;
position = "{496, 2232}";
}
);
layerId = "6C046C9F-D66B-4CE6-B064-C5BDB7BD1C21";
shapes = (
{
closed = 1;
nodes = (
(30,0,l),
(200,1760,l),
(797,1760,l),
(964,0,l),
(631,0,l),
(606,284,l),
(394,284,l),
(372,0,l)
);
},
{
closed = 1;
nodes = (
(419,565,l),
(579,565,l),
(502,1460,l),
(486,1460,l)
);
},
{
closed = 1;
nodes = (
(318,-397,l),
(318,-99,l),
(676,-99,l),
(676,-397,l)
);
},
{
closed = 1;
nodes = (
(51,1861,l),
(292,2194,l),
(700,2194,l),
(941,1861,l),
(582,1861,l),
(496,2076,l),
(410,1861,l)
);
}
);
width = 994;
}
);
leftKerningGroup = A2;
rightKerningGroup = A;
unicode = 7852;
},
{
glyphname = uni1EA6;
layers = (
{
anchors = (
{
name = m.uni0328_3;
position = "{790, 0}";
},
{
name = m.uni032E;
position = "{497, 20}";
},
{
name = t.uni0304;
position = "{496, 1760}";
}
);
layerId = "6C046C9F-D66B-4CE6-B064-C5BDB7BD1C21";
shapes = (
{
closed = 1;
nodes = (
(30,0,l),
(200,1760,l),
(797,1760,l),
(964,0,l),
(631,0,l),
(606,284,l),
(394,284,l),
(372,0,l)
);
},
{
closed = 1;
nodes = (
(419,565,l),
(579,565,l),
(502,1460,l),
(486,1460,l)
);
},
{
closed = 1;
nodes = (
(852,2000,l),
(664,2204,l),
(971,2204,l),
(1085,2000,l)
);
},
{
closed = 1;
nodes = (
(112,1839,l),
(349,2093,l),
(643,2093,l),
(880,1839,l),
(595,1839,l),
(496,1974,l),
(397,1839,l)
);
}
);
width = 994;
}
);
leftKerningGroup = A2;
rightKerningGroup = A;
unicode = 7846;
},
{
glyphname = uni1EA8;
layers = (
{
anchors = (
{
name = m.uni0328_3;
position = "{790, 0}";
},
{
name = m.uni032E;
position = "{497, 20}";
},
{
name = t.uni0304;
position = "{496, 1760}";
}
);
layerId = "6C046C9F-D66B-4CE6-B064-C5BDB7BD1C21";
shapes = (
{
closed = 1;
nodes = (
(30,0,l),
(200,1760,l),
(797,1760,l),
(964,0,l),
(631,0,l),
(606,284,l),
(394,284,l),
(372,0,l)
);
},
{
closed = 1;
nodes = (
(419,565,l),
(579,565,l),
(502,1460,l),
(486,1460,l)
);
},
{
closed = 1;
nodes = (
(800,2036,l),
(834,2049,o),
(875,2086,o),
(875,2117,qs),
(875,2176,o),
(812,2176,qs),
(784,2176,o),
(756,2166,q),
(756,2278,l),
(813,2299,o),
(870,2299,qs),
(947,2299,o),
(1035,2221,o),
(1035,2151,qs),
(1035,2072,o),
(938,1982,o),
(866,1959,q)
);
},
{
closed = 1;
nodes = (
(112,1839,l),
(349,2093,l),
(643,2093,l),
(880,1839,l),
(595,1839,l),
(496,1974,l),
(397,1839,l)
);
}
);
width = 994;
}
);
leftKerningGroup = A2;
rightKerningGroup = A;
unicode = 7848;
},
{
glyphname = uni1EAA;
layers = (
{
anchors = (
{
name = m.uni0328_3;
position = "{790, 0}";
},
{
name = m.uni032E;
position = "{497, 20}";
},
{
name = t.uni0304;
position = "{496, 1760}";
}
);
layerId = "6C046C9F-D66B-4CE6-B064-C5BDB7BD1C21";
shapes = (
{
closed = 1;
nodes = (
(30,0,l),
(200,1760,l),
(797,1760,l),
(964,0,l),
(631,0,l),
(606,284,l),
(394,284,l),
(372,0,l)
);
},
{
closed = 1;
nodes = (
(419,565,l),
(579,565,l),
(502,1460,l),
(486,1460,l)
);
},
{
closed = 1;
nodes = (
(571,2142,o),
(492,2176,o),
(417,2210,o),
(377,2210,qs),
(353,2210,o),
(311,2188,o),
(293,2159,q),
(182,2217,l),
(208,2282,o),
(280,2375,o),
(355,2375,qs),
(402,2375,o),
(480,2341,o),
(554,2307,o),
(594,2307,qs),
(644,2307,o),
(678,2363,q),
(803,2323,l),
(775,2253,o),
(701,2142,o),
(616,2142,qs)
);
},
{
closed = 1;
nodes = (
(112,1839,l),
(349,2093,l),
(643,2093,l),
(880,1839,l),
(595,1839,l),
(496,1974,l),
(397,1839,l)
);
}
);
width = 994;
}
);
leftKerningGroup = A2;
rightKerningGroup = A;
unicode = 7850;
},
{
glyphname = uni0200;
layers = (
{
anchors = (
{
name = m.uni0328_3;
position = "{790, 0}";
},
{
name = m.uni032E;
position = "{497, 20}";
},
{
name = t.uni0304;
position = "{496, 1760}";
}
);
layerId = "6C046C9F-D66B-4CE6-B064-C5BDB7BD1C21";
shapes = (
{
closed = 1;
nodes = (
(30,0,l),
(200,1760,l),
(797,1760,l),
(964,0,l),
(631,0,l),
(606,284,l),
(394,284,l),
(372,0,l)
);
},
{
closed = 1;
nodes = (
(419,565,l),
(579,565,l),
(502,1460,l),
(486,1460,l)
);
},
{
closed = 1;
nodes = (
(299,1846,l),
(10,2275,l),
(244,2383,l),
(465,1904,l)
);
},
{
closed = 1;
nodes = (
(601,1846,l),
(353,2275,l),
(583,2383,l),
(767,1904,l)
);
}
);
width = 994;
}
);
leftKerningGroup = A2;
rightKerningGroup = A;
unicode = 512;
},
{
glyphname = Adieresis;
layers = (
{
anchors = (
{
name = m.uni0328_3;
position = "{790, 0}";
},
{
name = m.uni032E;
position = "{497, 20}";
},
{
name = t.uni0304;
position = "{496, 1760}";
}
);
layerId = "6C046C9F-D66B-4CE6-B064-C5BDB7BD1C21";
shapes = (
{
closed = 1;
nodes = (
(30,0,l),
(200,1760,l),
(797,1760,l),
(964,0,l),
(631,0,l),
(606,284,l),
(394,284,l),
(372,0,l)
);
},
{
closed = 1;
nodes = (
(419,565,l),
(579,565,l),
(502,1460,l),
(486,1460,l)
);
},
{
closed = 1;
nodes = (
(552,1859,l),
(552,2157,l),
(910,2157,l),
(910,1859,l)
);
},
{
closed = 1;
nodes = (
(68,1859,l),
(68,2157,l),
(426,2157,l),
(426,1859,l)
);
}
);
width = 994;
}
);
leftKerningGroup = A2;
rightKerningGroup = A;
unicode = 196;
},
{
glyphname = uni01DE;
layers = (
{
anchors = (
{
name = m.uni0328_3;
position = "{790, 0}";
},
{
name = m.uni032E;
position = "{497, 20}";
},
{
name = t.uni0304;
position = "{496, 2157}";
}
);
layerId = "6C046C9F-D66B-4CE6-B064-C5BDB7BD1C21";
shapes = (
{
closed = 1;
nodes = (
(30,0,l),
(200,1760,l),
(797,1760,l),
(964,0,l),
(631,0,l),
(606,284,l),
(394,284,l),
(372,0,l)
);
},
{
closed = 1;
nodes = (
(419,565,l),
(579,565,l),
(502,1460,l),
(486,1460,l)
);
},
{
closed = 1;
nodes = (
(559,1859,l),
(559,2107,l),
(917,2107,l),
(917,1859,l)
);
},
{
closed = 1;
nodes = (
(75,1859,l),
(75,2107,l),
(433,2107,l),
(433,1859,l)
);
},
{
closed = 1;
nodes = (
(171,2216,l),
(171,2369,l),
(821,2369,l),
(821,2216,l)
);
}
);
width = 994;
}
);
leftKerningGroup = A2;
rightKerningGroup = A;
unicode = 478;
},
{
glyphname = uni0226;
layers = (
{
anchors = (
{
name = m.uni0328_3;
position = "{790, 0}";
},
{
name = m.uni032E;
position = "{497, 20}";
},
{
name = t.uni0304;
position = "{496, 1760}";
}
);
layerId = "6C046C9F-D66B-4CE6-B064-C5BDB7BD1C21";
shapes = (
{
closed = 1;
nodes = (
(30,0,l),
(200,1760,l),
(797,1760,l),
(964,0,l),
(631,0,l),
(606,284,l),
(394,284,l),
(372,0,l)
);
},
{
closed = 1;
nodes = (
(419,565,l),
(579,565,l),
(502,1460,l),
(486,1460,l)
);
},
{
closed = 1;
nodes = (
(317,1852,l),
(317,2150,l),
(675,2150,l),
(675,1852,l)
);
}
);
width = 994;
}
);
leftKerningGroup = A2;
rightKerningGroup = A;
unicode = 550;
},
{
glyphname = uni1EA0;
layers = (
{
anchors = (
{
name = m.uni0328_3;
position = "{790, 0}";
},
{
name = m.uni032E;
position = "{497, 20}";
},
{
name = t.uni0304;
position = "{496, 1760}";
}
);
layerId = "6C046C9F-D66B-4CE6-B064-C5BDB7BD1C21";
shapes = (
{
closed = 1;
nodes = (
(30,0,l),
(200,1760,l),
(797,1760,l),
(964,0,l),
(631,0,l),
(606,284,l),
(394,284,l),
(372,0,l)
);
},
{
closed = 1;
nodes = (
(419,565,l),
(579,565,l),
(502,1460,l),
(486,1460,l)
);
},
{
closed = 1;
nodes = (
(318,-397,l),
(318,-99,l),
(676,-99,l),
(676,-397,l)
);
}
);
width = 994;
}
);
leftKerningGroup = A2;
rightKerningGroup = A;
unicode = 7840;
},
{
glyphname = uni01E0;
layers = (
{
anchors = (
{
name = m.uni0328_3;
position = "{790, 0}";
},
{
name = m.uni032E;
position = "{497, 20}";
},
{
name = t.uni0304;
position = "{496, 2139}";
}
);
layerId = "6C046C9F-D66B-4CE6-B064-C5BDB7BD1C21";
shapes = (
{
closed = 1;
nodes = (
(30,0,l),
(200,1760,l),
(797,1760,l),
(964,0,l),
(631,0,l),
(606,284,l),
(394,284,l),
(372,0,l)
);
},
{
closed = 1;
nodes = (
(419,565,l),
(579,565,l),
(502,1460,l),
(486,1460,l)
);
},
{
closed = 1;
nodes = (
(317,1852,l),
(317,2110,l),
(675,2110,l),
(675,1852,l)
);
},
{
closed = 1;
nodes = (
(171,2198,l),
(171,2351,l),
(821,2351,l),
(821,2198,l)
);
}
);
width = 994;
}
);
leftKerningGroup = A2;
rightKerningGroup = A;
unicode = 480;
},
{
glyphname = Agrave;
layers = (
{
anchors = (
{
name = m.uni0328_3;
position = "{790, 0}";
},
{
name = m.uni032E;
position = "{497, 20}";
},
{
name = t.uni0304;
position = "{496, 1760}";
}
);
layerId = "6C046C9F-D66B-4CE6-B064-C5BDB7BD1C21";
shapes = (
{
closed = 1;
nodes = (
(30,0,l),
(200,1760,l),
(797,1760,l),
(964,0,l),
(631,0,l),
(606,284,l),
(394,284,l),
(372,0,l)
);
},
{
closed = 1;
nodes = (
(419,565,l),
(579,565,l),
(502,1460,l),
(486,1460,l)
);
},
{
closed = 1;
nodes = (
(733,1813,l),
(258,1907,l),
(258,2254,l),
(733,2036,l)
);
}
);
width = 994;
}
);
leftKerningGroup = A2;
rightKerningGroup = A;
unicode = 192;
},
{
glyphname = uni1EA2;
layers = (
{
anchors = (
{
name = m.uni0328_3;
position = "{790, 0}";
},
{
name = m.uni032E;
position = "{497, 20}";
},
{
name = t.uni0304;
position = "{550, 2450}";
}
);
layerId = "6C046C9F-D66B-4CE6-B064-C5BDB7BD1C21";
shapes = (
{
closed = 1;
nodes = (
(30,0,l),
(200,1760,l),
(797,1760,l),
(964,0,l),
(631,0,l),
(606,284,l),
(394,284,l),
(372,0,l)
);
},
{
closed = 1;
nodes = (
(419,565,l),
(579,565,l),
(502,1460,l),
(486,1460,l)
);
},
{
closed = 1;
nodes = (
(361,1961,l),
(415,1981,o),
(481,2041,o),
(481,2091,qs),
(481,2186,o),
(380,2186,qs),
(333,2186,o),
(290,2170,q),
(290,2350,l),
(378,2383,o),
(473,2383,qs),
(598,2383,o),
(739,2258,o),
(739,2145,qs),
(739,2018,o),
(583,1873,o),
(467,1837,q)
);
}
);
width = 994;
}
);
leftKerningGroup = A2;
rightKerningGroup = A;
unicode = 7842;
},
{
glyphname = uni0202;
layers = (
{
anchors = (
{
name = m.uni0328_3;
position = "{790, 0}";
},
{
name = m.uni032E;
position = "{497, 20}";
},
{
name = t.uni0304;
position = "{496, 1760}";
}
);
layerId = "6C046C9F-D66B-4CE6-B064-C5BDB7BD1C21";
shapes = (
{
closed = 1;
nodes = (
(30,0,l),
(200,1760,l),
(797,1760,l),
(964,0,l),
(631,0,l),
(606,284,l),
(394,284,l),
(372,0,l)
);
},
{
closed = 1;
nodes = (
(419,565,l),
(579,565,l),
(502,1460,l),
(486,1460,l)
);
},
{
closed = 1;
nodes = (
(125,1868,l),
(122,1888,o),
(122,1909,qs),
(122,2072,o),
(319,2220,o),
(494,2220,qs),
(674,2220,o),
(869,2069,o),
(869,1902,qs),
(869,1897,o),
(868,1878,o),
(867,1868,q),
(631,1868,l),
(631,1936,o),
(555,2002,o),
(496,2002,qs),
(438,2002,o),
(361,1936,o),
(361,1868,q)
);
}
);
width = 994;
}
);
leftKerningGroup = A2;
rightKerningGroup = A;
unicode = 514;
},
{
glyphname = uni2C6D;
layers = (
{
layerId = "6C046C9F-D66B-4CE6-B064-C5BDB7BD1C21";
shapes = (
{
closed = 1;
nodes = (
(234,-16,o),
(106,107,o),
(64,325,o),
(64,467,qs),
(64,1294,ls),
(64,1436,o),
(106,1653,o),
(234,1776,o),
(363,1776,qs),
(449,1776,o),
(551,1690,o),
(581,1604,q),
(581,1760,l),
(931,1760,l),
(931,439,ls),
(931,368,o),
(992,306,o),
(1059,306,q),
(1059,-10,l),
(887,-10,o),
(693,69,o),
(642,189,q),
(609,75,o),
(459,-16,o),
(363,-16,qs)
);
},
{
closed = 1;
nodes = (
(546,278,o),
(581,366,o),
(581,431,qs),
(581,1330,ls),
(581,1395,o),
(546,1482,o),
(499,1482,qs),
(448,1482,o),
(414,1401,o),
(414,1330,qs),
(414,431,ls),
(414,360,o),
(448,278,o),
(499,278,qs)
);
}
);
width = 1069;
}
);
unicode = 11373;
},
{
glyphname = Amacron;
layers = (
{
anchors = (
{
name = m.uni0328_3;
position = "{790, 0}";
},
{
name = m.uni032E;
position = "{497, 20}";
},
{
name = t.uni0304;
position = "{496, 1760}";
}
);
layerId = "6C046C9F-D66B-4CE6-B064-C5BDB7BD1C21";
shapes = (
{
closed = 1;
nodes = (
(30,0,l),
(200,1760,l),
(797,1760,l),
(964,0,l),
(631,0,l),
(606,284,l),
(394,284,l),
(372,0,l)
);
},
{
closed = 1;
nodes = (
(419,565,l),
(579,565,l),
(502,1460,l),
(486,1460,l)
);
},
{
closed = 1;
nodes = (
(172,1879,l),
(172,2032,l),
(822,2032,l),
(822,1879,l)
);
}
);
width = 994;
}
);
unicode = 256;
},
{
glyphname = Aogonek;
layers = (
{
anchors = (
{
name = m.uni0328_3;
position = "{790, 0}";
},
{
name = m.uni032E;
position = "{497, 20}";
},
{
name = t.uni0304;
position = "{496, 1760}";
}
);
layerId = "6C046C9F-D66B-4CE6-B064-C5BDB7BD1C21";
shapes = (
{
closed = 1;
nodes = (
(30,0,l),
(200,1760,l),
(797,1760,l),
(964,0,l),
(631,0,l),
(606,284,l),
(394,284,l),
(372,0,l)
);
},
{
closed = 1;
nodes = (
(419,565,l),
(579,565,l),
(502,1460,l),
(486,1460,l)
);
},
{
closed = 1;
nodes = (
(680,-631,o),
(522,-559,o),
(427,-424,o),
(427,-330,qs),
(427,-148,o),
(691,0,q),
(902,0,l),
(846,-58,o),
(742,-196,o),
(742,-279,qs),
(742,-391,o),
(857,-391,qs),
(906,-391,o),
(973,-368,q),
(973,-591,l),
(878,-631,o),
(775,-631,qs)
);
}
);
width = 994;
}
);
unicode = 260;
},
{
glyphname = Aring;
layers = (
{
anchors = (
{
name = m.uni0328_3;
position = "{790, 0}";
},
{
name = m.uni032E;
position = "{497, 20}";
},
{
name = t.uni0304;
position = "{496, 1760}";
}
);
layerId = "6C046C9F-D66B-4CE6-B064-C5BDB7BD1C21";
shapes = (
{
closed = 1;
nodes = (
(30,0,l),
(200,1760,l),
(797,1760,l),
(964,0,l),
(631,0,l),
(606,284,l),
(394,284,l),
(372,0,l)
);
},
{
closed = 1;
nodes = (
(419,565,l),
(579,565,l),
(502,1460,l),
(486,1460,l)
);
},
{
closed = 1;
nodes = (
(335,1840,o),
(142,2019,o),
(142,2178,qs),
(142,2336,o),
(335,2516,o),
(495,2516,qs),
(656,2516,o),
(849,2336,o),
(849,2178,qs),
(849,2020,o),
(656,1840,o),
(495,1840,qs)
);
},
{
closed = 1;
nodes = (
(563,2021,o),
(638,2113,o),
(638,2178,qs),
(638,2243,o),
(563,2335,o),
(496,2335,qs),
(429,2335,o),
(354,2243,o),
(354,2178,qs),
(354,2113,o),
(429,2021,o),
(496,2021,qs)
);
}
);
width = 994;
}
);
unicode = 197;
},
{
glyphname = Aringacute;
layers = (
{
anchors = (
{
name = m.uni0328_3;
position = "{790, 0}";
},
{
name = m.uni032E;
position = "{497, 20}";
},
{
name = t.uni0304;
position = "{496, 2849}";
}
);
layerId = "6C046C9F-D66B-4CE6-B064-C5BDB7BD1C21";
shapes = (
{
closed = 1;
nodes = (
(30,0,l),
(200,1760,l),
(797,1760,l),
(964,0,l),
(631,0,l),
(606,284,l),
(394,284,l),
(372,0,l)
);
},
{
closed = 1;
nodes = (
(419,565,l),
(579,565,l),
(502,1460,l),
(486,1460,l)
);
},
{
closed = 1;
nodes = (
(336,1840,o),
(143,2008,o),
(143,2158,qs),
(143,2307,o),
(336,2476,o),
(496,2476,qs),
(657,2476,o),
(850,2307,o),
(850,2158,qs),
(850,2010,o),
(657,1840,o),
(496,1840,qs)
);
},
{
closed = 1;
nodes = (
(564,2021,o),
(639,2101,o),
(639,2158,qs),
(639,2215,o),
(564,2295,o),
(497,2295,qs),
(430,2295,o),
(355,2215,o),
(355,2158,qs),
(355,2101,o),
(430,2021,o),
(497,2021,qs)
);
},
{
closed = 1;
nodes = (
(259,2513,l),
(259,2706,l),
(734,2874,l),
(734,2587,l)
);
}
);
width = 994;
}
);
unicode = 506;
},
{
glyphname = uni023A;
layers = (
{
anchors = (
{
name = m.uni0328_3;
position = "{790, 0}";
},
{
name = m.uni032E;
position = "{497, 20}";
},
{
name = t.uni0304;
position = "{496, 1760}";
}
);
layerId = "6C046C9F-D66B-4CE6-B064-C5BDB7BD1C21";
shapes = (
{
closed = 1;
nodes = (
(30,0,l),
(200,1760,l),
(607,1760,l),
(669,2000,l),
(809,2000,l),
(747,1760,l),
(797,1760,l),
(964,0,l),
(631,0,l),
(606,284,l),
(394,284,l),
(372,0,l),
(289,0,l),
(241,-186,l),
(101,-186,l),
(149,0,l)
);
},
{
closed = 1;
nodes = (
(419,565,l),
(579,565,l),
(502,1460,l),
(486,1460,l)
);
}
);
width = 994;
}
);
unicode = 570;
},
{
glyphname = Atilde;
layers = (
{
anchors = (
{
name = m.uni0328_3;
position = "{790, 0}";
},
{
name = m.uni032E;
position = "{497, 20}";
},
{
name = t.uni0304;
position = "{496, 1760}";
}
);
layerId = "6C046C9F-D66B-4CE6-B064-C5BDB7BD1C21";
shapes = (
{
closed = 1;
nodes = (
(30,0,l),
(200,1760,l),
(797,1760,l),
(964,0,l),
(631,0,l),
(606,284,l),
(394,284,l),
(372,0,l)
);
},
{
closed = 1;
nodes = (
(419,565,l),
(579,565,l),
(502,1460,l),
(486,1460,l)
);
},
{
closed = 1;
nodes = (
(587,1871,o),
(464,1917,o),
(364,1962,o),
(323,1962,qs),
(297,1962,o),
(251,1932,o),
(231,1894,q),
(83,1972,l),
(108,2033,o),
(167,2134,o),
(259,2195,o),
(330,2195,qs),
(401,2195,o),
(516,2153,o),
(611,2111,o),
(650,2111,qs),
(677,2111,o),
(723,2145,o),
(743,2186,q),
(909,2132,l),
(885,2065,o),
(827,1945,o),
(736,1871,o),
(661,1871,qs)
);
}
);
width = 994;
}
);
unicode = 195;
},
{
glyphname = B;
layers = (
{
anchors = (
{
name = m.uni032E;
position = "{451, 0}";
},
{
name = t.uni1DC7;
position = "{451, 1760}";
}
);
layerId = "6C046C9F-D66B-4CE6-B064-C5BDB7BD1C21";
shapes = (
{
closed = 1;
nodes = (
(78,0,l),
(78,1760,l),
(555,1760,ls),
(747,1760,o),
(922,1573,o),
(922,1358,qs),
(922,1281,ls),
(922,1157,o),
(833,1003,o),
(742,979,q),
(861,949,o),
(942,728,o),
(942,569,qs),
(942,398,o),
(878,142,o),
(710,0,o),
(555,0,qs)
);
},
{
closed = 1;
nodes = (
(422,1097,l),
(494,1097,ls),
(543,1097,o),
(571,1173,o),
(571,1226,qs),
(571,1403,ls),
(571,1488,o),
(496,1488,qs),
(422,1488,l)
);
},
{
closed = 1;
nodes = (
(594,310,o),
(594,440,qs),
(594,660,ls),
(594,735,o),
(549,822,o),
(487,822,qs),
(422,822,l),
(422,312,l),
(444,310,o),
(457,310,qs)
);
}
);
width = 980;
}
);
unicode = 66;
},
{
glyphname = uniA7B4;
layers = (
{
layerId = "6C046C9F-D66B-4CE6-B064-C5BDB7BD1C21";
shapes = (
{
closed = 1;
nodes = (
(78,-186,l),
(78,1760,l),
(555,1760,ls),
(747,1760,o),
(922,1573,o),
(922,1358,qs),
(922,1281,ls),
(922,1157,o),
(833,1003,o),
(742,979,q),
(861,949,o),
(942,728,o),
(942,569,qs),
(942,398,o),
(878,142,o),
(710,0,o),
(555,0,qs),
(422,0,l),
(422,-186,l)
);
},
{
closed = 1;
nodes = (
(422,1097,l),
(494,1097,ls),
(543,1097,o),
(571,1173,o),
(571,1226,qs),
(571,1403,ls),
(571,1488,o),
(496,1488,qs),
(422,1488,l)
);
},
{
closed = 1;
nodes = (
(594,310,o),
(594,440,qs),
(594,660,ls),
(594,735,o),
(549,822,o),
(487,822,qs),
(422,822,l),
(422,312,l),
(444,310,o),
(457,310,qs)
);
}
);
width = 980;
}
);
unicode = 42932;
},
{
glyphname = uni0181;
layers = (
{
layerId = "6C046C9F-D66B-4CE6-B064-C5BDB7BD1C21";
shapes = (
{
closed = 1;
nodes = (
(426,0,l),
(426,1488,l),
(312,1488,o),
(312,1336,qs),
(312,1252,l),
(5,1252,l),
(5,1312,ls),
(5,1443,o),
(98,1645,o),
(285,1760,o),
(426,1760,qs),
(903,1760,ls),
(1095,1760,o),
(1270,1573,o),
(1270,1358,qs),
(1270,1281,ls),
(1270,1157,o),
(1181,1003,o),
(1090,979,q),
(1209,949,o),
(1290,728,o),
(1290,569,qs),
(1290,398,o),
(1226,142,o),
(1058,0,o),
(903,0,qs)
);
},
{
closed = 1;
nodes = (
(770,1097,l),
(842,1097,ls),
(891,1097,o),
(919,1173,o),
(919,1226,qs),
(919,1403,ls),
(919,1488,o),
(844,1488,qs),
(770,1488,l)
);
},
{
closed = 1;
nodes = (
(942,310,o),
(942,440,qs),
(942,660,ls),
(942,735,o),
(897,822,o),
(835,822,qs),
(770,822,l),
(770,312,l),
(792,310,o),
(805,310,qs)
);
}
);
width = 1328;
}
);
unicode = 385;
},
{
glyphname = uni0243;
layers = (
{
anchors = (
{
name = m.uni032E;
position = "{451, 0}";
},
{
name = t.uni1DC7;
position = "{451, 1760}";
}
);
layerId = "6C046C9F-D66B-4CE6-B064-C5BDB7BD1C21";
shapes = (
{
closed = 1;
nodes = (
(78,0,l),
(78,453,l),
(0,453,l),
(0,685,l),
(78,685,l),
(78,1760,l),
(555,1760,ls),
(747,1760,o),
(922,1573,o),
(922,1358,qs),
(922,1281,ls),
(922,1157,o),
(833,1003,o),
(742,979,q),
(861,949,o),
(942,728,o),
(942,569,qs),
(942,398,o),
(878,142,o),
(710,0,o),
(555,0,qs)
);
},
{
closed = 1;
nodes = (
(422,1097,l),
(494,1097,ls),
(543,1097,o),
(571,1173,o),
(571,1226,qs),
(571,1403,ls),
(571,1488,o),
(496,1488,qs),
(422,1488,l)
);
},
{
closed = 1;
nodes = (
(594,310,o),
(594,440,qs),
(594,660,ls),
(594,735,o),
(549,822,o),
(487,822,qs),
(422,822,l),
(422,685,l),
(516,685,l),
(516,453,l),
(422,453,l),
(422,312,l),
(444,310,o),
(457,310,qs)
);
}
);
width = 980;
}
);
unicode = 579;
},
{
glyphname = C;
layers = (
{
anchors = (
{
name = b.uni0327;
position = "{489, 0}";
},
{
name = t.uni1DC7;
position = "{496, 1760}";
}
);
layerId = "6C046C9F-D66B-4CE6-B064-C5BDB7BD1C21";
shapes = (
{
closed = 1;
nodes = (
(297,-16,o),
(64,222,o),
(64,436,qs),
(64,1248,ls),
(64,1504,o),
(267,1776,o),
(496,1776,qs),
(621,1776,o),
(816,1684,o),
(928,1501,o),
(928,1362,qs),
(928,1058,l),
(578,1058,l),
(578,1318,ls),
(578,1397,o),
(538,1452,o),
(496,1452,qs),
(447,1452,o),
(413,1381,o),
(413,1322,qs),
(413,441,ls),
(413,368,o),
(456,308,o),
(496,308,qs),
(541,308,o),
(578,382,o),
(578,441,qs),
(578,758,l),
(932,758,l),
(932,425,ls),
(932,193,o),
(698,-16,o),
(488,-16,qs)
);
}
);
width = 971;
}
);
unicode = 67;
},
{
glyphname = Cacute;
layers = (
{
anchors = (
{
name = b.uni0327;
position = "{489, 0}";
},
{
name = t.uni1DC7;
position = "{496, 1760}";
}
);
layerId = "6C046C9F-D66B-4CE6-B064-C5BDB7BD1C21";
shapes = (
{
closed = 1;
nodes = (
(297,-16,o),
(64,222,o),
(64,436,qs),
(64,1248,ls),
(64,1504,o),
(267,1776,o),
(496,1776,qs),
(621,1776,o),
(816,1684,o),
(928,1501,o),
(928,1362,qs),
(928,1058,l),
(578,1058,l),
(578,1318,ls),
(578,1397,o),
(538,1452,o),
(496,1452,qs),
(447,1452,o),
(413,1381,o),
(413,1322,qs),
(413,441,ls),
(413,368,o),
(456,308,o),
(496,308,qs),
(541,308,o),
(578,382,o),
(578,441,qs),
(578,758,l),
(932,758,l),
(932,425,ls),
(932,193,o),
(698,-16,o),
(488,-16,qs)
);
},
{
closed = 1;
nodes = (
(258,1813,l),
(258,2036,l),
(733,2254,l),
(733,1907,l)
);
}
);
width = 971;
}
);
unicode = 262;
},
{
glyphname = Ccaron;
layers = (
{
anchors = (
{
name = b.uni0327;
position = "{489, 0}";
},
{
name = t.uni1DC7;
position = "{496, 1760}";
}
);
layerId = "6C046C9F-D66B-4CE6-B064-C5BDB7BD1C21";
shapes = (
{
closed = 1;
nodes = (
(297,-16,o),
(64,222,o),
(64,436,qs),
(64,1248,ls),
(64,1504,o),
(267,1776,o),
(496,1776,qs),
(621,1776,o),
(816,1684,o),
(928,1501,o),
(928,1362,qs),
(928,1058,l),
(578,1058,l),
(578,1318,ls),
(578,1397,o),
(538,1452,o),
(496,1452,qs),
(447,1452,o),
(413,1381,o),
(413,1322,qs),
(413,441,ls),
(413,368,o),
(456,308,o),
(496,308,qs),
(541,308,o),
(578,382,o),
(578,441,qs),
(578,758,l),
(932,758,l),
(932,425,ls),
(932,193,o),
(698,-16,o),
(488,-16,qs)
);
},
{
closed = 1;
nodes = (
(292,1851,l),
(51,2254,l),
(410,2254,l),
(496,1969,l),
(582,2254,l),
(941,2254,l),
(700,1851,l)
);
}
);
width = 971;
}
);
unicode = 268;
},
{
glyphname = Ccedilla;
layers = (
{
anchors = (
{
name = b.uni0327;
position = "{489, 0}";
},
{
name = t.uni1DC7;
position = "{496, 1760}";
}
);
layerId = "6C046C9F-D66B-4CE6-B064-C5BDB7BD1C21";
shapes = (
{
closed = 1;
nodes = (
(297,-16,o),
(64,222,o),
(64,436,qs),
(64,1248,ls),
(64,1504,o),
(267,1776,o),
(496,1776,qs),
(621,1776,o),
(816,1684,o),
(928,1501,o),
(928,1362,qs),
(928,1058,l),
(578,1058,l),
(578,1318,ls),
(578,1397,o),
(538,1452,o),
(496,1452,qs),
(447,1452,o),
(413,1381,o),
(413,1322,qs),
(413,441,ls),
(413,368,o),
(456,308,o),
(496,308,qs),
(541,308,o),
(578,382,o),
(578,441,qs),
(578,758,l),
(932,758,l),
(932,425,ls),
(932,193,o),
(698,-16,o),
(488,-16,qs)
);
},
{
closed = 1;
nodes = (
(360,-631,o),
(265,-591,q),
(265,-368,l),
(296,-378,o),
(356,-391,o),
(383,-391,qs),
(433,-391,o),
(500,-338,o),
(500,-273,qs),
(500,-217,o),
(445,-73,o),
(396,0,q),
(557,0,l),
(654,-85,o),
(761,-294,o),
(761,-387,qs),
(761,-490,o),
(619,-631,o),
(463,-631,qs)
);
}
);
width = 971;
}
);
unicode = 199;
},
{
glyphname = uni1E08;
layers = (
{
anchors = (
{
name = b.uni0327;
position = "{489, 0}";
},
{
name = t.uni1DC7;
position = "{496, 1760}";
}
);
layerId = "6C046C9F-D66B-4CE6-B064-C5BDB7BD1C21";
shapes = (
{
closed = 1;
nodes = (
(297,-16,o),
(64,222,o),
(64,436,qs),
(64,1248,ls),
(64,1504,o),
(267,1776,o),
(496,1776,qs),
(621,1776,o),
(816,1684,o),
(928,1501,o),
(928,1362,qs),
(928,1058,l),
(578,1058,l),
(578,1318,ls),
(578,1397,o),
(538,1452,o),
(496,1452,qs),
(447,1452,o),
(413,1381,o),
(413,1322,qs),
(413,441,ls),
(413,368,o),
(456,308,o),
(496,308,qs),
(541,308,o),
(578,382,o),
(578,441,qs),
(578,758,l),
(932,758,l),
(932,425,ls),
(932,193,o),
(698,-16,o),
(488,-16,qs)
);
},
{
closed = 1;
nodes = (
(360,-631,o),
(265,-591,q),
(265,-368,l),
(296,-378,o),
(356,-391,o),
(383,-391,qs),
(433,-391,o),
(500,-338,o),
(500,-273,qs),
(500,-217,o),
(445,-73,o),
(396,0,q),
(557,0,l),
(654,-85,o),
(761,-294,o),
(761,-387,qs),
(761,-490,o),
(619,-631,o),
(463,-631,qs)
);
},
{
closed = 1;
nodes = (
(259,1813,l),
(259,2036,l),
(734,2254,l),
(734,1907,l)
);
}
);
width = 971;
}
);
unicode = 7688;
},
{
glyphname = Ccircumflex;
layers = (
{
anchors = (
{
name = b.uni0327;
position = "{489, 0}";
},
{
name = t.uni1DC7;
position = "{496, 1760}";
}
);
layerId = "6C046C9F-D66B-4CE6-B064-C5BDB7BD1C21";
shapes = (
{
closed = 1;
nodes = (
(297,-16,o),
(64,222,o),
(64,436,qs),
(64,1248,ls),
(64,1504,o),
(267,1776,o),
(496,1776,qs),
(621,1776,o),
(816,1684,o),
(928,1501,o),
(928,1362,qs),
(928,1058,l),
(578,1058,l),
(578,1318,ls),
(578,1397,o),
(538,1452,o),
(496,1452,qs),
(447,1452,o),
(413,1381,o),
(413,1322,qs),
(413,441,ls),
(413,368,o),
(456,308,o),
(496,308,qs),
(541,308,o),
(578,382,o),
(578,441,qs),
(578,758,l),
(932,758,l),
(932,425,ls),
(932,193,o),
(698,-16,o),
(488,-16,qs)
);
},
{
closed = 1;
nodes = (
(51,1851,l),
(292,2254,l),
(700,2254,l),
(941,1851,l),
(582,1851,l),
(496,2136,l),
(410,1851,l)
);
}
);
width = 971;
}
);
unicode = 264;
},
{
glyphname = Cdotaccent;
layers = (
{
anchors = (
{
name = b.uni0327;
position = "{489, 0}";
},
{
name = t.uni1DC7;
position = "{496, 1760}";
}
);
layerId = "6C046C9F-D66B-4CE6-B064-C5BDB7BD1C21";
shapes = (
{
closed = 1;
nodes = (
(297,-16,o),
(64,222,o),
(64,436,qs),
(64,1248,ls),
(64,1504,o),
(267,1776,o),
(496,1776,qs),
(621,1776,o),
(816,1684,o),
(928,1501,o),
(928,1362,qs),
(928,1058,l),
(578,1058,l),
(578,1318,ls),
(578,1397,o),
(538,1452,o),
(496,1452,qs),
(447,1452,o),
(413,1381,o),
(413,1322,qs),
(413,441,ls),
(413,368,o),
(456,308,o),
(496,308,qs),
(541,308,o),
(578,382,o),
(578,441,qs),
(578,758,l),
(932,758,l),
(932,425,ls),
(932,193,o),
(698,-16,o),
(488,-16,qs)
);
},
{
closed = 1;
nodes = (
(317,1852,l),
(317,2150,l),
(675,2150,l),
(675,1852,l)
);
}
);
width = 971;
}
);
unicode = 266;
},
{
glyphname = uniA7B3;
layers = (
{
layerId = "6C046C9F-D66B-4CE6-B064-C5BDB7BD1C21";
shapes = (
{
closed = 1;
nodes = (
(987,-202,l),
(777,-202,o),
(584,-41,o),
(559,134,qs),
(497,572,l),
(387,-186,l),
(37,-186,l),
(221,844,l),
(143,1342,ls),
(131,1419,o),
(95,1488,o),
(27,1488,q),
(27,1774,l),
(237,1774,o),
(432,1614,o),
(455,1438,qs),
(501,1091,l),
(579,1760,l),
(917,1760,l),
(769,844,l),
(879,231,ls),
(893,154,o),
(935,84,o),
(987,84,q)
);
}
);
width = 1013;
}
);
unicode = 42931;
},
{
glyphname = uni0187;
layers = (
{
anchors = (
{
name = b.uni0327;
position = "{489, 0}";
},
{
name = t.uni1DC7;
position = "{496, 1760}";
}
);
layerId = "6C046C9F-D66B-4CE6-B064-C5BDB7BD1C21";
shapes = (
{
closed = 1;
nodes = (
(297,-16,o),
(64,222,o),
(64,436,qs),
(64,1248,ls),
(64,1504,o),
(265,1776,o),
(486,1776,qs),
(596,1776,o),
(677,1723,q),
(718,1849,o),
(919,2000,o),
(1064,2000,q),
(1064,1684,l),
(995,1684,o),
(928,1619,o),
(928,1532,qs),
(928,1058,l),
(578,1058,l),
(578,1318,ls),
(578,1397,o),
(538,1452,o),
(496,1452,qs),
(447,1452,o),
(413,1381,o),
(413,1322,qs),
(413,441,ls),
(413,368,o),
(456,308,o),
(496,308,qs),
(541,308,o),
(578,382,o),
(578,441,qs),
(578,758,l),
(932,758,l),
(932,425,ls),
(932,193,o),
(698,-16,o),
(488,-16,qs)
);
}
);
width = 1054;
}
);
unicode = 391;
},
{
glyphname = uni023B;
layers = (
{
anchors = (
{
name = b.uni0327;
position = "{489, 0}";
},
{
name = t.uni1DC7;
position = "{496, 1760}";
}
);
layerId = "6C046C9F-D66B-4CE6-B064-C5BDB7BD1C21";
shapes = (
{
closed = 1;
nodes = (
(161,-186,l),
(226,63,l),
(149,120,o),
(64,309,o),
(64,436,qs),
(64,1248,ls),
(64,1504,o),
(267,1776,o),
(496,1776,qs),
(588,1776,o),
(665,1752,q),
(729,2000,l),
(869,2000,l),
(789,1687,l),
(854,1636,o),
(928,1473,o),
(928,1362,qs),
(928,1058,l),
(578,1058,l),
(578,1318,ls),
(578,1397,o),
(538,1452,o),
(496,1452,qs),
(447,1452,o),
(413,1381,o),
(413,1322,qs),
(413,441,ls),
(413,368,o),
(456,308,o),
(496,308,qs),
(541,308,o),
(578,382,o),
(578,441,qs),
(578,758,l),
(932,758,l),
(932,425,ls),
(932,193,o),
(698,-16,o),
(488,-16,qs),
(414,-16,o),
(350,2,q),
(301,-186,l)
);
}
);
width = 971;
}
);
unicode = 571;
},
{
glyphname = D;
layers = (
{
anchors = (
{
name = m.uni032E;
position = "{505, 0}";
},
{
name = t.uni0304_2;
position = "{271, 923}";
},
{
name = t.uni0335_4;
position = "{505, 880}";
},
{
name = t.uni1DC7;
position = "{504, 1760}";
}
);
layerId = "6C046C9F-D66B-4CE6-B064-C5BDB7BD1C21";
shapes = (
{
closed = 1;
nodes = (
(78,0,l),
(78,1760,l),
(562,1760,ls),
(752,1760,o),
(944,1549,o),
(944,1346,qs),
(944,522,ls),
(944,272,o),
(769,0,o),
(550,0,qs)
);
},
{
closed = 1;
nodes = (
(432,311,l),
(493,311,ls),
(590,311,o),
(590,405,qs),
(590,1313,ls),
(590,1401,o),
(543,1452,o),
(471,1452,qs),
(432,1452,l)
);
}
);
width = 1010;
}
);
unicode = 68;
},
{
glyphname = uni01C4;
layers = (
{
anchors = (
{
name = t.uni0304_2;
position = "{271, 923}";
},
{
name = t.uni0335_4;
position = "{505, 880}";
}
);
layerId = "6C046C9F-D66B-4CE6-B064-C5BDB7BD1C21";
shapes = (
{
closed = 1;
nodes = (
(78,0,l),
(78,1760,l),
(562,1760,ls),
(752,1760,o),
(944,1549,o),
(944,1346,qs),
(944,522,ls),
(944,272,o),
(769,0,o),
(550,0,qs)
);
},
{
closed = 1;
nodes = (
(432,311,l),
(493,311,ls),
(590,311,o),
(590,405,qs),
(590,1313,ls),
(590,1401,o),
(543,1452,o),
(471,1452,qs),
(432,1452,l)
);
},
{
closed = 1;
nodes = (
(1042,0,l),
(1042,320,l),
(1445,1436,l),
(1081,1436,l),
(1081,1760,l),
(1816,1760,l),
(1816,1452,l),
(1406,324,l),
(1799,324,l),
(1799,0,l)
);
},
{
closed = 1;
nodes = (
(1245,1851,l),
(1004,2254,l),
(1363,2254,l),
(1449,1969,l),
(1535,2254,l),
(1894,2254,l),
(1653,1851,l)
);
}
);
width = 1850;
}
);
unicode = 452;
},
{
glyphname = Dcaron;
layers = (
{
anchors = (
{
name = m.uni032E;
position = "{505, 0}";
},
{
name = t.uni0304_2;
position = "{271, 923}";
},
{
name = t.uni0335_4;
position = "{505, 880}";
},
{
name = t.uni1DC7;
position = "{504, 1760}";
}
);
layerId = "6C046C9F-D66B-4CE6-B064-C5BDB7BD1C21";
shapes = (
{
closed = 1;
nodes = (
(78,0,l),
(78,1760,l),
(562,1760,ls),
(752,1760,o),
(944,1549,o),
(944,1346,qs),
(944,522,ls),
(944,272,o),
(769,0,o),
(550,0,qs)
);
},
{
closed = 1;
nodes = (
(432,311,l),
(493,311,ls),
(590,311,o),
(590,405,qs),
(590,1313,ls),
(590,1401,o),
(543,1452,o),
(471,1452,qs),
(432,1452,l)
);
},
{
closed = 1;
nodes = (
(300,1851,l),
(59,2254,l),
(418,2254,l),
(504,1969,l),
(590,2254,l),
(949,2254,l),
(708,1851,l)
);
}
);
width = 1010;
}
);
unicode = 270;
},
{
glyphname = Dcroat;
layers = (
{
layerId = "6C046C9F-D66B-4CE6-B064-C5BDB7BD1C21";
shapes = (
{
closed = 1;
nodes = (
(78,0,l),
(78,804,l),
(3,804,l),
(3,1036,l),
(78,1036,l),
(78,1760,l),
(562,1760,ls),
(752,1760,o),
(944,1549,o),
(944,1346,qs),
(944,522,ls),
(944,272,o),
(769,0,o),
(550,0,qs)
);
},
{
closed = 1;
nodes = (
(432,311,l),
(493,311,ls),
(590,311,o),
(590,405,qs),
(590,1313,ls),
(590,1401,o),
(543,1452,o),
(471,1452,qs),
(432,1452,l),
(432,1036,l),
(519,1036,l),
(519,804,l),
(432,804,l)
);
}
);
width = 1010;
}
);
unicode = 272;
},
{
glyphname = uni1E0C;
layers = (
{
anchors = (
{
name = m.uni032E;
position = "{505, 0}";
},
{
name = t.uni0304_2;
position = "{271, 923}";
},
{
name = t.uni0335_4;
position = "{505, 880}";
},
{
name = t.uni1DC7;
position = "{504, 1760}";
}
);
layerId = "6C046C9F-D66B-4CE6-B064-C5BDB7BD1C21";
shapes = (
{
closed = 1;
nodes = (
(78,0,l),
(78,1760,l),
(562,1760,ls),
(752,1760,o),
(944,1549,o),
(944,1346,qs),
(944,522,ls),
(944,272,o),
(769,0,o),
(550,0,qs)
);
},
{
closed = 1;
nodes = (
(432,311,l),
(493,311,ls),
(590,311,o),
(590,405,qs),
(590,1313,ls),
(590,1401,o),
(543,1452,o),
(471,1452,qs),
(432,1452,l)
);
},
{
closed = 1;
nodes = (
(326,-417,l),
(326,-119,l),
(684,-119,l),
(684,-417,l)
);
}
);
width = 1010;
}
);
unicode = 7692;
},
{
glyphname = uni0394;
layers = (
{
layerId = "6C046C9F-D66B-4CE6-B064-C5BDB7BD1C21";
shapes = (
{
closed = 1;
nodes = (
(30,0,l),
(299,1760,l),
(796,1760,l),
(1073,0,l)
);
},
{
closed = 1;
nodes = (
(359,225,l),
(668,225,l),
(531,1560,l),
(515,1560,l)
);
}
);
width = 1103;
}
);
unicode = 916;
},
{
glyphname = uni018A;
layers = (
{
layerId = "6C046C9F-D66B-4CE6-B064-C5BDB7BD1C21";
shapes = (
{
closed = 1;
nodes = (
(427,0,l),
(427,1452,l),
(312,1452,o),
(312,1312,qs),
(312,1252,l),
(5,1252,l),
(5,1312,ls),
(5,1509,o),
(215,1760,o),
(427,1760,qs),
(911,1760,ls),
(1101,1760,o),
(1293,1549,o),
(1293,1346,qs),
(1293,522,ls),
(1293,272,o),
(1118,0,o),
(899,0,qs)
);
},
{
closed = 1;
nodes = (
(781,311,l),
(842,311,ls),
(939,311,o),
(939,405,qs),
(939,1313,ls),
(939,1401,o),
(892,1452,o),
(820,1452,qs),
(781,1452,l)
);
}
);
width = 1359;
}
);
unicode = 394;
},
{
glyphname = uni1E0E;
layers = (
{
anchors = (
{
name = m.uni032E;
position = "{505, -272}";
},
{
name = t.uni0304_2;
position = "{271, 923}";
},
{
name = t.uni0335_4;
position = "{505, 880}";
},
{
name = t.uni1DC7;
position = "{504, 1760}";
}
);
layerId = "6C046C9F-D66B-4CE6-B064-C5BDB7BD1C21";
shapes = (
{
closed = 1;
nodes = (
(78,0,l),
(78,1760,l),
(562,1760,ls),
(752,1760,o),
(944,1549,o),
(944,1346,qs),
(944,522,ls),
(944,272,o),
(769,0,o),
(550,0,qs)
);
},
{
closed = 1;
nodes = (
(432,311,l),
(493,311,ls),
(590,311,o),
(590,405,qs),
(590,1313,ls),
(590,1401,o),
(543,1452,o),
(471,1452,qs),
(432,1452,l)
);
},
{
closed = 1;
nodes = (
(180,-272,l),
(180,-119,l),
(830,-119,l),
(830,-272,l)
);
}
);
width = 1010;
}
);
unicode = 7694;
},
{
glyphname = uni01C5;
layers = (
{
anchors = (
{
name = t.uni0304_2;
position = "{271, 923}";
},
{
name = t.uni0335_4;
position = "{505, 880}";
}
);
layerId = "6C046C9F-D66B-4CE6-B064-C5BDB7BD1C21";
shapes = (
{
closed = 1;
nodes = (
(78,0,l),
(78,1760,l),
(562,1760,ls),
(752,1760,o),
(944,1549,o),
(944,1346,qs),
(944,522,ls),
(944,272,o),
(769,0,o),
(550,0,qs)
);
},
{
closed = 1;
nodes = (
(432,311,l),
(493,311,ls),
(590,311,o),
(590,405,qs),
(590,1313,ls),
(590,1401,o),
(543,1452,o),
(471,1452,qs),
(432,1452,l)
);
},
{
closed = 1;
nodes = (
(1038,0,l),
(1038,219,l),
(1412,1216,l),
(1056,1216,l),
(1056,1500,l),
(1783,1500,l),
(1783,1256,l),
(1430,268,l),
(1786,268,l),
(1786,0,l)
);
},
{
closed = 1;
nodes = (
(1242,1591,l),
(1001,1994,l),
(1360,1994,l),
(1446,1709,l),
(1532,1994,l),
(1891,1994,l),
(1650,1591,l)
);
}
);
width = 1800;
}
);
unicode = 453;
},
{
glyphname = E;
layers = (
{
anchors = (
{
name = m.uni0328_3;
position = "{477, 0}";
},
{
name = m.uni032E;
position = "{442, 0}";
},
{
name = t.uni0304;
position = "{435, 1760}";
}
);
layerId = "6C046C9F-D66B-4CE6-B064-C5BDB7BD1C21";
shapes = (
{
closed = 1;
nodes = (
(78,0,l),
(78,1760,l),
(782,1760,l),
(782,1420,l),
(436,1420,l),
(436,1077,l),
(768,1077,l),
(768,746,l),
(436,746,l),
(436,343,l),
(805,343,l),
(805,0,l)
);
}
);
width = 843;
}
);
unicode = 69;
},
{
glyphname = Eacute;
layers = (
{
anchors = (
{
name = m.uni0328_3;
position = "{477, 0}";
},
{
name = m.uni032E;
position = "{442, 0}";
},
{
name = t.uni0304;
position = "{435, 1760}";
}
);
layerId = "6C046C9F-D66B-4CE6-B064-C5BDB7BD1C21";
shapes = (
{
closed = 1;
nodes = (
(78,0,l),
(78,1760,l),
(782,1760,l),
(782,1420,l),
(436,1420,l),
(436,1077,l),
(768,1077,l),
(768,746,l),
(436,746,l),
(436,343,l),
(805,343,l),
(805,0,l)
);
},
{
closed = 1;
nodes = (
(206,1813,l),
(206,2036,l),
(681,2254,l),
(681,1907,l)
);
}
);
width = 843;
}
);
unicode = 201;
},
{
glyphname = Ebreve;
layers = (
{
anchors = (
{
name = m.uni0328_3;
position = "{477, 0}";
},
{
name = m.uni032E;
position = "{442, 0}";
},
{
name = t.uni0304;
position = "{435, 1760}";
}
);
layerId = "6C046C9F-D66B-4CE6-B064-C5BDB7BD1C21";
shapes = (
{
closed = 1;
nodes = (
(78,0,l),
(78,1760,l),
(782,1760,l),
(782,1420,l),
(436,1420,l),
(436,1077,l),
(768,1077,l),
(768,746,l),
(436,746,l),
(436,343,l),
(805,343,l),
(805,0,l)
);
},
{
closed = 1;
nodes = (
(272,1852,o),
(55,2000,o),
(55,2163,qs),
(55,2184,o),
(58,2205,q),
(314,2205,l),
(314,2148,o),
(372,2089,o),
(449,2089,qs),
(526,2089,o),
(584,2148,o),
(584,2205,q),
(840,2205,l),
(841,2195,o),
(842,2175,o),
(842,2170,qs),
(842,2003,o),
(627,1852,o),
(447,1852,qs)
);
}
);
width = 843;
}
);
unicode = 276;
},
{
glyphname = Ecaron;
layers = (
{
anchors = (
{
name = m.uni0328_3;
position = "{477, 0}";
},
{
name = m.uni032E;
position = "{442, 0}";
},
{
name = t.uni0304;
position = "{435, 1760}";
}
);
layerId = "6C046C9F-D66B-4CE6-B064-C5BDB7BD1C21";
shapes = (
{
closed = 1;
nodes = (
(78,0,l),
(78,1760,l),
(782,1760,l),
(782,1420,l),
(436,1420,l),
(436,1077,l),
(768,1077,l),
(768,746,l),
(436,746,l),
(436,343,l),
(805,343,l),
(805,0,l)
);
},
{
closed = 1;
nodes = (
(240,1851,l),
(-1,2254,l),
(358,2254,l),
(444,1969,l),
(530,2254,l),
(889,2254,l),
(648,1851,l)
);
}
);
width = 843;
}
);
unicode = 282;
},
{
glyphname = uni1E1C;
layers = (
{
anchors = (
{
name = m.uni0328_3;
position = "{477, 0}";
},
{
name = m.uni032E;
position = "{680, -631}";
},
{
name = t.uni0304;
position = "{435, 1760}";
}
);
layerId = "6C046C9F-D66B-4CE6-B064-C5BDB7BD1C21";
shapes = (
{
closed = 1;
nodes = (
(78,0,l),
(78,1760,l),
(782,1760,l),
(782,1420,l),
(436,1420,l),
(436,1077,l),
(768,1077,l),
(768,746,l),
(436,746,l),
(436,343,l),
(805,343,l),
(805,0,l)
);
},
{
closed = 1;
nodes = (
(302,-631,o),
(207,-591,q),
(207,-368,l),
(238,-378,o),
(298,-391,o),
(325,-391,qs),
(375,-391,o),
(442,-338,o),
(442,-273,qs),
(442,-217,o),
(387,-73,o),
(338,0,q),
(499,0,l),
(596,-85,o),
(703,-294,o),
(703,-387,qs),
(703,-490,o),
(561,-631,o),
(405,-631,qs)
);
},
{
closed = 1;
nodes = (
(259,1852,o),
(42,2000,o),
(42,2163,qs),
(42,2184,o),
(45,2205,q),
(301,2205,l),
(301,2148,o),
(359,2089,o),
(436,2089,qs),
(513,2089,o),
(571,2148,o),
(571,2205,q),
(827,2205,l),
(828,2195,o),
(829,2175,o),
(829,2170,qs),
(829,2003,o),
(614,1852,o),
(434,1852,qs)
);
}
);
width = 843;
}
);
unicode = 7708;
},
{
glyphname = Ecircumflex;
layers = (
{
anchors = (
{
name = m.uni0328_3;
position = "{477, 0}";
},
{
name = m.uni032E;
position = "{442, 0}";
},
{
name = t.uni0304;
position = "{435, 1760}";
}
);
layerId = "6C046C9F-D66B-4CE6-B064-C5BDB7BD1C21";
shapes = (
{
closed = 1;
nodes = (
(78,0,l),
(78,1760,l),
(782,1760,l),
(782,1420,l),
(436,1420,l),
(436,1077,l),
(768,1077,l),
(768,746,l),
(436,746,l),
(436,343,l),
(805,343,l),
(805,0,l)
);
},
{
closed = 1;
nodes = (
(-1,1851,l),
(240,2254,l),
(648,2254,l),
(889,1851,l),
(530,1851,l),
(444,2136,l),
(358,1851,l)
);
}
);
width = 843;
}
);
unicode = 202;
},
{
glyphname = uni1EBE;
layers = (
{
anchors = (
{
name = m.uni0328_3;
position = "{477, 0}";
},
{
name = m.uni032E;
position = "{442, 0}";
},
{
name = t.uni0304;
position = "{435, 1760}";
}
);
layerId = "6C046C9F-D66B-4CE6-B064-C5BDB7BD1C21";
shapes = (
{
closed = 1;
nodes = (
(78,0,l),
(78,1760,l),
(782,1760,l),
(782,1420,l),
(436,1420,l),
(436,1077,l),
(768,1077,l),
(768,746,l),
(436,746,l),
(436,343,l),
(805,343,l),
(805,0,l)
);
},
{
closed = 1;
nodes = (
(724,2000,l),
(838,2204,l),
(1145,2204,l),
(957,2000,l)
);
},
{
closed = 1;
nodes = (
(51,1839,l),
(288,2093,l),
(582,2093,l),
(819,1839,l),
(534,1839,l),
(435,1974,l),
(336,1839,l)
);
}
);
width = 843;
}
);
unicode = 7870;
},
{
glyphname = uni1EC6;
layers = (
{
anchors = (
{
name = m.uni0328_3;
position = "{477, 0}";
},
{
name = m.uni032E;
position = "{442, 0}";
},
{
name = t.uni0304;
position = "{435, 2232}";
}
);
layerId = "6C046C9F-D66B-4CE6-B064-C5BDB7BD1C21";
shapes = (
{
closed = 1;
nodes = (
(78,0,l),
(78,1760,l),
(782,1760,l),
(782,1420,l),
(436,1420,l),
(436,1077,l),
(768,1077,l),
(768,746,l),
(436,746,l),
(436,343,l),
(805,343,l),
(805,0,l)
);
},
{
closed = 1;
nodes = (
(263,-417,l),
(263,-119,l),
(621,-119,l),
(621,-417,l)
);
},
{
closed = 1;
nodes = (
(-10,1861,l),
(231,2194,l),
(639,2194,l),
(880,1861,l),
(521,1861,l),
(435,2076,l),
(349,1861,l)
);
}
);
width = 843;
}
);
unicode = 7878;
},
{
glyphname = uni1EC0;
layers = (
{
anchors = (
{
name = m.uni0328_3;
position = "{477, 0}";
},
{
name = m.uni032E;
position = "{442, 0}";
},
{
name = t.uni0304;
position = "{435, 1760}";
}
);
layerId = "6C046C9F-D66B-4CE6-B064-C5BDB7BD1C21";
shapes = (
{
closed = 1;
nodes = (
(78,0,l),
(78,1760,l),
(782,1760,l),
(782,1420,l),
(436,1420,l),
(436,1077,l),
(768,1077,l),
(768,746,l),
(436,746,l),
(436,343,l),
(805,343,l),
(805,0,l)
);
},
{
closed = 1;
nodes = (
(791,2000,l),
(603,2204,l),
(910,2204,l),
(1024,2000,l)
);
},
{
closed = 1;
nodes = (
(51,1839,l),
(288,2093,l),
(582,2093,l),
(819,1839,l),
(534,1839,l),
(435,1974,l),
(336,1839,l)
);
}
);
width = 843;
}
);
unicode = 7872;
},
{
glyphname = uni1EC2;
layers = (
{
anchors = (
{
name = m.uni0328_3;
position = "{477, 0}";
},
{
name = m.uni032E;
position = "{442, 0}";
},
{
name = t.uni0304;
position = "{435, 1760}";
}
);
layerId = "6C046C9F-D66B-4CE6-B064-C5BDB7BD1C21";
shapes = (
{
closed = 1;
nodes = (
(78,0,l),
(78,1760,l),
(782,1760,l),
(782,1420,l),
(436,1420,l),
(436,1077,l),
(768,1077,l),
(768,746,l),
(436,746,l),
(436,343,l),
(805,343,l),
(805,0,l)
);
},
{
closed = 1;
nodes = (
(739,2036,l),
(773,2049,o),
(814,2086,o),
(814,2117,qs),
(814,2176,o),
(751,2176,qs),
(723,2176,o),
(695,2166,q),
(695,2278,l),
(752,2299,o),
(809,2299,qs),
(886,2299,o),
(974,2221,o),
(974,2151,qs),
(974,2072,o),
(877,1982,o),
(805,1959,q)
);
},
{
closed = 1;
nodes = (
(51,1839,l),
(288,2093,l),
(582,2093,l),
(819,1839,l),
(534,1839,l),
(435,1974,l),
(336,1839,l)
);
}
);
width = 843;
}
);
unicode = 7874;
},
{
glyphname = uni1EC4;
layers = (
{
anchors = (
{
name = m.uni0328_3;
position = "{477, 0}";
},
{
name = m.uni032E;
position = "{442, 0}";
},
{
name = t.uni0304;
position = "{435, 1760}";
}
);
layerId = "6C046C9F-D66B-4CE6-B064-C5BDB7BD1C21";
shapes = (
{
closed = 1;
nodes = (
(78,0,l),
(78,1760,l),
(782,1760,l),
(782,1420,l),
(436,1420,l),
(436,1077,l),
(768,1077,l),
(768,746,l),
(436,746,l),
(436,343,l),
(805,343,l),
(805,0,l)
);
},
{
closed = 1;
nodes = (
(510,2142,o),
(431,2176,o),
(356,2210,o),
(316,2210,qs),
(292,2210,o),
(250,2188,o),
(232,2159,q),
(121,2217,l),
(147,2282,o),
(219,2375,o),
(294,2375,qs),
(341,2375,o),
(419,2341,o),
(493,2307,o),
(533,2307,qs),
(583,2307,o),
(617,2363,q),
(742,2323,l),
(714,2253,o),
(640,2142,o),
(555,2142,qs)
);
},
{
closed = 1;
nodes = (
(51,1839,l),
(288,2093,l),
(582,2093,l),
(819,1839,l),
(534,1839,l),
(435,1974,l),
(336,1839,l)
);
}
);
width = 843;
}
);
unicode = 7876;
},
{
glyphname = uni0204;
layers = (
{
anchors = (
{
name = m.uni0328_3;
position = "{477, 0}";
},
{
name = m.uni032E;
position = "{442, 0}";
},
{
name = t.uni0304;
position = "{435, 1760}";
}
);
layerId = "6C046C9F-D66B-4CE6-B064-C5BDB7BD1C21";
shapes = (
{
closed = 1;
nodes = (
(78,0,l),
(78,1760,l),
(782,1760,l),
(782,1420,l),
(436,1420,l),
(436,1077,l),
(768,1077,l),
(768,746,l),
(436,746,l),
(436,343,l),
(805,343,l),
(805,0,l)
);
},
{
closed = 1;
nodes = (
(247,1846,l),
(-42,2275,l),
(192,2383,l),
(413,1904,l)
);
},
{
closed = 1;
nodes = (
(549,1846,l),
(301,2275,l),
(531,2383,l),
(715,1904,l)
);
}
);
width = 843;
}
);
unicode = 516;
},
{
glyphname = Edieresis;
layers = (
{
anchors = (
{
name = m.uni0328_3;
position = "{477, 0}";
},
{
name = m.uni032E;
position = "{442, 0}";
},
{
name = t.uni0304;
position = "{435, 1760}";
}
);
layerId = "6C046C9F-D66B-4CE6-B064-C5BDB7BD1C21";
shapes = (
{
closed = 1;
nodes = (
(78,0,l),
(78,1760,l),
(782,1760,l),
(782,1420,l),
(436,1420,l),
(436,1077,l),
(768,1077,l),
(768,746,l),
(436,746,l),
(436,343,l),
(805,343,l),
(805,0,l)
);
},
{
closed = 1;
nodes = (
(500,1859,l),
(500,2157,l),
(858,2157,l),
(858,1859,l)
);
},
{
closed = 1;
nodes = (
(16,1859,l),
(16,2157,l),
(374,2157,l),
(374,1859,l)
);
}
);
width = 843;
}
);
unicode = 203;
},
{
glyphname = Edotaccent;
layers = (
{
anchors = (
{
name = m.uni0328_3;
position = "{477, 0}";
},
{
name = m.uni032E;
position = "{442, 0}";
},
{
name = t.uni0304;
position = "{435, 1760}";
}
);
layerId = "6C046C9F-D66B-4CE6-B064-C5BDB7BD1C21";
shapes = (
{
closed = 1;
nodes = (
(78,0,l),
(78,1760,l),
(782,1760,l),
(782,1420,l),
(436,1420,l),
(436,1077,l),
(768,1077,l),
(768,746,l),
(436,746,l),
(436,343,l),
(805,343,l),
(805,0,l)
);
},
{
closed = 1;
nodes = (
(265,1852,l),
(265,2150,l),
(623,2150,l),
(623,1852,l)
);
}
);
width = 843;
}
);
unicode = 278;
},
{
glyphname = uni1EB8;
layers = (
{
anchors = (
{
name = m.uni0328_3;
position = "{477, 0}";
},
{
name = m.uni032E;
position = "{442, 0}";
},
{
name = t.uni0304;
position = "{435, 1760}";
}
);
layerId = "6C046C9F-D66B-4CE6-B064-C5BDB7BD1C21";
shapes = (
{
closed = 1;
nodes = (
(78,0,l),
(78,1760,l),
(782,1760,l),
(782,1420,l),
(436,1420,l),
(436,1077,l),
(768,1077,l),
(768,746,l),
(436,746,l),
(436,343,l),
(805,343,l),
(805,0,l)
);
},
{
closed = 1;
nodes = (
(263,-417,l),
(263,-119,l),
(621,-119,l),
(621,-417,l)
);
}
);
width = 843;
}
);
unicode = 7864;
},
{
glyphname = Egrave;
layers = (
{
anchors = (
{
name = m.uni0328_3;
position = "{477, 0}";
},
{
name = m.uni032E;
position = "{442, 0}";
},
{
name = t.uni0304;
position = "{435, 1760}";
}
);
layerId = "6C046C9F-D66B-4CE6-B064-C5BDB7BD1C21";
shapes = (
{
closed = 1;
nodes = (
(78,0,l),
(78,1760,l),
(782,1760,l),
(782,1420,l),
(436,1420,l),
(436,1077,l),
(768,1077,l),
(768,746,l),
(436,746,l),
(436,343,l),
(805,343,l),
(805,0,l)
);
},
{
closed = 1;
nodes = (
(681,1813,l),
(206,1907,l),
(206,2254,l),
(681,2036,l)
);
}
);
width = 843;
}
);
unicode = 200;
},
{
glyphname = uni1EBA;
layers = (
{
anchors = (
{
name = m.uni0328_3;
position = "{477, 0}";
},
{
name = m.uni032E;
position = "{442, 0}";
},
{
name = t.uni0304;
position = "{489, 2450}";
}
);
layerId = "6C046C9F-D66B-4CE6-B064-C5BDB7BD1C21";
shapes = (
{
closed = 1;
nodes = (
(78,0,l),
(78,1760,l),
(782,1760,l),
(782,1420,l),
(436,1420,l),
(436,1077,l),
(768,1077,l),
(768,746,l),
(436,746,l),
(436,343,l),
(805,343,l),
(805,0,l)
);
},
{
closed = 1;
nodes = (
(300,1961,l),
(354,1981,o),
(420,2041,o),
(420,2091,qs),
(420,2186,o),
(319,2186,qs),
(272,2186,o),
(229,2170,q),
(229,2350,l),
(317,2383,o),
(412,2383,qs),
(537,2383,o),
(678,2258,o),
(678,2145,qs),
(678,2018,o),
(522,1873,o),
(406,1837,q)
);
}
);
width = 843;
}
);
unicode = 7866;
},
{
glyphname = uni0206;
layers = (
{
anchors = (
{
name = m.uni0328_3;
position = "{477, 0}";
},
{
name = m.uni032E;
position = "{442, 0}";
},
{
name = t.uni0304;
position = "{435, 1760}";
}
);
layerId = "6C046C9F-D66B-4CE6-B064-C5BDB7BD1C21";
shapes = (
{
closed = 1;
nodes = (
(78,0,l),
(78,1760,l),
(782,1760,l),
(782,1420,l),
(436,1420,l),
(436,1077,l),
(768,1077,l),
(768,746,l),
(436,746,l),
(436,343,l),
(805,343,l),
(805,0,l)
);
},
{
closed = 1;
nodes = (
(73,1868,l),
(70,1888,o),
(70,1909,qs),
(70,2072,o),
(267,2220,o),
(442,2220,qs),
(622,2220,o),
(817,2069,o),
(817,1902,qs),
(817,1897,o),
(816,1878,o),
(815,1868,q),
(579,1868,l),
(579,1936,o),
(503,2002,o),
(444,2002,qs),
(386,2002,o),
(309,1936,o),
(309,1868,q)
);
}
);
width = 843;
}
);
unicode = 518;
},
{
glyphname = Emacron;
layers = (
{
anchors = (
{
name = m.uni0328_3;
position = "{477, 0}";
},
{
name = m.uni032E;
position = "{442, 0}";
},
{
name = t.uni0304;
position = "{435, 1760}";
}
);
layerId = "6C046C9F-D66B-4CE6-B064-C5BDB7BD1C21";
shapes = (
{
closed = 1;
nodes = (
(78,0,l),
(78,1760,l),
(782,1760,l),
(782,1420,l),
(436,1420,l),
(436,1077,l),
(768,1077,l),
(768,746,l),
(436,746,l),
(436,343,l),
(805,343,l),
(805,0,l)
);
},
{
closed = 1;
nodes = (
(96,1879,l),
(96,2032,l),
(746,2032,l),
(746,1879,l)
);
}
);
width = 843;
}
);
unicode = 274;
},
{
glyphname = uni1E16;
layers = (
{
anchors = (
{
name = m.uni0328_3;
position = "{477, 0}";
},
{
name = m.uni032E;
position = "{442, 0}";
},
{
name = t.uni0304;
position = "{441, 2356}";
}
);
layerId = "6C046C9F-D66B-4CE6-B064-C5BDB7BD1C21";
shapes = (
{
closed = 1;
nodes = (
(78,0,l),
(78,1760,l),
(782,1760,l),
(782,1420,l),
(436,1420,l),
(436,1077,l),
(768,1077,l),
(768,746,l),
(436,746,l),
(436,343,l),
(805,343,l),
(805,0,l)
);
},
{
closed = 1;
nodes = (
(110,1819,l),
(110,1972,l),
(760,1972,l),
(760,1819,l)
);
},
{
closed = 1;
nodes = (
(204,2020,l),
(204,2213,l),
(679,2381,l),
(679,2094,l)
);
}
);
width = 843;
}
);
unicode = 7702;
},
{
glyphname = uni1E14;
layers = (
{
anchors = (
{
name = m.uni0328_3;
position = "{477, 0}";
},
{
name = m.uni032E;
position = "{442, 0}";
},
{
name = t.uni0304;
position = "{441, 2346}";
}
);
layerId = "6C046C9F-D66B-4CE6-B064-C5BDB7BD1C21";
shapes = (
{
closed = 1;
nodes = (
(78,0,l),
(78,1760,l),
(782,1760,l),
(782,1420,l),
(436,1420,l),
(436,1077,l),
(768,1077,l),
(768,746,l),
(436,746,l),
(436,343,l),
(805,343,l),
(805,0,l)
);
},
{
closed = 1;
nodes = (
(110,1819,l),
(110,1972,l),
(760,1972,l),
(760,1819,l)
);
},
{
closed = 1;
nodes = (
(679,2019,l),
(204,2093,l),
(204,2380,l),
(679,2212,l)
);
}
);
width = 843;
}
);
unicode = 7700;
},
{
glyphname = Eng;
layers = (
{
layerId = "6C046C9F-D66B-4CE6-B064-C5BDB7BD1C21";
shapes = (
{
closed = 1;
nodes = (
(447,-186,l),
(577,-186,o),
(577,-31,qs),
(577,105,l),
(422,880,l),
(422,0,l),
(78,0,l),
(78,1760,l),
(440,1760,l),
(602,917,l),
(602,1760,l),
(942,1760,l),
(942,-8,ls),
(942,-246,o),
(683,-488,o),
(447,-488,q)
);
}
);
width = 1006;
}
);
unicode = 330;
},
{
glyphname = Eogonek;
layers = (
{
anchors = (
{
name = m.uni0328_3;
position = "{477, 0}";
},
{
name = m.uni032E;
position = "{442, 0}";
},
{
name = t.uni0304;
position = "{435, 1760}";
}
);
layerId = "6C046C9F-D66B-4CE6-B064-C5BDB7BD1C21";
shapes = (
{
closed = 1;
nodes = (
(78,0,l),
(78,1760,l),
(782,1760,l),
(782,1420,l),
(436,1420,l),
(436,1077,l),
(768,1077,l),
(768,746,l),
(436,746,l),
(436,343,l),
(805,343,l),
(805,0,l)
);
},
{
closed = 1;
nodes = (
(367,-631,o),
(209,-559,o),
(114,-424,o),
(114,-330,qs),
(114,-148,o),
(378,0,q),
(589,0,l),
(533,-58,o),
(429,-196,o),
(429,-279,qs),
(429,-391,o),
(544,-391,qs),
(593,-391,o),
(660,-368,q),
(660,-591,l),
(565,-631,o),
(462,-631,qs)
);
}
);
width = 843;
}
);
unicode = 280;
},
{
glyphname = uni0190;
layers = (
{
layerId = "6C046C9F-D66B-4CE6-B064-C5BDB7BD1C21";
shapes = (
{
closed = 1;
nodes = (
(260,-20,o),
(39,266,o),
(39,530,qs),
(39,640,o),
(61,798,o),
(133,909,o),
(208,945,q),
(114,979,o),
(43,1153,o),
(43,1295,qs),
(43,1763,o),
(493,1763,qs),
(726,1763,o),
(950,1537,o),
(950,1295,qs),
(950,1233,l),
(586,1233,l),
(586,1286,ls),
(586,1349,o),
(562,1440,o),
(503,1440,qs),
(405,1440,o),
(405,1291,qs),
(405,1191,o),
(513,1103,o),
(598,1103,qs),
(662,1103,l),
(662,787,l),
(558,787,ls),
(470,787,o),
(408,653,o),
(408,562,qs),
(408,530,ls),
(408,474,o),
(417,371,o),
(459,306,o),
(506,306,qs),
(571,306,o),
(600,403,o),
(600,473,qs),
(600,658,l),
(961,658,l),
(961,474,ls),
(961,226,o),
(749,-20,o),
(516,-20,qs)
);
}
);
width = 1012;
}
);
unicode = 400;
},
{
glyphname = uni018E;
layers = (
{
layerId = "6C046C9F-D66B-4CE6-B064-C5BDB7BD1C21";
shapes = (
{
closed = 1;
nodes = (
(765,0,l),
(38,0,l),
(38,343,l),
(407,343,l),
(407,746,l),
(75,746,l),
(75,1077,l),
(407,1077,l),
(407,1420,l),
(61,1420,l),
(61,1760,l),
(765,1760,l)
);
}
);
width = 843;
}
);
unicode = 398;
},
{
glyphname = uni01A9;
layers = (
{
layerId = "6C046C9F-D66B-4CE6-B064-C5BDB7BD1C21";
shapes = (
{
closed = 1;
nodes = (
(62,0,l),
(62,268,l),
(369,882,l),
(62,1455,l),
(62,1760,l),
(779,1760,l),
(779,1420,l),
(438,1420,l),
(702,926,l),
(702,850,l),
(449,343,l),
(795,343,l),
(795,0,l)
);
}
);
width = 836;
}
);
unicode = 425;
},
{
glyphname = uni0246;
layers = (
{
anchors = (
{
name = m.uni0328_3;
position = "{477, 0}";
},
{
name = m.uni032E;
position = "{442, 0}";
},
{
name = t.uni0304;
position = "{435, 1760}";
}
);
layerId = "6C046C9F-D66B-4CE6-B064-C5BDB7BD1C21";
shapes = (
{
closed = 1;
nodes = (
(78,0,l),
(78,1760,l),
(607,1760,l),
(669,2000,l),
(809,2000,l),
(747,1760,l),
(782,1760,l),
(782,1420,l),
(436,1420,l),
(436,1077,l),
(768,1077,l),
(768,746,l),
(436,746,l),
(436,343,l),
(805,343,l),
(805,0,l),
(289,0,l),
(241,-186,l),
(101,-186,l),
(149,0,l)
);
}
);
width = 843;
}
);
unicode = 582;
},
{
glyphname = Eth;
layers = (
{
layerId = "6C046C9F-D66B-4CE6-B064-C5BDB7BD1C21";
shapes = (
{
closed = 1;
nodes = (
(78,0,l),
(78,804,l),
(3,804,l),
(3,1036,l),
(78,1036,l),
(78,1760,l),
(562,1760,ls),
(752,1760,o),
(944,1549,o),
(944,1346,qs),
(944,522,ls),
(944,272,o),
(769,0,o),
(550,0,qs)
);
},
{
closed = 1;
nodes = (
(432,311,l),
(493,311,ls),
(590,311,o),
(590,405,qs),
(590,1313,ls),
(590,1401,o),
(543,1452,o),
(471,1452,qs),
(432,1452,l),
(432,1036,l),
(519,1036,l),
(519,804,l),
(432,804,l)
);
}
);
width = 1010;
}
);
unicode = 208;
},
{
glyphname = uni1EBC;
layers = (
{
anchors = (
{
name = m.uni0328_3;
position = "{477, 0}";
},
{
name = m.uni032E;
position = "{442, 0}";
},
{
name = t.uni0304;
position = "{435, 1760}";
}
);
layerId = "6C046C9F-D66B-4CE6-B064-C5BDB7BD1C21";
shapes = (
{
closed = 1;
nodes = (
(78,0,l),
(78,1760,l),
(782,1760,l),
(782,1420,l),
(436,1420,l),
(436,1077,l),
(768,1077,l),
(768,746,l),
(436,746,l),
(436,343,l),
(805,343,l),
(805,0,l)
);
},
{
closed = 1;
nodes = (
(532,1871,o),
(414,1917,o),
(317,1962,o),
(271,1962,qs),
(245,1962,o),
(199,1932,o),
(179,1894,q),
(31,1972,l),
(56,2033,o),
(115,2134,o),
(207,2195,o),
(278,2195,qs),
(352,2195,o),
(466,2153,o),
(559,2111,o),
(598,2111,qs),
(625,2111,o),
(671,2145,o),
(691,2186,q),
(857,2132,l),
(833,2065,o),
(775,1945,o),
(684,1871,o),
(609,1871,qs)
);
}
);
width = 843;
}
);
unicode = 7868;
},
{
glyphname = uni01B7;
layers = (
{
anchors = (
{
name = m.uni032E;
position = "{506, 0}";
},
{
name = t.uni1DC7;
position = "{526, 1760}";
}
);
layerId = "6C046C9F-D66B-4CE6-B064-C5BDB7BD1C21";
shapes = (
{
closed = 1;
nodes = (
(255,-14,o),
(43,229,o),
(43,479,qs),
(43,658,l),
(402,658,l),
(402,479,ls),
(402,399,o),
(443,310,o),
(504,310,qs),
(548,310,o),
(585,372,o),
(592,475,o),
(592,536,qs),
(592,579,ls),
(592,803,o),
(445,803,qs),
(329,803,l),
(329,1058,l),
(566,1420,l),
(88,1420,l),
(88,1760,l),
(959,1760,l),
(959,1450,l),
(697,1050,l),
(836,998,o),
(961,736,o),
(961,536,qs),
(961,265,o),
(735,-14,o),
(486,-14,qs)
);
}
);
width = 1012;
}
);
unicode = 439;
},
{
glyphname = uni01B8;
layers = (
{
layerId = "6C046C9F-D66B-4CE6-B064-C5BDB7BD1C21";
shapes = (
{
closed = 1;
nodes = (
(277,-14,o),
(51,265,o),
(51,536,qs),
(51,736,o),
(176,998,o),
(315,1050,q),
(53,1450,l),
(53,1760,l),
(924,1760,l),
(924,1420,l),
(446,1420,l),
(683,1058,l),
(683,803,l),
(567,803,ls),
(420,803,o),
(420,579,qs),
(420,536,ls),
(420,475,o),
(427,372,o),
(464,310,o),
(508,310,qs),
(570,310,o),
(610,399,o),
(610,479,qs),
(610,658,l),
(969,658,l),
(969,479,ls),
(969,229,o),
(757,-14,o),
(526,-14,qs)
);
}
);
width = 1012;
}
);
unicode = 440;
},
{
glyphname = F;
layers = (
{
anchors = (
{
name = t.uni1DC7;
position = "{452, 1760}";
}
);
layerId = "6C046C9F-D66B-4CE6-B064-C5BDB7BD1C21";
shapes = (
{
closed = 1;
nodes = (
(78,0,l),
(78,1760,l),
(782,1760,l),
(782,1417,l),
(432,1417,l),
(432,1137,l),
(764,1137,l),
(764,798,l),
(432,798,l),
(432,0,l)
);
}
);
width = 817;
}
);
rightKerningGroup = F;
unicode = 70;
},
{
glyphname = uni1E1E;
layers = (
{
anchors = (
{
name = t.uni1DC7;
position = "{452, 1760}";
}
);
layerId = "6C046C9F-D66B-4CE6-B064-C5BDB7BD1C21";
shapes = (
{
closed = 1;
nodes = (
(78,0,l),
(78,1760,l),
(782,1760,l),
(782,1417,l),
(432,1417,l),
(432,1137,l),
(764,1137,l),
(764,798,l),
(432,798,l),
(432,0,l)
);
},
{
closed = 1;
nodes = (
(273,1852,l),
(273,2150,l),
(631,2150,l),
(631,1852,l)
);
}
);
width = 817;
}
);
rightKerningGroup = F;
unicode = 7710;
},
{
glyphname = uni0191;
layers = (
{
anchors = (
{
name = t.uni1DC7;
position = "{452, 1760}";
}
);
layerId = "6C046C9F-D66B-4CE6-B064-C5BDB7BD1C21";
shapes = (
{
closed = 1;
nodes = (
(-22,120,l),
(31,120,o),
(78,182,o),
(78,252,qs),
(78,1760,l),
(782,1760,l),
(782,1417,l),
(432,1417,l),
(432,1137,l),
(764,1137,l),
(764,798,l),
(432,798,l),
(432,252,ls),
(432,121,o),
(320,-81,o),
(116,-196,o),
(-22,-196,q)
);
}
);
width = 817;
}
);
unicode = 401;
},
{
glyphname = G;
layers = (
{
anchors = (
{
name = b.uni0327;
position = "{504, 0}";
},
{
name = t.uni1DC7;
position = "{495, 1760}";
}
);
layerId = "6C046C9F-D66B-4CE6-B064-C5BDB7BD1C21";
shapes = (
{
closed = 1;
nodes = (
(64,-16,o),
(64,524,qs),
(64,1283,ls),
(64,1776,o),
(496,1776,qs),
(674,1776,o),
(864,1633,o),
(936,1359,o),
(936,1162,q),
(592,1162,l),
(592,1318,ls),
(592,1375,o),
(561,1452,o),
(512,1452,qs),
(451,1452,o),
(412,1370,o),
(412,1321,qs),
(412,468,ls),
(412,397,o),
(449,308,o),
(503,308,qs),
(559,308,o),
(596,397,o),
(596,470,qs),
(596,721,l),
(502,721,l),
(502,1025,l),
(932,1025,l),
(932,0,l),
(791,0,l),
(731,148,l),
(639,-16,o),
(441,-16,qs)
);
}
);
width = 993;
}
);
unicode = 71;
},
{
glyphname = uni0194;
layers = (
{
layerId = "6C046C9F-D66B-4CE6-B064-C5BDB7BD1C21";
shapes = (
{
closed = 1;
nodes = (
(358,-196,o),
(188,-96,o),
(99,79,o),
(99,189,qs),
(99,285,o),
(159,517,o),
(201,638,qs),
(273,846,l),
(23,1761,l),
(361,1761,l),
(480,1182,l),
(599,1761,l),
(937,1761,l),
(689,855,l),
(770,638,ls),
(815,518,o),
(861,285,o),
(861,189,qs),
(861,79,o),
(772,-96,o),
(602,-196,o),
(480,-196,qs)
);
},
{
closed = 1;
nodes = (
(517,102,o),
(554,155,o),
(554,193,qs),
(554,263,o),
(518,399,o),
(480,506,q),
(442,399,o),
(406,263,o),
(406,193,qs),
(406,155,o),
(443,102,o),
(480,102,qs)
);
}
);
width = 961;
}
);
unicode = 404;
},
{
glyphname = Gbreve;
layers = (
{
anchors = (
{
name = b.uni0327;
position = "{504, 0}";
},
{
name = t.uni1DC7;
position = "{495, 1760}";
}
);
layerId = "6C046C9F-D66B-4CE6-B064-C5BDB7BD1C21";
shapes = (
{
closed = 1;
nodes = (
(64,-16,o),
(64,524,qs),
(64,1283,ls),
(64,1776,o),
(496,1776,qs),
(674,1776,o),
(864,1633,o),
(936,1359,o),
(936,1162,q),
(592,1162,l),
(592,1318,ls),
(592,1375,o),
(561,1452,o),
(512,1452,qs),
(451,1452,o),
(412,1370,o),
(412,1321,qs),
(412,468,ls),
(412,397,o),
(449,308,o),
(503,308,qs),
(559,308,o),
(596,397,o),
(596,470,qs),
(596,721,l),
(502,721,l),
(502,1025,l),
(932,1025,l),
(932,0,l),
(791,0,l),
(731,148,l),
(639,-16,o),
(441,-16,qs)
);
},
{
closed = 1;
nodes = (
(323,1852,o),
(106,2000,o),
(106,2163,qs),
(106,2184,o),
(109,2205,q),
(365,2205,l),
(365,2148,o),
(423,2089,o),
(500,2089,qs),
(577,2089,o),
(635,2148,o),
(635,2205,q),
(891,2205,l),
(892,2195,o),
(893,2175,o),
(893,2170,qs),
(893,2003,o),
(678,1852,o),
(498,1852,qs)
);
}
);
width = 993;
}
);
unicode = 286;
},
{
glyphname = Gcaron;
layers = (
{
anchors = (
{
name = b.uni0327;
position = "{504, 0}";
},
{
name = t.uni1DC7;
position = "{495, 1760}";
}
);
layerId = "6C046C9F-D66B-4CE6-B064-C5BDB7BD1C21";
shapes = (
{
closed = 1;
nodes = (
(64,-16,o),
(64,524,qs),
(64,1283,ls),
(64,1776,o),
(496,1776,qs),
(674,1776,o),
(864,1633,o),
(936,1359,o),
(936,1162,q),
(592,1162,l),
(592,1318,ls),
(592,1375,o),
(561,1452,o),
(512,1452,qs),
(451,1452,o),
(412,1370,o),
(412,1321,qs),
(412,468,ls),
(412,397,o),
(449,308,o),
(503,308,qs),
(559,308,o),
(596,397,o),
(596,470,qs),
(596,721,l),
(502,721,l),
(502,1025,l),
(932,1025,l),
(932,0,l),
(791,0,l),
(731,148,l),
(639,-16,o),
(441,-16,qs)
);
},
{
closed = 1;
nodes = (
(291,1851,l),
(50,2254,l),
(409,2254,l),
(495,1969,l),
(581,2254,l),
(940,2254,l),
(699,1851,l)
);
}
);
width = 993;
}
);
unicode = 486;
},
{
glyphname = Gcircumflex;
layers = (
{
anchors = (
{
name = b.uni0327;
position = "{504, 0}";
},
{
name = t.uni1DC7;
position = "{495, 1760}";
}
);
layerId = "6C046C9F-D66B-4CE6-B064-C5BDB7BD1C21";
shapes = (
{
closed = 1;
nodes = (
(64,-16,o),
(64,524,qs),
(64,1283,ls),
(64,1776,o),
(496,1776,qs),
(674,1776,o),
(864,1633,o),
(936,1359,o),
(936,1162,q),
(592,1162,l),
(592,1318,ls),
(592,1375,o),
(561,1452,o),
(512,1452,qs),
(451,1452,o),
(412,1370,o),
(412,1321,qs),
(412,468,ls),
(412,397,o),
(449,308,o),
(503,308,qs),
(559,308,o),
(596,397,o),
(596,470,qs),
(596,721,l),
(502,721,l),
(502,1025,l),
(932,1025,l),
(932,0,l),
(791,0,l),
(731,148,l),
(639,-16,o),
(441,-16,qs)
);
},
{
closed = 1;
nodes = (
(50,1851,l),
(291,2254,l),
(699,2254,l),
(940,1851,l),
(581,1851,l),
(495,2136,l),
(409,1851,l)
);
}
);
width = 993;
}
);
unicode = 284;
},
{
glyphname = uni0122;
layers = (
{
anchors = (
{
name = b.uni0327;
position = "{504, 0}";
},
{
name = t.uni1DC7;
position = "{495, 1760}";
}
);
layerId = "6C046C9F-D66B-4CE6-B064-C5BDB7BD1C21";
shapes = (
{
closed = 1;
nodes = (
(64,-16,o),
(64,524,qs),
(64,1283,ls),
(64,1776,o),
(496,1776,qs),
(674,1776,o),
(864,1633,o),
(936,1359,o),
(936,1162,q),
(592,1162,l),
(592,1318,ls),
(592,1375,o),
(561,1452,o),
(512,1452,qs),
(451,1452,o),
(412,1370,o),
(412,1321,qs),
(412,468,ls),
(412,397,o),
(449,308,o),
(503,308,qs),
(559,308,o),
(596,397,o),
(596,470,qs),
(596,721,l),
(502,721,l),
(502,1025,l),
(932,1025,l),
(932,0,l),
(791,0,l),
(731,148,l),
(639,-16,o),
(441,-16,qs)
);
},
{
closed = 1;
nodes = (
(366,-643,l),
(432,-407,l),
(305,-407,l),
(305,-109,l),
(679,-109,l),
(679,-398,l),
(577,-643,l)
);
}
);
width = 993;
}
);
unicode = 290;
},
{
glyphname = Gdotaccent;
layers = (
{
anchors = (
{
name = b.uni0327;
position = "{504, 0}";
},
{
name = t.uni1DC7;
position = "{495, 1760}";
}
);
layerId = "6C046C9F-D66B-4CE6-B064-C5BDB7BD1C21";
shapes = (
{
closed = 1;
nodes = (
(64,-16,o),
(64,524,qs),
(64,1283,ls),
(64,1776,o),
(496,1776,qs),
(674,1776,o),
(864,1633,o),
(936,1359,o),
(936,1162,q),
(592,1162,l),
(592,1318,ls),
(592,1375,o),
(561,1452,o),
(512,1452,qs),
(451,1452,o),
(412,1370,o),
(412,1321,qs),
(412,468,ls),
(412,397,o),
(449,308,o),
(503,308,qs),
(559,308,o),
(596,397,o),
(596,470,qs),
(596,721,l),
(502,721,l),
(502,1025,l),
(932,1025,l),
(932,0,l),
(791,0,l),
(731,148,l),
(639,-16,o),
(441,-16,qs)
);
},
{
closed = 1;
nodes = (
(316,1852,l),
(316,2150,l),
(674,2150,l),
(674,1852,l)
);
}
);
width = 993;
}
);
unicode = 288;
},
{
glyphname = uni1E9E;
layers = (
{
layerId = "6C046C9F-D66B-4CE6-B064-C5BDB7BD1C21";
shapes = (
{
closed = 1;
nodes = (
(58,0,l),
(58,1403,ls),
(58,1591,o),
(283,1777,o),
(491,1777,qs),
(640,1777,o),
(861,1699,o),
(934,1647,q),
(934,1404,l),
(805,1032,l),
(903,988,o),
(969,746,o),
(969,538,qs),
(969,356,o),
(901,117,o),
(732,0,o),
(582,0,qs),
(478,0,l),
(478,281,l),
(621,281,o),
(621,399,qs),
(621,676,ls),
(621,757,o),
(556,823,o),
(474,823,q),
(474,1043,l),
(617,1451,l),
(568,1470,o),
(514,1470,qs),
(408,1470,o),
(408,1358,qs),
(408,0,l)
);
}
);
width = 1019;
}
);
unicode = 7838;
},
{
glyphname = uni0193;
layers = (
{
anchors = (
{
name = b.uni0327;
position = "{504, 0}";
},
{
name = t.uni1DC7;
position = "{495, 1760}";
}
);
layerId = "6C046C9F-D66B-4CE6-B064-C5BDB7BD1C21";
shapes = (
{
closed = 1;
nodes = (
(64,-16,o),
(64,524,qs),
(64,1283,ls),
(64,1527,o),
(270,1776,o),
(456,1776,qs),
(590,1776,o),
(676,1717,q),
(716,1846,o),
(917,2000,o),
(1064,2000,q),
(1064,1684,l),
(995,1684,o),
(928,1619,o),
(928,1532,qs),
(928,1162,l),
(592,1162,l),
(592,1318,ls),
(592,1375,o),
(561,1452,o),
(512,1452,qs),
(451,1452,o),
(412,1370,o),
(412,1321,qs),
(412,468,ls),
(412,397,o),
(449,308,o),
(503,308,qs),
(559,308,o),
(596,397,o),
(596,470,qs),
(596,721,l),
(502,721,l),
(502,1025,l),
(932,1025,l),
(932,0,l),
(791,0,l),
(731,148,l),
(639,-16,o),
(441,-16,qs)
);
}
);
width = 1054;
}
);
unicode = 403;
},
{
glyphname = uni0241;
layers = (
{
layerId = "6C046C9F-D66B-4CE6-B064-C5BDB7BD1C21";
shapes = (
{
closed = 1;
nodes = (
(287,0,l),
(287,871,l),
(371,871,o),
(490,897,o),
(565,981,o),
(601,1151,o),
(601,1294,qs),
(601,1359,o),
(568,1457,o),
(508,1457,qs),
(465,1457,o),
(425,1402,o),
(414,1317,o),
(414,1271,qs),
(414,1125,l),
(48,1125,l),
(48,1379,ls),
(48,1581,o),
(305,1776,o),
(508,1776,qs),
(686,1776,o),
(891,1648,o),
(978,1403,o),
(978,1226,qs),
(978,1053,o),
(895,781,o),
(735,625,o),
(620,625,q),
(620,0,l)
);
}
);
width = 1008;
}
);
unicode = 577;
},
{
glyphname = uni1E20;
layers = (
{
anchors = (
{
name = b.uni0327;
position = "{504, 0}";
},
{
name = t.uni1DC7;
position = "{495, 2032}";
}
);
layerId = "6C046C9F-D66B-4CE6-B064-C5BDB7BD1C21";
shapes = (
{
closed = 1;
nodes = (
(64,-16,o),
(64,524,qs),
(64,1283,ls),
(64,1776,o),
(496,1776,qs),
(674,1776,o),
(864,1633,o),
(936,1359,o),
(936,1162,q),
(592,1162,l),
(592,1318,ls),
(592,1375,o),
(561,1452,o),
(512,1452,qs),
(451,1452,o),
(412,1370,o),
(412,1321,qs),
(412,468,ls),
(412,397,o),
(449,308,o),
(503,308,qs),
(559,308,o),
(596,397,o),
(596,470,qs),
(596,721,l),
(502,721,l),
(502,1025,l),
(932,1025,l),
(932,0,l),
(791,0,l),
(731,148,l),
(639,-16,o),
(441,-16,qs)
);
},
{
closed = 1;
nodes = (
(170,1879,l),
(170,2032,l),
(820,2032,l),
(820,1879,l)
);
}
);
width = 993;
}
);
unicode = 7712;
},
{
glyphname = uni01E4;
layers = (
{
anchors = (
{
name = b.uni0327;
position = "{504, 0}";
},
{
name = t.uni1DC7;
position = "{495, 1760}";
}
);
layerId = "6C046C9F-D66B-4CE6-B064-C5BDB7BD1C21";
shapes = (
{
closed = 1;
nodes = (
(64,-16,o),
(64,524,qs),
(64,1283,ls),
(64,1776,o),
(496,1776,qs),
(674,1776,o),
(864,1633,o),
(936,1359,o),
(936,1162,q),
(592,1162,l),
(592,1318,ls),
(592,1375,o),
(561,1452,o),
(512,1452,qs),
(451,1452,o),
(412,1370,o),
(412,1321,qs),
(412,468,ls),
(412,397,o),
(449,308,o),
(503,308,qs),
(549,308,o),
(589,370,o),
(594,423,q),
(499,423,l),
(499,655,l),
(596,655,l),
(596,721,l),
(502,721,l),
(502,1025,l),
(932,1025,l),
(932,655,l),
(1015,655,l),
(1015,423,l),
(932,423,l),
(932,0,l),
(791,0,l),
(731,148,l),
(639,-16,o),
(441,-16,qs)
);
}
);
width = 993;
}
);
unicode = 484;
},
{
glyphname = H;
layers = (
{
anchors = (
{
name = m.uni032E;
position = "{511, 0}";
},
{
name = t.uni0335_4;
position = "{511, 880}";
},
{
name = t.uni1DC7;
position = "{511, 1760}";
}
);
layerId = "6C046C9F-D66B-4CE6-B064-C5BDB7BD1C21";
shapes = (
{
closed = 1;
nodes = (
(78,0,l),
(78,1760,l),
(428,1760,l),
(428,1131,l),
(594,1131,l),
(594,1760,l),
(944,1760,l),
(944,0,l),
(594,0,l),
(594,798,l),
(428,798,l),
(428,0,l)
);
}
);
width = 1022;
}
);
unicode = 72;
},
{
glyphname = Hbar;
layers = (
{
layerId = "6C046C9F-D66B-4CE6-B064-C5BDB7BD1C21";
shapes = (
{
closed = 1;
nodes = (
(96,0,l),
(96,1342,l),
(-10,1342,l),
(-10,1562,l),
(96,1562,l),
(96,1760,l),
(446,1760,l),
(446,1562,l),
(612,1562,l),
(612,1760,l),
(962,1760,l),
(962,1562,l),
(1051,1562,l),
(1051,1342,l),
(962,1342,l),
(962,0,l),
(612,0,l),
(612,798,l),
(446,798,l),
(446,0,l)
);
},
{
closed = 1;
nodes = (
(446,1131,l),
(612,1131,l),
(612,1342,l),
(446,1342,l)
);
}
);
width = 1041;
}
);
unicode = 294;
},
{
glyphname = uni1E2A;
layers = (
{
anchors = (
{
name = m.uni032E;
position = "{511, -416}";
},
{
name = t.uni0335_4;
position = "{511, 880}";
},
{
name = t.uni1DC7;
position = "{511, 1760}";
}
);
layerId = "6C046C9F-D66B-4CE6-B064-C5BDB7BD1C21";
shapes = (
{
closed = 1;
nodes = (
(78,0,l),
(78,1760,l),
(428,1760,l),
(428,1131,l),
(594,1131,l),
(594,1760,l),
(944,1760,l),
(944,0,l),
(594,0,l),
(594,798,l),
(428,798,l),
(428,0,l)
);
},
{
closed = 1;
nodes = (
(334,-416,o),
(117,-268,o),
(117,-105,qs),
(117,-83,o),
(120,-64,q),
(376,-64,l),
(376,-120,o),
(434,-179,o),
(511,-179,qs),
(588,-179,o),
(646,-120,o),
(646,-64,q),
(902,-64,l),
(904,-88,o),
(904,-98,qs),
(904,-265,o),
(689,-416,o),
(509,-416,qs)
);
}
);
width = 1022;
}
);
unicode = 7722;
},
{
glyphname = Hcircumflex;
layers = (
{
anchors = (
{
name = m.uni032E;
position = "{511, 0}";
},
{
name = t.uni0335_4;
position = "{511, 880}";
},
{
name = t.uni1DC7;
position = "{511, 1760}";
}
);
layerId = "6C046C9F-D66B-4CE6-B064-C5BDB7BD1C21";
shapes = (
{
closed = 1;
nodes = (
(78,0,l),
(78,1760,l),
(428,1760,l),
(428,1131,l),
(594,1131,l),
(594,1760,l),
(944,1760,l),
(944,0,l),
(594,0,l),
(594,798,l),
(428,798,l),
(428,0,l)
);
},
{
closed = 1;
nodes = (
(66,1851,l),
(307,2254,l),
(715,2254,l),
(956,1851,l),
(597,1851,l),
(511,2136,l),
(425,1851,l)
);
}
);
width = 1022;
}
);
unicode = 292;
},
{
glyphname = uni1E24;
layers = (
{
anchors = (
{
name = m.uni032E;
position = "{511, 0}";
},
{
name = t.uni0335_4;
position = "{511, 880}";
},
{
name = t.uni1DC7;
position = "{511, 1760}";
}
);
layerId = "6C046C9F-D66B-4CE6-B064-C5BDB7BD1C21";
shapes = (
{
closed = 1;
nodes = (
(78,0,l),
(78,1760,l),
(428,1760,l),
(428,1131,l),
(594,1131,l),
(594,1760,l),
(944,1760,l),
(944,0,l),
(594,0,l),
(594,798,l),
(428,798,l),
(428,0,l)
);
},
{
closed = 1;
nodes = (
(331,-417,l),
(331,-119,l),
(689,-119,l),
(689,-417,l)
);
}
);
width = 1022;
}
);
unicode = 7716;
},
{
glyphname = uniA726;
layers = (
{
layerId = "6C046C9F-D66B-4CE6-B064-C5BDB7BD1C21";
shapes = (
{
closed = 1;
nodes = (
(514,120,l),
(552,120,o),
(594,167,o),
(594,252,qs),
(594,798,l),
(428,798,l),
(428,0,l),
(78,0,l),
(78,1760,l),
(428,1760,l),
(428,1131,l),
(594,1131,l),
(594,1760,l),
(944,1760,l),
(944,232,ls),
(944,21,o),
(705,-196,o),
(514,-196,q)
);
}
);
width = 1022;
}
);
unicode = 42790;
},
{
glyphname = uniA7AA;
layers = (
{
layerId = "6C046C9F-D66B-4CE6-B064-C5BDB7BD1C21";
shapes = (
{
closed = 1;
nodes = (
(427,0,l),
(427,1464,l),
(368,1464,o),
(312,1392,o),
(312,1312,qs),
(312,1252,l),
(5,1252,l),
(5,1312,ls),
(5,1509,o),
(215,1760,o),
(427,1760,qs),
(777,1760,l),
(777,1131,l),
(943,1131,l),
(943,1760,l),
(1293,1760,l),
(1293,0,l),
(943,0,l),
(943,798,l),
(777,798,l),
(777,0,l)
);
}
);
width = 1371;
}
);
unicode = 42922;
},
{
glyphname = uniA78D;
layers = (
{
layerId = "6C046C9F-D66B-4CE6-B064-C5BDB7BD1C21";
shapes = (
{
closed = 1;
nodes = (
(594,0,l),
(594,798,l),
(78,798,l),
(78,1760,l),
(428,1760,l),
(428,1131,l),
(594,1131,l),
(594,1760,l),
(944,1760,l),
(944,0,l)
);
}
);
width = 1022;
}
);
unicode = 42893;
},
{
glyphname = I;
layers = (
{
anchors = (
{
name = m.uni0328_3;
position = "{290, 0}";
},
{
name = m.uni032E;
position = "{232, 0}";
},
{
name = t.uni0304;
position = "{232, 1760}";
}
);
layerId = "6C046C9F-D66B-4CE6-B064-C5BDB7BD1C21";
shapes = (
{
closed = 1;
nodes = (
(62,0,l),
(62,1760,l),
(402,1760,l),
(402,0,l)
);
}
);
width = 464;
}
);
unicode = 73;
},
{
glyphname = Ibreve;
layers = (
{
anchors = (
{
name = m.uni0328_3;
position = "{290, 0}";
},
{
name = m.uni032E;
position = "{232, 0}";
},
{
name = t.uni0304;
position = "{232, 1760}";
}
);
layerId = "6C046C9F-D66B-4CE6-B064-C5BDB7BD1C21";
shapes = (
{
closed = 1;
nodes = (
(62,0,l),
(62,1760,l),
(402,1760,l),
(402,0,l)
);
},
{
closed = 1;
nodes = (
(60,1852,o),
(-157,2000,o),
(-157,2163,qs),
(-157,2184,o),
(-154,2205,q),
(102,2205,l),
(102,2148,o),
(160,2089,o),
(237,2089,qs),
(314,2089,o),
(372,2148,o),
(372,2205,q),
(628,2205,l),
(629,2195,o),
(630,2175,o),
(630,2170,qs),
(630,2003,o),
(415,1852,o),
(235,1852,qs)
);
}
);
width = 464;
}
);
unicode = 300;
},
{
glyphname = Icircumflex;
layers = (
{
anchors = (
{
name = m.uni0328_3;
position = "{290, 0}";
},
{
name = m.uni032E;
position = "{232, 0}";
},
{
name = t.uni0304;
position = "{232, 1760}";
}
);
layerId = "6C046C9F-D66B-4CE6-B064-C5BDB7BD1C21";
shapes = (
{
closed = 1;
nodes = (
(62,0,l),
(62,1760,l),
(402,1760,l),
(402,0,l)
);
},
{
closed = 1;
nodes = (
(-213,1851,l),
(28,2254,l),
(436,2254,l),
(677,1851,l),
(318,1851,l),
(232,2136,l),
(146,1851,l)
);
}
);
width = 464;
}
);
unicode = 206;
},
{
glyphname = uni0208;
layers = (
{
anchors = (
{
name = m.uni0328_3;
position = "{290, 0}";
},
{
name = m.uni032E;
position = "{232, 0}";
},
{
name = t.uni0304;
position = "{232, 1760}";
}
);
layerId = "6C046C9F-D66B-4CE6-B064-C5BDB7BD1C21";
shapes = (
{
closed = 1;
nodes = (
(62,0,l),
(62,1760,l),
(402,1760,l),
(402,0,l)
);
},
{
closed = 1;
nodes = (
(35,1846,l),
(-254,2275,l),
(-20,2383,l),
(201,1904,l)
);
},
{
closed = 1;
nodes = (
(337,1846,l),
(89,2275,l),
(319,2383,l),
(503,1904,l)
);
}
);
width = 464;
}
);
unicode = 520;
},
{
glyphname = Idieresis;
layers = (
{
anchors = (
{
name = m.uni0328_3;
position = "{290, 0}";
},
{
name = m.uni032E;
position = "{232, 0}";
},
{
name = t.uni0304;
position = "{232, 1760}";
}
);
layerId = "6C046C9F-D66B-4CE6-B064-C5BDB7BD1C21";
shapes = (
{
closed = 1;
nodes = (
(62,0,l),
(62,1760,l),
(402,1760,l),
(402,0,l)
);
},
{
closed = 1;
nodes = (
(288,1859,l),
(288,2157,l),
(646,2157,l),
(646,1859,l)
);
},
{
closed = 1;
nodes = (
(-196,1859,l),
(-196,2157,l),
(162,2157,l),
(162,1859,l)
);
}
);
width = 464;
}
);
unicode = 207;
},
{
glyphname = uni1E2E;
layers = (
{
anchors = (
{
name = m.uni0328_3;
position = "{290, 0}";
},
{
name = m.uni032E;
position = "{232, 0}";
},
{
name = t.uni0304;
position = "{232, 2530}";
}
);
layerId = "6C046C9F-D66B-4CE6-B064-C5BDB7BD1C21";
shapes = (
{
closed = 1;
nodes = (
(62,0,l),
(62,1760,l),
(402,1760,l),
(402,0,l)
);
},
{
closed = 1;
nodes = (
(295,1859,l),
(295,2107,l),
(653,2107,l),
(653,1859,l)
);
},
{
closed = 1;
nodes = (
(-189,1859,l),
(-189,2107,l),
(169,2107,l),
(169,1859,l)
);
},
{
closed = 1;
nodes = (
(-5,2194,l),
(-5,2387,l),
(470,2555,l),
(470,2268,l)
);
}
);
width = 464;
}
);
unicode = 7726;
},
{
glyphname = uni1ECA;
layers = (
{
anchors = (
{
name = m.uni0328_3;
position = "{290, 0}";
},
{
name = m.uni032E;
position = "{232, 0}";
},
{
name = t.uni0304;
position = "{232, 1760}";
}
);
layerId = "6C046C9F-D66B-4CE6-B064-C5BDB7BD1C21";
shapes = (
{
closed = 1;
nodes = (
(62,0,l),
(62,1760,l),
(402,1760,l),
(402,0,l)
);
},
{
closed = 1;
nodes = (
(53,-417,l),
(53,-119,l),
(411,-119,l),
(411,-417,l)
);
}
);
width = 464;
}
);
unicode = 7882;
},
{
glyphname = Igrave;
layers = (
{
anchors = (
{
name = m.uni0328_3;
position = "{290, 0}";
},
{
name = m.uni032E;
position = "{232, 0}";
},
{
name = t.uni0304;
position = "{232, 1760}";
}
);
layerId = "6C046C9F-D66B-4CE6-B064-C5BDB7BD1C21";
shapes = (
{
closed = 1;
nodes = (
(62,0,l),
(62,1760,l),
(402,1760,l),
(402,0,l)
);
},
{
closed = 1;
nodes = (
(469,1813,l),
(-6,1907,l),
(-6,2254,l),
(469,2036,l)
);
}
);
width = 464;
}
);
unicode = 204;
},
{
glyphname = uni1EC8;
layers = (
{
anchors = (
{
name = m.uni0328_3;
position = "{290, 0}";
},
{
name = m.uni032E;
position = "{232, 0}";
},
{
name = t.uni0304;
position = "{286, 2450}";
}
);
layerId = "6C046C9F-D66B-4CE6-B064-C5BDB7BD1C21";
shapes = (
{
closed = 1;
nodes = (
(62,0,l),
(62,1760,l),
(402,1760,l),
(402,0,l)
);
},
{
closed = 1;
nodes = (
(97,1961,l),
(151,1981,o),
(217,2041,o),
(217,2091,qs),
(217,2186,o),
(116,2186,qs),
(69,2186,o),
(26,2170,q),
(26,2350,l),
(114,2383,o),
(209,2383,qs),
(334,2383,o),
(475,2258,o),
(475,2145,qs),
(475,2018,o),
(319,1873,o),
(203,1837,q)
);
}
);
width = 464;
}
);
unicode = 7880;
},
{
glyphname = uni020A;
layers = (
{
anchors = (
{
name = m.uni0328_3;
position = "{290, 0}";
},
{
name = m.uni032E;
position = "{232, 0}";
},
{
name = t.uni0304;
position = "{232, 1760}";
}
);
layerId = "6C046C9F-D66B-4CE6-B064-C5BDB7BD1C21";
shapes = (
{
closed = 1;
nodes = (
(62,0,l),
(62,1760,l),
(402,1760,l),
(402,0,l)
);
},
{
closed = 1;
nodes = (
(-139,1868,l),
(-142,1888,o),
(-142,1909,qs),
(-142,2072,o),
(55,2220,o),
(230,2220,qs),
(410,2220,o),
(605,2069,o),
(605,1902,qs),
(605,1897,o),
(604,1878,o),
(603,1868,q),
(367,1868,l),
(367,1936,o),
(291,2002,o),
(232,2002,qs),
(174,2002,o),
(97,1936,o),
(97,1868,q)
);
}
);
width = 464;
}
);
unicode = 522;
},
{
glyphname = Imacron;
layers = (
{
anchors = (
{
name = m.uni0328_3;
position = "{290, 0}";
},
{
name = m.uni032E;
position = "{232, 0}";
},
{
name = t.uni0304;
position = "{232, 1760}";
}
);
layerId = "6C046C9F-D66B-4CE6-B064-C5BDB7BD1C21";
shapes = (
{
closed = 1;
nodes = (
(62,0,l),
(62,1760,l),
(402,1760,l),
(402,0,l)
);
},
{
closed = 1;
nodes = (
(-89,1879,l),
(-89,2032,l),
(561,2032,l),
(561,1879,l)
);
}
);
width = 464;
}
);
unicode = 298;
},
{
glyphname = Iogonek;
layers = (
{
anchors = (
{
name = m.uni0328_3;
position = "{290, 0}";
},
{
name = m.uni032E;
position = "{232, 0}";
},
{
name = t.uni0304;
position = "{232, 1760}";
}
);
layerId = "6C046C9F-D66B-4CE6-B064-C5BDB7BD1C21";
shapes = (
{
closed = 1;
nodes = (
(62,0,l),
(62,1760,l),
(402,1760,l),
(402,0,l)
);
},
{
closed = 1;
nodes = (
(180,-631,o),
(22,-559,o),
(-73,-424,o),
(-73,-330,qs),
(-73,-148,o),
(191,0,q),
(402,0,l),
(346,-58,o),
(242,-196,o),
(242,-279,qs),
(242,-391,o),
(357,-391,qs),
(406,-391,o),
(473,-368,q),
(473,-591,l),
(378,-631,o),
(275,-631,qs)
);
}
);
width = 464;
}
);
unicode = 302;
},
{
glyphname = uni0196;
layers = (
{
anchors = (
{
name = m.uni0328_3;
position = "{290, 0}";
},
{
name = m.uni032E;
position = "{232, 0}";
},
{
name = t.uni0304;
position = "{232, 1760}";
}
);
layerId = "6C046C9F-D66B-4CE6-B064-C5BDB7BD1C21";
shapes = (
{
closed = 1;
nodes = (
(482,-16,l),
(298,-16,o),
(62,201,o),
(62,412,qs),
(62,1760,l),
(402,1760,l),
(402,432,ls),
(402,347,o),
(445,300,o),
(482,300,q)
);
}
);
width = 464;
}
);
unicode = 406;
},
{
glyphname = uni026A;
layers = (
{
layerId = "6C046C9F-D66B-4CE6-B064-C5BDB7BD1C21";
shapes = (
{
closed = 1;
nodes = (
(33,0,l),
(33,273,l),
(134,273,l),
(134,1227,l),
(33,1227,l),
(33,1500,l),
(583,1500,l),
(583,1227,l),
(482,1227,l),
(482,273,l),
(583,273,l),
(583,0,l)
);
}
);
width = 616;
}
);
unicode = 618;
},
{
glyphname = uni0197;
layers = (
{
anchors = (
{
name = m.uni0328_3;
position = "{321, 0}";
},
{
name = m.uni032E;
position = "{263, 0}";
},
{
name = t.uni0304;
position = "{263, 1760}";
}
);
layerId = "6C046C9F-D66B-4CE6-B064-C5BDB7BD1C21";
shapes = (
{
closed = 1;
nodes = (
(93,0,l),
(93,785,l),
(5,785,l),
(5,1017,l),
(93,1017,l),
(93,1760,l),
(433,1760,l),
(433,1017,l),
(521,1017,l),
(521,785,l),
(433,785,l),
(433,0,l)
);
}
);
width = 526;
}
);
unicode = 407;
},
{
glyphname = Itilde;
layers = (
{
anchors = (
{
name = m.uni0328_3;
position = "{290, 0}";
},
{
name = m.uni032E;
position = "{232, 0}";
},
{
name = t.uni0304;
position = "{232, 1760}";
}
);
layerId = "6C046C9F-D66B-4CE6-B064-C5BDB7BD1C21";
shapes = (
{
closed = 1;
nodes = (
(62,0,l),
(62,1760,l),
(402,1760,l),
(402,0,l)
);
},
{
closed = 1;
nodes = (
(323,1873,o),
(200,1919,o),
(100,1964,o),
(59,1964,qs),
(33,1964,o),
(-13,1934,o),
(-33,1896,q),
(-181,1974,l),
(-156,2035,o),
(-97,2136,o),
(-5,2197,o),
(66,2197,qs),
(137,2197,o),
(252,2155,o),
(347,2113,o),
(386,2113,qs),
(413,2113,o),
(459,2147,o),
(479,2188,q),
(645,2134,l),
(621,2067,o),
(563,1947,o),
(472,1873,o),
(397,1873,qs)
);
}
);
width = 464;
}
);
unicode = 296;
},
{
glyphname = J;
layers = (
{
anchors = (
{
name = t.uni1DC7;
position = "{721, 1760}";
}
);
layerId = "6C046C9F-D66B-4CE6-B064-C5BDB7BD1C21";
shapes = (
{
closed = 1;
nodes = (
(349,-16,o),
(153,76,o),
(38,257,o),
(38,389,qs),
(38,830,l),
(386,830,l),
(386,410,ls),
(386,364,o),
(423,308,o),
(464,308,qs),
(543,308,o),
(543,405,qs),
(543,1760,l),
(898,1760,l),
(898,440,ls),
(898,300,o),
(788,95,o),
(594,-16,o),
(468,-16,qs)
);
}
);
width = 955;
}
);
leftKerningGroup = J;
unicode = 74;
},
{
glyphname = Jcircumflex;
layers = (
{
anchors = (
{
name = t.uni1DC7;
position = "{721, 1760}";
}
);
layerId = "6C046C9F-D66B-4CE6-B064-C5BDB7BD1C21";
shapes = (
{
closed = 1;
nodes = (
(349,-16,o),
(153,76,o),
(38,257,o),
(38,389,qs),
(38,830,l),
(386,830,l),
(386,410,ls),
(386,364,o),
(423,308,o),
(464,308,qs),
(543,308,o),
(543,405,qs),
(543,1760,l),
(898,1760,l),
(898,440,ls),
(898,300,o),
(788,95,o),
(594,-16,o),
(468,-16,qs)
);
},
{
closed = 1;
nodes = (
(276,1851,l),
(517,2254,l),
(925,2254,l),
(1166,1851,l),
(807,1851,l),
(721,2136,l),
(635,1851,l)
);
}
);
width = 955;
}
);
leftKerningGroup = J;
unicode = 308;
},
{
glyphname = uniA7B2;
layers = (
{
layerId = "6C046C9F-D66B-4CE6-B064-C5BDB7BD1C21";
shapes = (
{
closed = 1;
nodes = (
(349,-16,o),
(153,76,o),
(38,257,o),
(38,389,qs),
(38,564,ls),
(38,798,o),
(286,1088,o),
(543,1106,q),
(543,1760,l),
(898,1760,l),
(898,1057,l),
(918,1050,o),
(962,1035,o),
(985,1026,q),
(985,721,l),
(962,730,o),
(918,745,o),
(898,752,q),
(898,440,ls),
(898,300,o),
(788,95,o),
(594,-16,o),
(468,-16,qs)
);
},
{
closed = 1;
nodes = (
(543,308,o),
(543,405,qs),
(543,798,l),
(458,785,o),
(386,673,o),
(386,564,qs),
(386,410,ls),
(386,364,o),
(423,308,o),
(464,308,qs)
);
}
);
width = 975;
}
);
leftKerningGroup = J;
unicode = 42930;
},
{
glyphname = uni0248;
layers = (
{
anchors = (
{
name = t.uni1DC7;
position = "{721, 1760}";
}
);
layerId = "6C046C9F-D66B-4CE6-B064-C5BDB7BD1C21";
shapes = (
{
closed = 1;
nodes = (
(349,-16,o),
(153,76,o),
(38,257,o),
(38,389,qs),
(38,830,l),
(386,830,l),
(386,410,ls),
(386,364,o),
(423,308,o),
(464,308,qs),
(543,308,o),
(543,405,qs),
(543,1055,l),
(390,1055,l),
(390,1287,l),
(543,1287,l),
(543,1760,l),
(898,1760,l),
(898,1287,l),
(984,1287,l),
(984,1055,l),
(898,1055,l),
(898,440,ls),
(898,300,o),
(788,95,o),
(594,-16,o),
(468,-16,qs)
);
}
);
width = 975;
}
);
leftKerningGroup = J;
unicode = 584;
},
{
glyphname = K;
layers = (
{
anchors = (
{
name = m.uni032E;
position = "{523, 0}";
},
{
name = t.uni1DC7;
position = "{511, 1760}";
}
);
layerId = "6C046C9F-D66B-4CE6-B064-C5BDB7BD1C21";
shapes = (
{
closed = 1;
nodes = (
(78,0,l),
(78,1760,l),
(426,1760,l),
(426,1055,l),
(590,1760,l),
(944,1760,l),
(747,954,l),
(985,0,l),
(620,0,l),
(428,852,l),
(428,0,l)
);
}
);
width = 967;
}
);
unicode = 75;
},
{
glyphname = uni0136;
layers = (
{
anchors = (
{
name = m.uni032E;
position = "{510, -643}";
},
{
name = t.uni1DC7;
position = "{511, 1760}";
}
);
layerId = "6C046C9F-D66B-4CE6-B064-C5BDB7BD1C21";
shapes = (
{
closed = 1;
nodes = (
(78,0,l),
(78,1760,l),
(426,1760,l),
(426,1055,l),
(590,1760,l),
(944,1760,l),
(747,954,l),
(985,0,l),
(620,0,l),
(428,852,l),
(428,0,l)
);
},
{
closed = 1;
nodes = (
(384,-643,l),
(450,-407,l),
(323,-407,l),
(323,-109,l),
(697,-109,l),
(697,-398,l),
(595,-643,l)
);
}
);
width = 967;
}
);
unicode = 310;
},
{
glyphname = uniA740;
layers = (
{
anchors = (
{
name = m.uni032E;
position = "{538, 0}";
},
{
name = t.uni1DC7;
position = "{526, 1760}";
}
);
layerId = "6C046C9F-D66B-4CE6-B064-C5BDB7BD1C21";
shapes = (
{
closed = 1;
nodes = (
(93,0,l),
(93,1479,l),
(0,1479,l),
(0,1711,l),
(93,1711,l),
(93,1760,l),
(441,1760,l),
(441,1711,l),
(516,1711,l),
(516,1479,l),
(441,1479,l),
(441,1055,l),
(605,1760,l),
(959,1760,l),
(762,954,l),
(1000,0,l),
(635,0,l),
(443,852,l),
(443,0,l)
);
}
);
width = 982;
}
);
unicode = 42816;
},
{
glyphname = L;
layers = (
{
anchors = (
{
name = m.uni032E;
position = "{433, 0}";
},
{
name = t.uni0304_2;
position = "{716, 931}";
},
{
name = t.uni1DC7;
position = "{254, 1760}";
}
);
layerId = "6C046C9F-D66B-4CE6-B064-C5BDB7BD1C21";
shapes = (
{
closed = 1;
nodes = (
(78,0,l),
(78,1760,l),
(430,1760,l),
(430,300,l),
(792,300,l),
(792,0,l)
);
}
);
width = 814;
}
);
unicode = 76;
},
{
glyphname = uni01C7;
layers = (
{
anchors = (
{
name = m.uni032E;
position = "{433, 0}";
},
{
name = t.uni0304_2;
position = "{716, 931}";
}
);
layerId = "6C046C9F-D66B-4CE6-B064-C5BDB7BD1C21";
shapes = (
{
closed = 1;
nodes = (
(78,0,l),
(78,1760,l),
(430,1760,l),
(430,300,l),
(792,300,l),
(792,0,l)
);
},
{
closed = 1;
nodes = (
(1163,-16,o),
(967,76,o),
(852,257,o),
(852,389,qs),
(852,830,l),
(1200,830,l),
(1200,410,ls),
(1200,364,o),
(1237,308,o),
(1278,308,qs),
(1357,308,o),
(1357,405,qs),
(1357,1760,l),
(1712,1760,l),
(1712,440,ls),
(1712,300,o),
(1602,95,o),
(1408,-16,o),
(1282,-16,qs)
);
}
);
width = 1769;
}
);
unicode = 455;
},
{
glyphname = Lacute;
layers = (
{
anchors = (
{
name = m.uni032E;
position = "{433, 0}";
},
{
name = t.uni0304_2;
position = "{716, 931}";
},
{
name = t.uni1DC7;
position = "{254, 1760}";
}
);
layerId = "6C046C9F-D66B-4CE6-B064-C5BDB7BD1C21";
shapes = (
{
closed = 1;
nodes = (
(78,0,l),
(78,1760,l),
(430,1760,l),
(430,300,l),
(792,300,l),
(792,0,l)
);
},
{
closed = 1;
nodes = (
(16,1813,l),
(16,2036,l),
(491,2254,l),
(491,1907,l)
);
}
);
width = 814;
}
);
unicode = 313;
},
{
glyphname = uniA7AD;
layers = (
{
layerId = "6C046C9F-D66B-4CE6-B064-C5BDB7BD1C21";
shapes = (
{
closed = 1;
nodes = (
(268,0,l),
(268,725,l),
(149,734,o),
(-10,877,o),
(-10,994,qs),
(-10,1127,o),
(136,1276,o),
(268,1284,q),
(268,1761,l),
(620,1761,l),
(620,955,l),
(760,955,l),
(760,724,l),
(620,724,l),
(620,300,l),
(982,300,l),
(982,0,l)
);
},
{
closed = 1;
nodes = (
(184,955,o),
(268,955,q),
(268,1074,l),
(184,1072,o),
(184,1015,qs)
);
}
);
width = 1004;
}
);
unicode = 42925;
},
{
glyphname = Lcaron;
layers = (
{
anchors = (
{
name = m.uni032E;
position = "{433, 0}";
},
{
name = t.uni0304_2;
position = "{716, 931}";
},
{
name = t.uni1DC7;
position = "{254, 1760}";
}
);
layerId = "6C046C9F-D66B-4CE6-B064-C5BDB7BD1C21";
shapes = (
{
closed = 1;
nodes = (
(78,0,l),
(78,1760,l),
(430,1760,l),
(430,300,l),
(792,300,l),
(792,0,l)
);
},
{
closed = 1;
nodes = (
(514,1226,l),
(590,1462,l),
(515,1462,l),
(515,1760,l),
(827,1760,l),
(827,1471,l),
(725,1226,l)
);
}
);
width = 814;
}
);
unicode = 317;
},
{
glyphname = uni013B;
layers = (
{
anchors = (
{
name = m.uni032E;
position = "{420, -643}";
},
{
name = t.uni0304_2;
position = "{716, 931}";
},
{
name = t.uni1DC7;
position = "{254, 1760}";
}
);
layerId = "6C046C9F-D66B-4CE6-B064-C5BDB7BD1C21";
shapes = (
{
closed = 1;
nodes = (
(78,0,l),
(78,1760,l),
(430,1760,l),
(430,300,l),
(792,300,l),
(792,0,l)
);
},
{
closed = 1;
nodes = (
(294,-643,l),
(360,-407,l),
(233,-407,l),
(233,-109,l),
(607,-109,l),
(607,-398,l),
(505,-643,l)
);
}
);
width = 814;
}
);
unicode = 315;
},
{
glyphname = Ldot;
layers = (
{
anchors = (
{
name = m.uni032E;
position = "{433, 0}";
},
{
name = t.uni0304_2;
position = "{716, 931}";
},
{
name = t.uni1DC7;
position = "{254, 1760}";
}
);
layerId = "6C046C9F-D66B-4CE6-B064-C5BDB7BD1C21";
shapes = (
{
closed = 1;
nodes = (
(78,0,l),
(78,1760,l),
(430,1760,l),
(430,300,l),
(792,300,l),
(792,0,l)
);
},
{
closed = 1;
nodes = (
(552,756,l),
(552,1094,l),
(880,1094,l),
(880,756,l)
);
}
);
width = 924;
}
);
unicode = 319;
},
{
glyphname = uni1E36;
layers = (
{
anchors = (
{
name = m.uni032E;
position = "{433, 0}";
},
{
name = t.uni0304_2;
position = "{716, 931}";
},
{
name = t.uni1DC7;
position = "{254, 1760}";
}
);
layerId = "6C046C9F-D66B-4CE6-B064-C5BDB7BD1C21";
shapes = (
{
closed = 1;
nodes = (
(78,0,l),
(78,1760,l),
(430,1760,l),
(430,300,l),
(792,300,l),
(792,0,l)
);
},
{
closed = 1;
nodes = (
(254,-417,l),
(254,-119,l),
(612,-119,l),
(612,-417,l)
);
}
);
width = 814;
}
);
unicode = 7734;
},
{
glyphname = uni01C8;
layers = (
{
anchors = (
{
name = m.uni032E;
position = "{433, 0}";
},
{
name = t.uni0304_2;
position = "{716, 931}";
},
{
name = t.uni1DC7;
position = "{254, 1760}";
}
);
layerId = "6C046C9F-D66B-4CE6-B064-C5BDB7BD1C21";
shapes = (
{
closed = 1;
nodes = (
(78,0,l),
(78,1760,l),
(430,1760,l),
(430,300,l),
(792,300,l),
(792,0,l)
);
},
{
closed = 1;
nodes = (
(924,1592,l),
(924,1890,l),
(1282,1890,l),
(1282,1592,l)
);
},
{
closed = 1;
nodes = (
(886,-260,o),
(848,-234,q),
(848,6,l),
(866,1,o),
(881,1,qs),
(910,1,o),
(924,41,o),
(924,72,qs),
(924,1500,l),
(1282,1500,l),
(1282,82,ls),
(1282,-78,o),
(1155,-260,o),
(1000,-260,qs)
);
}
);
width = 1352;
}
);
unicode = 456;
},
{
glyphname = uni1E3A;
layers = (
{
anchors = (
{
name = m.uni032E;
position = "{433, -272}";
},
{
name = t.uni0304_2;
position = "{716, 931}";
},
{
name = t.uni1DC7;
position = "{254, 1760}";
}
);
layerId = "6C046C9F-D66B-4CE6-B064-C5BDB7BD1C21";
shapes = (
{
closed = 1;
nodes = (
(78,0,l),
(78,1760,l),
(430,1760,l),
(430,300,l),
(792,300,l),
(792,0,l)
);
},
{
closed = 1;
nodes = (
(108,-272,l),
(108,-119,l),
(758,-119,l),
(758,-272,l)
);
}
);
width = 814;
}
);
unicode = 7738;
},
{
glyphname = Lslash;
layers = (
{
anchors = (
{
name = m.uni032E;
position = "{433, 0}";
},
{
name = t.uni0304_2;
position = "{716, 931}";
},
{
name = t.uni1DC7;
position = "{254, 1760}";
}
);
layerId = "6C046C9F-D66B-4CE6-B064-C5BDB7BD1C21";
shapes = (
{
closed = 1;
nodes = (
(78,0,l),
(78,718,l),
(-11,679,l),
(-11,1001,l),
(78,1040,l),
(78,1760,l),
(430,1760,l),
(430,1193,l),
(636,1283,l),
(636,961,l),
(430,871,l),
(430,300,l),
(792,300,l),
(792,0,l)
);
}
);
width = 853;
}
);
unicode = 321;
},
{
glyphname = M;
layers = (
{
anchors = (
{
name = m.uni032E;
position = "{764, 0}";
},
{
name = t.uni1DC7;
position = "{762, 1760}";
}
);
layerId = "6C046C9F-D66B-4CE6-B064-C5BDB7BD1C21";
shapes = (
{
closed = 1;
nodes = (
(78,0,l),
(78,1760,l),
(614,1760,l),
(762,687,l),
(909,1760,l),
(1450,1760,l),
(1450,0,l),
(1128,0,l),
(1128,1268,l),
(926,0,l),
(610,0,l),
(396,1268,l),
(396,0,l)
);
}
);
width = 1528;
}
);
unicode = 77;
},
{
glyphname = uni1E42;
layers = (
{
anchors = (
{
name = m.uni032E;
position = "{764, 0}";
},
{
name = t.uni1DC7;
position = "{762, 1760}";
}
);
layerId = "6C046C9F-D66B-4CE6-B064-C5BDB7BD1C21";
shapes = (
{
closed = 1;
nodes = (
(78,0,l),
(78,1760,l),
(614,1760,l),
(762,687,l),
(909,1760,l),
(1450,1760,l),
(1450,0,l),
(1128,0,l),
(1128,1268,l),
(926,0,l),
(610,0,l),
(396,1268,l),
(396,0,l)
);
},
{
closed = 1;
nodes = (
(585,-417,l),
(585,-119,l),
(943,-119,l),
(943,-417,l)
);
}
);
width = 1528;
}
);
unicode = 7746;
},
{
glyphname = uni019C;
layers = (
{
layerId = "6C046C9F-D66B-4CE6-B064-C5BDB7BD1C21";
shapes = (
{
closed = 1;
nodes = (
(209,-16,o),
(78,203,o),
(78,410,qs),
(78,1760,l),
(423,1760,l),
(423,404,ls),
(423,256,o),
(509,256,qs),
(557,256,o),
(602,359,o),
(602,429,qs),
(602,1760,l),
(947,1760,l),
(947,404,ls),
(947,340,o),
(985,260,o),
(1031,260,qs),
(1084,260,o),
(1128,372,o),
(1128,448,qs),
(1128,1760,l),
(1473,1760,l),
(1473,0,l),
(1130,0,l),
(1130,177,l),
(1105,79,o),
(991,-16,o),
(870,-16,qs),
(782,-16,o),
(649,66,o),
(623,136,q),
(578,57,o),
(466,-16,o),
(369,-16,qs)
);
}
);
width = 1551;
}
);
unicode = 412;
},
{
glyphname = N;
layers = (
{
anchors = (
{
name = m.uni032E;
position = "{503, 0}";
},
{
name = t.uni1DC7;
position = "{531, 1760}";
}
);
layerId = "6C046C9F-D66B-4CE6-B064-C5BDB7BD1C21";
shapes = (
{
closed = 1;
nodes = (
(78,0,l),
(78,1760,l),
(440,1760,l),
(602,917,l),
(602,1760,l),
(942,1760,l),
(942,0,l),
(598,0,l),
(422,880,l),
(422,0,l)
);
}
);
width = 1020;
}
);
unicode = 78;
},
{
glyphname = uni01CA;
layers = (
{
anchors = (
{
name = m.uni032E;
position = "{503, 0}";
}
);
layerId = "6C046C9F-D66B-4CE6-B064-C5BDB7BD1C21";
shapes = (
{
closed = 1;
nodes = (
(78,0,l),
(78,1760,l),
(440,1760,l),
(602,917,l),
(602,1760,l),
(942,1760,l),
(942,0,l),
(598,0,l),
(422,880,l),
(422,0,l)
);
},
{
closed = 1;
nodes = (
(1369,-16,o),
(1173,76,o),
(1058,257,o),
(1058,389,qs),
(1058,830,l),
(1406,830,l),
(1406,410,ls),
(1406,364,o),
(1443,308,o),
(1484,308,qs),
(1563,308,o),
(1563,405,qs),
(1563,1760,l),
(1918,1760,l),
(1918,440,ls),
(1918,300,o),
(1808,95,o),
(1614,-16,o),
(1488,-16,qs)
);
}
);
width = 1975;
}
);
unicode = 458;
},
{
glyphname = Nacute;
layers = (
{
anchors = (
{
name = m.uni032E;
position = "{503, 0}";
},
{
name = t.uni1DC7;
position = "{531, 1760}";
}
);
layerId = "6C046C9F-D66B-4CE6-B064-C5BDB7BD1C21";
shapes = (
{
closed = 1;
nodes = (
(78,0,l),
(78,1760,l),
(440,1760,l),
(602,917,l),
(602,1760,l),
(942,1760,l),
(942,0,l),
(598,0,l),
(422,880,l),
(422,0,l)
);
},
{
closed = 1;
nodes = (
(293,1813,l),
(293,2036,l),
(768,2254,l),
(768,1907,l)
);
}
);
width = 1020;
}
);
unicode = 323;
},
{
glyphname = Ncaron;
layers = (
{
anchors = (
{
name = m.uni032E;
position = "{503, 0}";
},
{
name = t.uni1DC7;
position = "{531, 1760}";
}
);
layerId = "6C046C9F-D66B-4CE6-B064-C5BDB7BD1C21";
shapes = (
{
closed = 1;
nodes = (
(78,0,l),
(78,1760,l),
(440,1760,l),
(602,917,l),
(602,1760,l),
(942,1760,l),
(942,0,l),
(598,0,l),
(422,880,l),
(422,0,l)
);
},
{
closed = 1;
nodes = (
(327,1851,l),
(86,2254,l),
(445,2254,l),
(531,1969,l),
(617,2254,l),
(976,2254,l),
(735,1851,l)
);
}
);
width = 1020;
}
);
unicode = 327;
},
{
glyphname = uni0145;
layers = (
{
anchors = (
{
name = m.uni032E;
position = "{490, -643}";
},
{
name = t.uni1DC7;
position = "{531, 1760}";
}
);
layerId = "6C046C9F-D66B-4CE6-B064-C5BDB7BD1C21";
shapes = (
{
closed = 1;
nodes = (
(78,0,l),
(78,1760,l),
(440,1760,l),
(602,917,l),
(602,1760,l),
(942,1760,l),
(942,0,l),
(598,0,l),
(422,880,l),
(422,0,l)
);
},
{
closed = 1;
nodes = (
(364,-643,l),
(430,-407,l),
(303,-407,l),
(303,-109,l),
(677,-109,l),
(677,-398,l),
(575,-643,l)
);
}
);
width = 1020;
}
);
unicode = 325;
},
{
glyphname = uni1E44;
layers = (
{
anchors = (
{
name = m.uni032E;
position = "{503, 0}";
},
{
name = t.uni1DC7;
position = "{531, 2150}";
}
);
layerId = "6C046C9F-D66B-4CE6-B064-C5BDB7BD1C21";
shapes = (
{
closed = 1;
nodes = (
(78,0,l),
(78,1760,l),
(440,1760,l),
(602,917,l),
(602,1760,l),
(942,1760,l),
(942,0,l),
(598,0,l),
(422,880,l),
(422,0,l)
);
},
{
closed = 1;
nodes = (
(352,1852,l),
(352,2150,l),
(710,2150,l),
(710,1852,l)
);
}
);
width = 1020;
}
);
unicode = 7748;
},
{
glyphname = uni1E46;
layers = (
{
anchors = (
{
name = m.uni032E;
position = "{503, 0}";
},
{
name = t.uni1DC7;
position = "{531, 1760}";
}
);
layerId = "6C046C9F-D66B-4CE6-B064-C5BDB7BD1C21";
shapes = (
{
closed = 1;
nodes = (
(78,0,l),
(78,1760,l),
(440,1760,l),
(602,917,l),
(602,1760,l),
(942,1760,l),
(942,0,l),
(598,0,l),
(422,880,l),
(422,0,l)
);
},
{
closed = 1;
nodes = (
(324,-417,l),
(324,-119,l),
(682,-119,l),
(682,-417,l)
);
}
);
width = 1020;
}
);
unicode = 7750;
},
{
glyphname = uni019D;
layers = (
{
layerId = "6C046C9F-D66B-4CE6-B064-C5BDB7BD1C21";
shapes = (
{
closed = 1;
nodes = (
(-52,-186,l),
(78,-186,o),
(78,-31,qs),
(78,1760,l),
(440,1760,l),
(602,917,l),
(602,1760,l),
(942,1760,l),
(942,0,l),
(598,0,l),
(422,880,l),
(422,-8,ls),
(422,-246,o),
(168,-488,o),
(-52,-488,q)
);
}
);
width = 1020;
}
);
unicode = 413;
},
{
glyphname = uni01CB;
layers = (
{
anchors = (
{
name = m.uni032E;
position = "{503, 0}";
},
{
name = t.uni1DC7;
position = "{531, 1760}";
}
);
layerId = "6C046C9F-D66B-4CE6-B064-C5BDB7BD1C21";
shapes = (
{
closed = 1;
nodes = (
(78,0,l),
(78,1760,l),
(440,1760,l),
(602,917,l),
(602,1760,l),
(942,1760,l),
(942,0,l),
(598,0,l),
(422,880,l),
(422,0,l)
);
},
{
closed = 1;
nodes = (
(1130,1592,l),
(1130,1890,l),
(1488,1890,l),
(1488,1592,l)
);
},
{
closed = 1;
nodes = (
(1092,-260,o),
(1054,-234,q),
(1054,6,l),
(1072,1,o),
(1087,1,qs),
(1116,1,o),
(1130,41,o),
(1130,72,qs),
(1130,1500,l),
(1488,1500,l),
(1488,82,ls),
(1488,-78,o),
(1361,-260,o),
(1206,-260,qs)
);
}
);
width = 1558;
}
);
unicode = 459;
},
{
glyphname = uni1E48;
layers = (
{
anchors = (
{
name = m.uni032E;
position = "{503, -272}";
},
{
name = t.uni1DC7;
position = "{531, 1760}";
}
);
layerId = "6C046C9F-D66B-4CE6-B064-C5BDB7BD1C21";
shapes = (
{
closed = 1;
nodes = (
(78,0,l),
(78,1760,l),
(440,1760,l),
(602,917,l),
(602,1760,l),
(942,1760,l),
(942,0,l),
(598,0,l),
(422,880,l),
(422,0,l)
);
},
{
closed = 1;
nodes = (
(178,-272,l),
(178,-119,l),
(828,-119,l),
(828,-272,l)
);
}
);
width = 1020;
}
);
unicode = 7752;
},
{
glyphname = uni0220;
layers = (
{
layerId = "6C046C9F-D66B-4CE6-B064-C5BDB7BD1C21";
shapes = (
{
closed = 1;
nodes = (
(602,-186,l),
(602,1328,ls),
(602,1392,o),
(563,1465,o),
(518,1465,qs),
(455,1465,o),
(418,1379,o),
(418,1296,qs),
(418,0,l),
(78,0,l),
(78,1760,l),
(416,1760,l),
(416,1574,l),
(439,1664,o),
(560,1776,o),
(651,1776,qs),
(800,1776,o),
(942,1594,o),
(942,1425,qs),
(942,-186,l)
);
}
);
width = 1020;
}
);
unicode = 544;
},
{
glyphname = Ntilde;
layers = (
{
anchors = (
{
name = m.uni032E;
position = "{503, 0}";
},
{
name = t.uni1DC7;
position = "{531, 1760}";
}
);
layerId = "6C046C9F-D66B-4CE6-B064-C5BDB7BD1C21";
shapes = (
{
closed = 1;
nodes = (
(78,0,l),
(78,1760,l),
(440,1760,l),
(602,917,l),
(602,1760,l),
(942,1760,l),
(942,0,l),
(598,0,l),
(422,880,l),
(422,0,l)
);
},
{
closed = 1;
nodes = (
(622,1871,o),
(499,1917,o),
(399,1962,o),
(358,1962,qs),
(332,1962,o),
(286,1932,o),
(266,1894,q),
(118,1972,l),
(143,2033,o),
(202,2134,o),
(294,2195,o),
(365,2195,qs),
(436,2195,o),
(551,2153,o),
(646,2111,o),
(685,2111,qs),
(712,2111,o),
(758,2145,o),
(778,2186,q),
(944,2132,l),
(920,2065,o),
(862,1945,o),
(771,1871,o),
(696,1871,qs)
);
}
);
width = 1020;
}
);
unicode = 209;
},
{
glyphname = O;
layers = (
{
anchors = (
{
name = m.uni0328_3;
position = "{677, 80}";
},
{
name = m.uni032E;
position = "{498, 0}";
},
{
name = t.uni0304;
position = "{498, 1760}";
}
);
layerId = "6C046C9F-D66B-4CE6-B064-C5BDB7BD1C21";
shapes = (
{
closed = 1;
nodes = (
(287,-16,o),
(64,239,o),
(64,480,qs),
(64,1316,ls),
(64,1542,o),
(285,1776,o),
(498,1776,qs),
(711,1776,o),
(932,1542,o),
(932,1316,qs),
(932,480,ls),
(932,239,o),
(709,-16,o),
(498,-16,qs)
);
},
{
closed = 1;
nodes = (
(581,308,o),
(581,463,qs),
(581,1322,ls),
(581,1452,o),
(503,1452,qs),
(415,1452,o),
(415,1319,qs),
(415,461,ls),
(415,379,o),
(455,308,o),
(501,308,qs)
);
}
);
width = 996;
}
);
unicode = 79;
},
{
glyphname = OE;
layers = (
{
layerId = "6C046C9F-D66B-4CE6-B064-C5BDB7BD1C21";
shapes = (
{
closed = 1;
nodes = (
(606,0,ls),
(50,0,o),
(50,430,qs),
(50,1356,ls),
(50,1511,o),
(189,1687,o),
(436,1760,o),
(598,1760,qs),
(1268,1760,l),
(1268,1451,l),
(931,1451,l),
(931,1083,l),
(1254,1083,l),
(1254,784,l),
(931,784,l),
(931,311,l),
(1291,311,l),
(1291,0,l)
);
},
{
closed = 1;
nodes = (
(574,311,l),
(574,1451,l),
(519,1451,ls),
(460,1451,o),
(398,1378,o),
(398,1314,qs),
(398,480,ls),
(398,410,o),
(452,311,o),
(513,311,qs)
);
}
);
width = 1330;
}
);
unicode = 338;
},
{
glyphname = uni0222;
layers = (
{
layerId = "6C046C9F-D66B-4CE6-B064-C5BDB7BD1C21";
shapes = (
{
closed = 1;
nodes = (
(284,-16,o),
(64,244,o),
(64,479,qs),
(64,683,ls),
(64,782,o),
(111,932,o),
(154,986,q),
(70,1101,o),
(70,1303,qs),
(70,1760,l),
(412,1760,l),
(412,1297,ls),
(412,1213,o),
(444,1121,o),
(498,1121,qs),
(552,1121,o),
(584,1212,o),
(584,1297,qs),
(584,1760,l),
(926,1760,l),
(926,1303,ls),
(926,1101,o),
(842,986,q),
(885,932,o),
(932,782,o),
(932,683,qs),
(932,479,ls),
(932,241,o),
(712,-16,o),
(498,-16,qs)
);
},
{
closed = 1;
nodes = (
(545,308,o),
(578,390,o),
(578,463,qs),
(578,710,ls),
(578,766,o),
(548,839,o),
(500,839,qs),
(412,839,o),
(412,706,qs),
(412,461,ls),
(412,386,o),
(449,308,o),
(498,308,qs)
);
}
);
width = 996;
}
);
unicode = 546;
},
{
glyphname = Oacute;
layers = (
{
anchors = (
{
name = m.uni0328_3;
position = "{677, 80}";
},
{
name = m.uni032E;
position = "{498, 0}";
},
{
name = t.uni0304;
position = "{498, 1760}";
}
);
layerId = "6C046C9F-D66B-4CE6-B064-C5BDB7BD1C21";
shapes = (
{
closed = 1;
nodes = (
(287,-16,o),
(64,239,o),
(64,480,qs),
(64,1316,ls),
(64,1542,o),
(285,1776,o),
(498,1776,qs),
(711,1776,o),
(932,1542,o),
(932,1316,qs),
(932,480,ls),
(932,239,o),
(709,-16,o),
(498,-16,qs)
);
},
{
closed = 1;
nodes = (
(581,308,o),
(581,463,qs),
(581,1322,ls),
(581,1452,o),
(503,1452,qs),
(415,1452,o),
(415,1319,qs),
(415,461,ls),
(415,379,o),
(455,308,o),
(501,308,qs)
);
},
{
closed = 1;
nodes = (
(261,1813,l),
(261,2036,l),
(736,2254,l),
(736,1907,l)
);
}
);
width = 996;
}
);
unicode = 211;
},
{
glyphname = Obreve;
layers = (
{
anchors = (
{
name = m.uni0328_3;
position = "{677, 80}";
},
{
name = m.uni032E;
position = "{498, 0}";
},
{
name = t.uni0304;
position = "{498, 1760}";
}
);
layerId = "6C046C9F-D66B-4CE6-B064-C5BDB7BD1C21";
shapes = (
{
closed = 1;
nodes = (
(287,-16,o),
(64,239,o),
(64,480,qs),
(64,1316,ls),
(64,1542,o),
(285,1776,o),
(498,1776,qs),
(711,1776,o),
(932,1542,o),
(932,1316,qs),
(932,480,ls),
(932,239,o),
(709,-16,o),
(498,-16,qs)
);
},
{
closed = 1;
nodes = (
(581,308,o),
(581,463,qs),
(581,1322,ls),
(581,1452,o),
(503,1452,qs),
(415,1452,o),
(415,1319,qs),
(415,461,ls),
(415,379,o),
(455,308,o),
(501,308,qs)
);
},
{
closed = 1;
nodes = (
(327,1852,o),
(110,2000,o),
(110,2163,qs),
(110,2184,o),
(113,2205,q),
(369,2205,l),
(369,2148,o),
(427,2089,o),
(504,2089,qs),
(581,2089,o),
(639,2148,o),
(639,2205,q),
(895,2205,l),
(896,2195,o),
(897,2175,o),
(897,2170,qs),
(897,2003,o),
(682,1852,o),
(502,1852,qs)
);
}
);
width = 996;
}
);
unicode = 334;
},
{
glyphname = Ocircumflex;
layers = (
{
anchors = (
{
name = m.uni0328_3;
position = "{677, 80}";
},
{
name = m.uni032E;
position = "{498, 0}";
},
{
name = t.uni0304;
position = "{498, 1760}";
}
);
layerId = "6C046C9F-D66B-4CE6-B064-C5BDB7BD1C21";
shapes = (
{
closed = 1;
nodes = (
(287,-16,o),
(64,239,o),
(64,480,qs),
(64,1316,ls),
(64,1542,o),
(285,1776,o),
(498,1776,qs),
(711,1776,o),
(932,1542,o),
(932,1316,qs),
(932,480,ls),
(932,239,o),
(709,-16,o),
(498,-16,qs)
);
},
{
closed = 1;
nodes = (
(581,308,o),
(581,463,qs),
(581,1322,ls),
(581,1452,o),
(503,1452,qs),
(415,1452,o),
(415,1319,qs),
(415,461,ls),
(415,379,o),
(455,308,o),
(501,308,qs)
);
},
{
closed = 1;
nodes = (
(54,1851,l),
(295,2254,l),
(703,2254,l),
(944,1851,l),
(585,1851,l),
(499,2136,l),
(413,1851,l)
);
}
);
width = 996;
}
);
unicode = 212;
},
{
glyphname = uni1ED0;
layers = (
{
anchors = (
{
name = m.uni0328_3;
position = "{677, 80}";
},
{
name = m.uni032E;
position = "{498, 0}";
},
{
name = t.uni0304;
position = "{498, 1760}";
}
);
layerId = "6C046C9F-D66B-4CE6-B064-C5BDB7BD1C21";
shapes = (
{
closed = 1;
nodes = (
(287,-16,o),
(64,239,o),
(64,480,qs),
(64,1316,ls),
(64,1542,o),
(285,1776,o),
(498,1776,qs),
(711,1776,o),
(932,1542,o),
(932,1316,qs),
(932,480,ls),
(932,239,o),
(709,-16,o),
(498,-16,qs)
);
},
{
closed = 1;
nodes = (
(581,308,o),
(581,463,qs),
(581,1322,ls),
(581,1452,o),
(503,1452,qs),
(415,1452,o),
(415,1319,qs),
(415,461,ls),
(415,379,o),
(455,308,o),
(501,308,qs)
);
},
{
closed = 1;
nodes = (
(787,2000,l),
(901,2204,l),
(1208,2204,l),
(1020,2000,l)
);
},
{
closed = 1;
nodes = (
(114,1839,l),
(351,2093,l),
(645,2093,l),
(882,1839,l),
(597,1839,l),
(498,1974,l),
(399,1839,l)
);
}
);
width = 996;
}
);
unicode = 7888;
},
{
glyphname = uni1ED8;
layers = (
{
anchors = (
{
name = m.uni0328_3;
position = "{677, 80}";
},
{
name = m.uni032E;
position = "{498, 0}";
},
{
name = t.uni0304;
position = "{498, 2232}";
}
);
layerId = "6C046C9F-D66B-4CE6-B064-C5BDB7BD1C21";
shapes = (
{
closed = 1;
nodes = (
(287,-16,o),
(64,239,o),
(64,480,qs),
(64,1316,ls),
(64,1542,o),
(285,1776,o),
(498,1776,qs),
(711,1776,o),
(932,1542,o),
(932,1316,qs),
(932,480,ls),
(932,239,o),
(709,-16,o),
(498,-16,qs)
);
},
{
closed = 1;
nodes = (
(581,308,o),
(581,463,qs),
(581,1322,ls),
(581,1452,o),
(503,1452,qs),
(415,1452,o),
(415,1319,qs),
(415,461,ls),
(415,379,o),
(455,308,o),
(501,308,qs)
);
},
{
closed = 1;
nodes = (
(319,-417,l),
(319,-119,l),
(677,-119,l),
(677,-417,l)
);
},
{
closed = 1;
nodes = (
(53,1861,l),
(294,2194,l),
(702,2194,l),
(943,1861,l),
(584,1861,l),
(498,2076,l),
(412,1861,l)
);
}
);
width = 996;
}
);
unicode = 7896;
},
{
glyphname = uni1ED2;
layers = (
{
anchors = (
{
name = m.uni0328_3;
position = "{677, 80}";
},
{
name = m.uni032E;
position = "{498, 0}";
},
{
name = t.uni0304;
position = "{498, 1760}";
}
);
layerId = "6C046C9F-D66B-4CE6-B064-C5BDB7BD1C21";
shapes = (
{
closed = 1;
nodes = (
(287,-16,o),
(64,239,o),
(64,480,qs),
(64,1316,ls),
(64,1542,o),
(285,1776,o),
(498,1776,qs),
(711,1776,o),
(932,1542,o),
(932,1316,qs),
(932,480,ls),
(932,239,o),
(709,-16,o),
(498,-16,qs)
);
},
{
closed = 1;
nodes = (
(581,308,o),
(581,463,qs),
(581,1322,ls),
(581,1452,o),
(503,1452,qs),
(415,1452,o),
(415,1319,qs),
(415,461,ls),
(415,379,o),
(455,308,o),
(501,308,qs)
);
},
{
closed = 1;
nodes = (
(854,2000,l),
(666,2204,l),
(973,2204,l),
(1087,2000,l)
);
},
{
closed = 1;
nodes = (
(114,1839,l),
(351,2093,l),
(645,2093,l),
(882,1839,l),
(597,1839,l),
(498,1974,l),
(399,1839,l)
);
}
);
width = 996;
}
);
unicode = 7890;
},
{
glyphname = uni1ED4;
layers = (
{
anchors = (
{
name = m.uni0328_3;
position = "{677, 80}";
},
{
name = m.uni032E;
position = "{498, 0}";
},
{
name = t.uni0304;
position = "{498, 1760}";
}
);
layerId = "6C046C9F-D66B-4CE6-B064-C5BDB7BD1C21";
shapes = (
{
closed = 1;
nodes = (
(287,-16,o),
(64,239,o),
(64,480,qs),
(64,1316,ls),
(64,1542,o),
(285,1776,o),
(498,1776,qs),
(711,1776,o),
(932,1542,o),
(932,1316,qs),
(932,480,ls),
(932,239,o),
(709,-16,o),
(498,-16,qs)
);
},
{
closed = 1;
nodes = (
(581,308,o),
(581,463,qs),
(581,1322,ls),
(581,1452,o),
(503,1452,qs),
(415,1452,o),
(415,1319,qs),
(415,461,ls),
(415,379,o),
(455,308,o),
(501,308,qs)
);
},
{
closed = 1;
nodes = (
(802,2036,l),
(836,2049,o),
(877,2086,o),
(877,2117,qs),
(877,2176,o),
(814,2176,qs),
(786,2176,o),
(758,2166,q),
(758,2278,l),
(815,2299,o),
(872,2299,qs),
(949,2299,o),
(1037,2221,o),
(1037,2151,qs),
(1037,2072,o),
(940,1982,o),
(868,1959,q)
);
},
{
closed = 1;
nodes = (
(114,1839,l),
(351,2093,l),
(645,2093,l),
(882,1839,l),
(597,1839,l),
(498,1974,l),
(399,1839,l)
);
}
);
width = 996;
}
);
unicode = 7892;
},
{
glyphname = uni1ED6;
layers = (
{
anchors = (
{
name = m.uni0328_3;
position = "{677, 80}";
},
{
name = m.uni032E;
position = "{498, 0}";
},
{
name = t.uni0304;
position = "{498, 1760}";
}
);
layerId = "6C046C9F-D66B-4CE6-B064-C5BDB7BD1C21";
shapes = (
{
closed = 1;
nodes = (
(287,-16,o),
(64,239,o),
(64,480,qs),
(64,1316,ls),
(64,1542,o),
(285,1776,o),
(498,1776,qs),
(711,1776,o),
(932,1542,o),
(932,1316,qs),
(932,480,ls),
(932,239,o),
(709,-16,o),
(498,-16,qs)
);
},
{
closed = 1;
nodes = (
(581,308,o),
(581,463,qs),
(581,1322,ls),
(581,1452,o),
(503,1452,qs),
(415,1452,o),
(415,1319,qs),
(415,461,ls),
(415,379,o),
(455,308,o),
(501,308,qs)
);
},
{
closed = 1;
nodes = (
(573,2142,o),
(494,2176,o),
(419,2210,o),
(379,2210,qs),
(355,2210,o),
(313,2188,o),
(295,2159,q),
(184,2217,l),
(210,2282,o),
(282,2375,o),
(357,2375,qs),
(404,2375,o),
(482,2341,o),
(556,2307,o),
(596,2307,qs),
(646,2307,o),
(680,2363,q),
(805,2323,l),
(777,2253,o),
(703,2142,o),
(618,2142,qs)
);
},
{
closed = 1;
nodes = (
(114,1839,l),
(351,2093,l),
(645,2093,l),
(882,1839,l),
(597,1839,l),
(498,1974,l),
(399,1839,l)
);
}
);
width = 996;
}
);
unicode = 7894;
},
{
glyphname = uni020C;
layers = (
{
anchors = (
{
name = m.uni0328_3;
position = "{677, 80}";
},
{
name = m.uni032E;
position = "{498, 0}";
},
{
name = t.uni0304;
position = "{498, 1760}";
}
);
layerId = "6C046C9F-D66B-4CE6-B064-C5BDB7BD1C21";
shapes = (
{
closed = 1;
nodes = (
(287,-16,o),
(64,239,o),
(64,480,qs),
(64,1316,ls),
(64,1542,o),
(285,1776,o),
(498,1776,qs),
(711,1776,o),
(932,1542,o),
(932,1316,qs),
(932,480,ls),
(932,239,o),
(709,-16,o),
(498,-16,qs)
);
},
{
closed = 1;
nodes = (
(581,308,o),
(581,463,qs),
(581,1322,ls),
(581,1452,o),
(503,1452,qs),
(415,1452,o),
(415,1319,qs),
(415,461,ls),
(415,379,o),
(455,308,o),
(501,308,qs)
);
},
{
closed = 1;
nodes = (
(302,1846,l),
(13,2275,l),
(247,2383,l),
(468,1904,l)
);
},
{
closed = 1;
nodes = (
(604,1846,l),
(356,2275,l),
(586,2383,l),
(770,1904,l)
);
}
);
width = 996;
}
);
unicode = 524;
},
{
glyphname = Odieresis;
layers = (
{
anchors = (
{
name = m.uni0328_3;
position = "{677, 80}";
},
{
name = m.uni032E;
position = "{498, 0}";
},
{
name = t.uni0304;
position = "{498, 1760}";
}
);
layerId = "6C046C9F-D66B-4CE6-B064-C5BDB7BD1C21";
shapes = (
{
closed = 1;
nodes = (
(287,-16,o),
(64,239,o),
(64,480,qs),
(64,1316,ls),
(64,1542,o),
(285,1776,o),
(498,1776,qs),
(711,1776,o),
(932,1542,o),
(932,1316,qs),
(932,480,ls),
(932,239,o),
(709,-16,o),
(498,-16,qs)
);
},
{
closed = 1;
nodes = (
(581,308,o),
(581,463,qs),
(581,1322,ls),
(581,1452,o),
(503,1452,qs),
(415,1452,o),
(415,1319,qs),
(415,461,ls),
(415,379,o),
(455,308,o),
(501,308,qs)
);
},
{
closed = 1;
nodes = (
(555,1859,l),
(555,2157,l),
(913,2157,l),
(913,1859,l)
);
},
{
closed = 1;
nodes = (
(71,1859,l),
(71,2157,l),
(429,2157,l),
(429,1859,l)
);
}
);
width = 996;
}
);
unicode = 214;
},
{
glyphname = uni022A;
layers = (
{
anchors = (
{
name = m.uni0328_3;
position = "{677, 80}";
},
{
name = m.uni032E;
position = "{498, 0}";
},
{
name = t.uni0304;
position = "{498, 2157}";
}
);
layerId = "6C046C9F-D66B-4CE6-B064-C5BDB7BD1C21";
shapes = (
{
closed = 1;
nodes = (
(287,-16,o),
(64,239,o),
(64,480,qs),
(64,1316,ls),
(64,1542,o),
(285,1776,o),
(498,1776,qs),
(711,1776,o),
(932,1542,o),
(932,1316,qs),
(932,480,ls),
(932,239,o),
(709,-16,o),
(498,-16,qs)
);
},
{
closed = 1;
nodes = (
(581,308,o),
(581,463,qs),
(581,1322,ls),
(581,1452,o),
(503,1452,qs),
(415,1452,o),
(415,1319,qs),
(415,461,ls),
(415,379,o),
(455,308,o),
(501,308,qs)
);
},
{
closed = 1;
nodes = (
(561,1859,l),
(561,2107,l),
(919,2107,l),
(919,1859,l)
);
},
{
closed = 1;
nodes = (
(77,1859,l),
(77,2107,l),
(435,2107,l),
(435,1859,l)
);
},
{
closed = 1;
nodes = (
(173,2216,l),
(173,2369,l),
(823,2369,l),
(823,2216,l)
);
}
);
width = 996;
}
);
unicode = 554;
},
{
glyphname = uni0230;
layers = (
{
anchors = (
{
name = m.uni0328_3;
position = "{677, 80}";
},
{
name = m.uni032E;
position = "{498, 0}";
},
{
name = t.uni0304;
position = "{498, 2139}";
}
);
layerId = "6C046C9F-D66B-4CE6-B064-C5BDB7BD1C21";
shapes = (
{
closed = 1;
nodes = (
(287,-16,o),
(64,239,o),
(64,480,qs),
(64,1316,ls),
(64,1542,o),
(285,1776,o),
(498,1776,qs),
(711,1776,o),
(932,1542,o),
(932,1316,qs),
(932,480,ls),
(932,239,o),
(709,-16,o),
(498,-16,qs)
);
},
{
closed = 1;
nodes = (
(581,308,o),
(581,463,qs),
(581,1322,ls),
(581,1452,o),
(503,1452,qs),
(415,1452,o),
(415,1319,qs),
(415,461,ls),
(415,379,o),
(455,308,o),
(501,308,qs)
);
},
{
closed = 1;
nodes = (
(319,1852,l),
(319,2110,l),
(677,2110,l),
(677,1852,l)
);
},
{
closed = 1;
nodes = (
(173,2198,l),
(173,2351,l),
(823,2351,l),
(823,2198,l)
);
}
);
width = 996;
}
);
unicode = 560;
},
{
glyphname = uni1ECC;
layers = (
{
anchors = (
{
name = m.uni0328_3;
position = "{677, 80}";
},
{
name = m.uni032E;
position = "{498, 0}";
},
{
name = t.uni0304;
position = "{498, 1760}";
}
);
layerId = "6C046C9F-D66B-4CE6-B064-C5BDB7BD1C21";
shapes = (
{
closed = 1;
nodes = (
(287,-16,o),
(64,239,o),
(64,480,qs),
(64,1316,ls),
(64,1542,o),
(285,1776,o),
(498,1776,qs),
(711,1776,o),
(932,1542,o),
(932,1316,qs),
(932,480,ls),
(932,239,o),
(709,-16,o),
(498,-16,qs)
);
},
{
closed = 1;
nodes = (
(581,308,o),
(581,463,qs),
(581,1322,ls),
(581,1452,o),
(503,1452,qs),
(415,1452,o),
(415,1319,qs),
(415,461,ls),
(415,379,o),
(455,308,o),
(501,308,qs)
);
},
{
closed = 1;
nodes = (
(319,-417,l),
(319,-119,l),
(677,-119,l),
(677,-417,l)
);
}
);
width = 996;
}
);
unicode = 7884;
},
{
glyphname = Ograve;
layers = (
{
anchors = (
{
name = m.uni0328_3;
position = "{677, 80}";
},
{
name = m.uni032E;
position = "{498, 0}";
},
{
name = t.uni0304;
position = "{498, 1760}";
}
);
layerId = "6C046C9F-D66B-4CE6-B064-C5BDB7BD1C21";
shapes = (
{
closed = 1;
nodes = (
(287,-16,o),
(64,239,o),
(64,480,qs),
(64,1316,ls),
(64,1542,o),
(285,1776,o),
(498,1776,qs),
(711,1776,o),
(932,1542,o),
(932,1316,qs),
(932,480,ls),
(932,239,o),
(709,-16,o),
(498,-16,qs)
);
},
{
closed = 1;
nodes = (
(581,308,o),
(581,463,qs),
(581,1322,ls),
(581,1452,o),
(503,1452,qs),
(415,1452,o),
(415,1319,qs),
(415,461,ls),
(415,379,o),
(455,308,o),
(501,308,qs)
);
},
{
closed = 1;
nodes = (
(736,1813,l),
(261,1907,l),
(261,2254,l),
(736,2036,l)
);
}
);
width = 996;
}
);
unicode = 210;
},
{
glyphname = uni2126;
layers = (
{
layerId = "6C046C9F-D66B-4CE6-B064-C5BDB7BD1C21";
shapes = (
{
closed = 1;
nodes = (
(47,0,l),
(47,246,l),
(169,246,l),
(72,394,o),
(72,710,qs),
(72,1189,ls),
(72,1394,o),
(288,1607,o),
(496,1607,qs),
(705,1607,o),
(920,1394,o),
(920,1189,qs),
(920,710,ls),
(920,394,o),
(823,246,q),
(945,246,l),
(945,0,l),
(529,0,l),
(529,247,l),
(552,266,o),
(574,312,o),
(581,396,o),
(581,471,qs),
(581,1211,ls),
(581,1264,o),
(548,1335,o),
(496,1335,qs),
(444,1335,o),
(411,1264,o),
(411,1211,qs),
(411,471,ls),
(411,359,o),
(438,273,o),
(463,247,q),
(463,0,l)
);
}
);
width = 992;
}
);
unicode = 8486;
},
{
glyphname = uni1ECE;
layers = (
{
anchors = (
{
name = m.uni0328_3;
position = "{677, 80}";
},
{
name = m.uni032E;
position = "{498, 0}";
},
{
name = t.uni0304;
position = "{552, 2450}";
}
);
layerId = "6C046C9F-D66B-4CE6-B064-C5BDB7BD1C21";
shapes = (
{
closed = 1;
nodes = (
(287,-16,o),
(64,239,o),
(64,480,qs),
(64,1316,ls),
(64,1542,o),
(285,1776,o),
(498,1776,qs),
(711,1776,o),
(932,1542,o),
(932,1316,qs),
(932,480,ls),
(932,239,o),
(709,-16,o),
(498,-16,qs)
);
},
{
closed = 1;
nodes = (
(581,308,o),
(581,463,qs),
(581,1322,ls),
(581,1452,o),
(503,1452,qs),
(415,1452,o),
(415,1319,qs),
(415,461,ls),
(415,379,o),
(455,308,o),
(501,308,qs)
);
},
{
closed = 1;
nodes = (
(363,1961,l),
(417,1981,o),
(483,2041,o),
(483,2091,qs),
(483,2186,o),
(382,2186,qs),
(335,2186,o),
(292,2170,q),
(292,2350,l),
(380,2383,o),
(475,2383,qs),
(600,2383,o),
(741,2258,o),
(741,2145,qs),
(741,2018,o),
(585,1873,o),
(469,1837,q)
);
}
);
width = 996;
}
);
unicode = 7886;
},
{
glyphname = Ohorn;
layers = (
{
anchors = (
{
name = m.uni0328_3;
position = "{677, 80}";
},
{
name = m.uni032E;
position = "{498, 0}";
},
{
name = t.uni0304;
position = "{500, 1895}";
}
);
layerId = "6C046C9F-D66B-4CE6-B064-C5BDB7BD1C21";
shapes = (
{
closed = 1;
nodes = (
(282,-16,o),
(64,245,o),
(64,480,qs),
(64,1316,ls),
(64,1543,o),
(288,1776,o),
(500,1776,qs),
(576,1776,ls),
(691,1776,o),
(691,1901,qs),
(691,1924,l),
(969,1924,l),
(969,1909,ls),
(969,1804,o),
(904,1665,o),
(849,1626,q),
(932,1511,o),
(932,1316,qs),
(932,480,ls),
(932,245,o),
(714,-16,o),
(498,-16,qs)
);
},
{
closed = 1;
nodes = (
(548,308,o),
(578,399,o),
(578,463,qs),
(578,1322,ls),
(578,1369,o),
(552,1452,o),
(500,1452,qs),
(449,1452,o),
(412,1375,o),
(412,1319,qs),
(412,461,ls),
(412,392,o),
(444,308,o),
(498,308,qs)
);
}
);
width = 999;
}
);
unicode = 416;
},
{
glyphname = uni1EDA;
layers = (
{
anchors = (
{
name = m.uni0328_3;
position = "{677, 80}";
},
{
name = m.uni032E;
position = "{498, 0}";
},
{
name = t.uni0304;
position = "{500, 2268}";
}
);
layerId = "6C046C9F-D66B-4CE6-B064-C5BDB7BD1C21";
shapes = (
{
closed = 1;
nodes = (
(282,-16,o),
(64,245,o),
(64,480,qs),
(64,1316,ls),
(64,1543,o),
(288,1776,o),
(500,1776,qs),
(576,1776,ls),
(691,1776,o),
(691,1901,qs),
(691,1924,l),
(969,1924,l),
(969,1909,ls),
(969,1804,o),
(904,1665,o),
(849,1626,q),
(932,1511,o),
(932,1316,qs),
(932,480,ls),
(932,245,o),
(714,-16,o),
(498,-16,qs)
);
},
{
closed = 1;
nodes = (
(548,308,o),
(578,399,o),
(578,463,qs),
(578,1322,ls),
(578,1369,o),
(552,1452,o),
(500,1452,qs),
(449,1452,o),
(412,1375,o),
(412,1319,qs),
(412,461,ls),
(412,392,o),
(444,308,o),
(498,308,qs)
);
},
{
closed = 1;
nodes = (
(263,1932,l),
(263,2125,l),
(738,2293,l),
(738,2006,l)
);
}
);
width = 999;
}
);
unicode = 7898;
},
{
glyphname = uni1EE2;
layers = (
{
anchors = (
{
name = m.uni0328_3;
position = "{677, 80}";
},
{
name = m.uni032E;
position = "{498, 0}";
},
{
name = t.uni0304;
position = "{500, 1895}";
}
);
layerId = "6C046C9F-D66B-4CE6-B064-C5BDB7BD1C21";
shapes = (
{
closed = 1;
nodes = (
(282,-16,o),
(64,245,o),
(64,480,qs),
(64,1316,ls),
(64,1543,o),
(288,1776,o),
(500,1776,qs),
(576,1776,ls),
(691,1776,o),
(691,1901,qs),
(691,1924,l),
(969,1924,l),
(969,1909,ls),
(969,1804,o),
(904,1665,o),
(849,1626,q),
(932,1511,o),
(932,1316,qs),
(932,480,ls),
(932,245,o),
(714,-16,o),
(498,-16,qs)
);
},
{
closed = 1;
nodes = (
(548,308,o),
(578,399,o),
(578,463,qs),
(578,1322,ls),
(578,1369,o),
(552,1452,o),
(500,1452,qs),
(449,1452,o),
(412,1375,o),
(412,1319,qs),
(412,461,ls),
(412,392,o),
(444,308,o),
(498,308,qs)
);
},
{
closed = 1;
nodes = (
(319,-417,l),
(319,-119,l),
(677,-119,l),
(677,-417,l)
);
}
);
width = 999;
}
);
unicode = 7906;
},
{
glyphname = uni1EDC;
layers = (
{
anchors = (
{
name = m.uni0328_3;
position = "{677, 80}";
},
{
name = m.uni032E;
position = "{498, 0}";
},
{
name = t.uni0304;
position = "{499, 2289}";
}
);
layerId = "6C046C9F-D66B-4CE6-B064-C5BDB7BD1C21";
shapes = (
{
closed = 1;
nodes = (
(282,-16,o),
(64,245,o),
(64,480,qs),
(64,1316,ls),
(64,1543,o),
(288,1776,o),
(500,1776,qs),
(576,1776,ls),
(691,1776,o),
(691,1901,qs),
(691,1924,l),
(969,1924,l),
(969,1909,ls),
(969,1804,o),
(904,1665,o),
(849,1626,q),
(932,1511,o),
(932,1316,qs),
(932,480,ls),
(932,245,o),
(714,-16,o),
(498,-16,qs)
);
},
{
closed = 1;
nodes = (
(548,308,o),
(578,399,o),
(578,463,qs),
(578,1322,ls),
(578,1369,o),
(552,1452,o),
(500,1452,qs),
(449,1452,o),
(412,1375,o),
(412,1319,qs),
(412,461,ls),
(412,392,o),
(444,308,o),
(498,308,qs)
);
},
{
closed = 1;
nodes = (
(737,1962,l),
(262,2036,l),
(262,2323,l),
(737,2155,l)
);
}
);
width = 999;
}
);
unicode = 7900;
},
{
glyphname = uni1EDE;
layers = (
{
anchors = (
{
name = m.uni0328_3;
position = "{677, 80}";
},
{
name = m.uni032E;
position = "{498, 0}";
},
{
name = t.uni0304;
position = "{554, 2535}";
}
);
layerId = "6C046C9F-D66B-4CE6-B064-C5BDB7BD1C21";
shapes = (
{
closed = 1;
nodes = (
(282,-16,o),
(64,245,o),
(64,480,qs),
(64,1316,ls),
(64,1543,o),
(288,1776,o),
(500,1776,qs),
(576,1776,ls),
(691,1776,o),
(691,1901,qs),
(691,1924,l),
(969,1924,l),
(969,1909,ls),
(969,1804,o),
(904,1665,o),
(849,1626,q),
(932,1511,o),
(932,1316,qs),
(932,480,ls),
(932,245,o),
(714,-16,o),
(498,-16,qs)
);
},
{
closed = 1;
nodes = (
(548,308,o),
(578,399,o),
(578,463,qs),
(578,1322,ls),
(578,1369,o),
(552,1452,o),
(500,1452,qs),
(449,1452,o),
(412,1375,o),
(412,1319,qs),
(412,461,ls),
(412,392,o),
(444,308,o),
(498,308,qs)
);
},
{
closed = 1;
nodes = (
(365,2046,l),
(419,2066,o),
(485,2126,o),
(485,2176,qs),
(485,2271,o),
(384,2271,qs),
(337,2271,o),
(294,2255,q),
(294,2435,l),
(382,2468,o),
(477,2468,qs),
(602,2468,o),
(743,2343,o),
(743,2230,qs),
(743,2103,o),
(587,1958,o),
(471,1922,q)
);
}
);
width = 999;
}
);
unicode = 7902;
},
{
glyphname = uni1EE0;
layers = (
{
anchors = (
{
name = m.uni0328_3;
position = "{677, 80}";
},
{
name = m.uni032E;
position = "{498, 0}";
},
{
name = t.uni0304;
position = "{500, 2332}";
}
);
layerId = "6C046C9F-D66B-4CE6-B064-C5BDB7BD1C21";
shapes = (
{
closed = 1;
nodes = (
(282,-16,o),
(64,245,o),
(64,480,qs),
(64,1316,ls),
(64,1543,o),
(288,1776,o),
(500,1776,qs),
(576,1776,ls),
(691,1776,o),
(691,1901,qs),
(691,1924,l),
(969,1924,l),
(969,1909,ls),
(969,1804,o),
(904,1665,o),
(849,1626,q),
(932,1511,o),
(932,1316,qs),
(932,480,ls),
(932,245,o),
(714,-16,o),
(498,-16,qs)
);
},
{
closed = 1;
nodes = (
(548,308,o),
(578,399,o),
(578,463,qs),
(578,1322,ls),
(578,1369,o),
(552,1452,o),
(500,1452,qs),
(449,1452,o),
(412,1375,o),
(412,1319,qs),
(412,461,ls),
(412,392,o),
(444,308,o),
(498,308,qs)
);
},
{
closed = 1;
nodes = (
(591,2006,o),
(468,2052,o),
(368,2097,o),
(327,2097,qs),
(301,2097,o),
(255,2067,o),
(235,2029,q),
(87,2107,l),
(112,2162,o),
(171,2254,o),
(263,2310,o),
(334,2310,qs),
(405,2310,o),
(522,2268,o),
(616,2226,o),
(654,2226,qs),
(681,2226,o),
(727,2260,o),
(747,2301,q),
(913,2247,l),
(889,2185,o),
(831,2074,o),
(740,2006,o),
(665,2006,qs)
);
}
);
width = 999;
}
);
unicode = 7904;
},
{
glyphname = Ohungarumlaut;
layers = (
{
anchors = (
{
name = m.uni0328_3;
position = "{677, 80}";
},
{
name = m.uni032E;
position = "{498, 0}";
},
{
name = t.uni0304;
position = "{498, 1760}";
}
);
layerId = "6C046C9F-D66B-4CE6-B064-C5BDB7BD1C21";
shapes = (
{
closed = 1;
nodes = (
(287,-16,o),
(64,239,o),
(64,480,qs),
(64,1316,ls),
(64,1542,o),
(285,1776,o),
(498,1776,qs),
(711,1776,o),
(932,1542,o),
(932,1316,qs),
(932,480,ls),
(932,239,o),
(709,-16,o),
(498,-16,qs)
);
},
{
closed = 1;
nodes = (
(581,308,o),
(581,463,qs),
(581,1322,ls),
(581,1452,o),
(503,1452,qs),
(415,1452,o),
(415,1319,qs),
(415,461,ls),
(415,379,o),
(455,308,o),
(501,308,qs)
);
},
{
closed = 1;
nodes = (
(681,1866,l),
(515,1924,l),
(736,2403,l),
(970,2295,l)
);
},
{
closed = 1;
nodes = (
(379,1866,l),
(213,1924,l),
(397,2403,l),
(627,2295,l)
);
}
);
width = 996;
}
);
unicode = 336;
},
{
glyphname = uni020E;
layers = (
{
anchors = (
{
name = m.uni0328_3;
position = "{677, 80}";
},
{
name = m.uni032E;
position = "{498, 0}";
},
{
name = t.uni0304;
position = "{498, 1760}";
}
);
layerId = "6C046C9F-D66B-4CE6-B064-C5BDB7BD1C21";
shapes = (
{
closed = 1;
nodes = (
(287,-16,o),
(64,239,o),
(64,480,qs),
(64,1316,ls),
(64,1542,o),
(285,1776,o),
(498,1776,qs),
(711,1776,o),
(932,1542,o),
(932,1316,qs),
(932,480,ls),
(932,239,o),
(709,-16,o),
(498,-16,qs)
);
},
{
closed = 1;
nodes = (
(581,308,o),
(581,463,qs),
(581,1322,ls),
(581,1452,o),
(503,1452,qs),
(415,1452,o),
(415,1319,qs),
(415,461,ls),
(415,379,o),
(455,308,o),
(501,308,qs)
);
},
{
closed = 1;
nodes = (
(128,1868,l),
(125,1888,o),
(125,1909,qs),
(125,2072,o),
(322,2220,o),
(497,2220,qs),
(677,2220,o),
(872,2069,o),
(872,1902,qs),
(872,1897,o),
(871,1878,o),
(870,1868,q),
(634,1868,l),
(634,1936,o),
(558,2002,o),
(499,2002,qs),
(441,2002,o),
(364,1936,o),
(364,1868,q)
);
}
);
width = 996;
}
);
unicode = 526;
},
{
glyphname = Omacron;
layers = (
{
anchors = (
{
name = m.uni0328_3;
position = "{677, 80}";
},
{
name = m.uni032E;
position = "{498, 0}";
},
{
name = t.uni0304;
position = "{498, 1760}";
}
);
layerId = "6C046C9F-D66B-4CE6-B064-C5BDB7BD1C21";
shapes = (
{
closed = 1;
nodes = (
(287,-16,o),
(64,239,o),
(64,480,qs),
(64,1316,ls),
(64,1542,o),
(285,1776,o),
(498,1776,qs),
(711,1776,o),
(932,1542,o),
(932,1316,qs),
(932,480,ls),
(932,239,o),
(709,-16,o),
(498,-16,qs)
);
},
{
closed = 1;
nodes = (
(581,308,o),
(581,463,qs),
(581,1322,ls),
(581,1452,o),
(503,1452,qs),
(415,1452,o),
(415,1319,qs),
(415,461,ls),
(415,379,o),
(455,308,o),
(501,308,qs)
);
},
{
closed = 1;
nodes = (
(173,1879,l),
(173,2032,l),
(823,2032,l),
(823,1879,l)
);
}
);
width = 996;
}
);
unicode = 332;
},
{
glyphname = uni1E52;
layers = (
{
anchors = (
{
name = m.uni0328_3;
position = "{677, 80}";
},
{
name = m.uni032E;
position = "{498, 0}";
},
{
name = t.uni0304;
position = "{498, 2353}";
}
);
layerId = "6C046C9F-D66B-4CE6-B064-C5BDB7BD1C21";
shapes = (
{
closed = 1;
nodes = (
(287,-16,o),
(64,239,o),
(64,480,qs),
(64,1316,ls),
(64,1542,o),
(285,1776,o),
(498,1776,qs),
(711,1776,o),
(932,1542,o),
(932,1316,qs),
(932,480,ls),
(932,239,o),
(709,-16,o),
(498,-16,qs)
);
},
{
closed = 1;
nodes = (
(581,308,o),
(581,463,qs),
(581,1322,ls),
(581,1452,o),
(503,1452,qs),
(415,1452,o),
(415,1319,qs),
(415,461,ls),
(415,379,o),
(455,308,o),
(501,308,qs)
);
},
{
closed = 1;
nodes = (
(173,1819,l),
(173,1972,l),
(823,1972,l),
(823,1819,l)
);
},
{
closed = 1;
nodes = (
(261,2017,l),
(261,2210,l),
(736,2378,l),
(736,2091,l)
);
}
);
width = 996;
}
);
unicode = 7762;
},
{
glyphname = uni1E50;
layers = (
{
anchors = (
{
name = m.uni0328_3;
position = "{677, 80}";
},
{
name = m.uni032E;
position = "{498, 0}";
},
{
name = t.uni0304;
position = "{498, 2344}";
}
);
layerId = "6C046C9F-D66B-4CE6-B064-C5BDB7BD1C21";
shapes = (
{
closed = 1;
nodes = (
(287,-16,o),
(64,239,o),
(64,480,qs),
(64,1316,ls),
(64,1542,o),
(285,1776,o),
(498,1776,qs),
(711,1776,o),
(932,1542,o),
(932,1316,qs),
(932,480,ls),
(932,239,o),
(709,-16,o),
(498,-16,qs)
);
},
{
closed = 1;
nodes = (
(581,308,o),
(581,463,qs),
(581,1322,ls),
(581,1452,o),
(503,1452,qs),
(415,1452,o),
(415,1319,qs),
(415,461,ls),
(415,379,o),
(455,308,o),
(501,308,qs)
);
},
{
closed = 1;
nodes = (
(173,1819,l),
(173,1972,l),
(823,1972,l),
(823,1819,l)
);
},
{
closed = 1;
nodes = (
(736,2017,l),
(261,2091,l),
(261,2378,l),
(736,2210,l)
);
}
);
width = 996;
}
);
unicode = 7760;
},
{
glyphname = uni03A9;
layers = (
{
layerId = "6C046C9F-D66B-4CE6-B064-C5BDB7BD1C21";
shapes = (
{
closed = 1;
nodes = (
(47,0,l),
(47,246,l),
(169,246,l),
(72,394,o),
(72,710,qs),
(72,1352,ls),
(72,1557,o),
(288,1770,o),
(496,1770,qs),
(705,1770,o),
(920,1557,o),
(920,1352,qs),
(920,710,ls),
(920,394,o),
(823,246,q),
(945,246,l),
(945,0,l),
(529,0,l),
(529,247,l),
(562,273,o),
(581,419,o),
(581,531,qs),
(581,1374,ls),
(581,1427,o),
(548,1498,o),
(496,1498,qs),
(444,1498,o),
(411,1427,o),
(411,1374,qs),
(411,531,ls),
(411,419,o),
(430,273,o),
(463,247,q),
(463,0,l)
);
}
);
width = 992;
}
);
unicode = 937;
},
{
glyphname = uniA7B6;
layers = (
{
layerId = "6C046C9F-D66B-4CE6-B064-C5BDB7BD1C21";
shapes = (
{
closed = 1;
nodes = (
(253,-16,o),
(64,237,o),
(64,474,qs),
(64,1317,ls),
(64,1451,o),
(159,1658,o),
(352,1776,o),
(497,1776,q),
(497,1473,l),
(454,1473,o),
(413,1429,o),
(413,1378,qs),
(413,462,ls),
(413,386,o),
(450,308,o),
(499,308,qs),
(547,308,o),
(581,389,o),
(581,462,qs),
(581,1179,l),
(936,1179,l),
(936,462,ls),
(936,386,o),
(971,308,o),
(1020,308,qs),
(1066,308,o),
(1104,389,o),
(1104,462,qs),
(1104,1378,ls),
(1104,1429,o),
(1063,1473,o),
(1020,1473,q),
(1020,1776,l),
(1166,1776,o),
(1358,1658,o),
(1453,1451,o),
(1453,1317,qs),
(1453,474,ls),
(1453,234,o),
(1264,-16,o),
(1067,-16,qs),
(976,-16,o),
(816,54,o),
(760,146,q),
(703,54,o),
(546,-16,o),
(452,-16,qs)
);
}
);
width = 1517;
}
);
unicode = 42934;
},
{
glyphname = uni01EA;
layers = (
{
anchors = (
{
name = m.uni0328_3;
position = "{677, 80}";
},
{
name = m.uni032E;
position = "{498, 0}";
},
{
name = t.uni0304;
position = "{498, 1760}";
}
);
layerId = "6C046C9F-D66B-4CE6-B064-C5BDB7BD1C21";
shapes = (
{
closed = 1;
nodes = (
(287,-16,o),
(64,239,o),
(64,480,qs),
(64,1316,ls),
(64,1542,o),
(285,1776,o),
(498,1776,qs),
(711,1776,o),
(932,1542,o),
(932,1316,qs),
(932,480,ls),
(932,239,o),
(709,-16,o),
(498,-16,qs)
);
},
{
closed = 1;
nodes = (
(581,308,o),
(581,463,qs),
(581,1322,ls),
(581,1452,o),
(503,1452,qs),
(415,1452,o),
(415,1319,qs),
(415,461,ls),
(415,379,o),
(455,308,o),
(501,308,qs)
);
},
{
closed = 1;
nodes = (
(567,-551,o),
(409,-479,o),
(314,-344,o),
(314,-250,qs),
(314,-68,o),
(578,80,q),
(789,80,l),
(733,22,o),
(629,-116,o),
(629,-199,qs),
(629,-311,o),
(744,-311,qs),
(793,-311,o),
(860,-288,q),
(860,-511,l),
(765,-551,o),
(662,-551,qs)
);
}
);
width = 996;
}
);
unicode = 490;
},
{
glyphname = uni0186;
layers = (
{
layerId = "6C046C9F-D66B-4CE6-B064-C5BDB7BD1C21";
shapes = (
{
closed = 1;
nodes = (
(273,-16,o),
(39,193,o),
(39,425,qs),
(39,758,l),
(393,758,l),
(393,441,ls),
(393,382,o),
(430,308,o),
(475,308,qs),
(516,308,o),
(558,368,o),
(558,441,qs),
(558,1322,ls),
(558,1381,o),
(524,1452,o),
(475,1452,qs),
(433,1452,o),
(393,1397,o),
(393,1318,qs),
(393,1058,l),
(43,1058,l),
(43,1362,ls),
(43,1501,o),
(155,1684,o),
(350,1776,o),
(475,1776,qs),
(704,1776,o),
(907,1504,o),
(907,1248,qs),
(907,436,ls),
(907,222,o),
(674,-16,o),
(483,-16,qs)
);
}
);
width = 971;
}
);
unicode = 390;
},
{
glyphname = Oslash;
layers = (
{
anchors = (
{
name = m.uni0328_3;
position = "{677, 80}";
},
{
name = m.uni032E;
position = "{498, 0}";
},
{
name = t.uni0304;
position = "{498, 1760}";
},
{
name = t.uni1DC7;
position = "{494, 1897}";
}
);
layerId = "6C046C9F-D66B-4CE6-B064-C5BDB7BD1C21";
shapes = (
{
closed = 1;
nodes = (
(111,-186,l),
(185,101,l),
(64,229,o),
(64,480,qs),
(64,1316,ls),
(64,1543,o),
(287,1776,o),
(498,1776,qs),
(585,1776,o),
(656,1756,q),
(719,2000,l),
(859,2000,l),
(781,1695,l),
(932,1581,o),
(932,1316,qs),
(932,480,ls),
(932,245,o),
(714,-16,o),
(498,-16,qs),
(388,-16,o),
(304,19,q),
(251,-186,l)
);
},
{
closed = 1;
nodes = (
(551,308,o),
(581,399,o),
(581,463,qs),
(581,1322,ls),
(581,1369,o),
(555,1452,o),
(503,1452,qs),
(452,1452,o),
(415,1375,o),
(415,1319,qs),
(415,461,ls),
(415,392,o),
(447,308,o),
(501,308,qs)
);
}
);
width = 996;
}
);
unicode = 216;
},
{
glyphname = Oslashacute;
layers = (
{
anchors = (
{
name = m.uni0328_3;
position = "{677, 80}";
},
{
name = m.uni032E;
position = "{498, 0}";
},
{
name = t.uni0304;
position = "{498, 1760}";
},
{
name = t.uni1DC7;
position = "{494, 1897}";
}
);
layerId = "6C046C9F-D66B-4CE6-B064-C5BDB7BD1C21";
shapes = (
{
closed = 1;
nodes = (
(111,-186,l),
(185,101,l),
(64,229,o),
(64,480,qs),
(64,1316,ls),
(64,1543,o),
(287,1776,o),
(498,1776,qs),
(585,1776,o),
(656,1756,q),
(719,2000,l),
(859,2000,l),
(781,1695,l),
(932,1581,o),
(932,1316,qs),
(932,480,ls),
(932,245,o),
(714,-16,o),
(498,-16,qs),
(388,-16,o),
(304,19,q),
(251,-186,l)
);
},
{
closed = 1;
nodes = (
(551,308,o),
(581,399,o),
(581,463,qs),
(581,1322,ls),
(581,1369,o),
(555,1452,o),
(503,1452,qs),
(452,1452,o),
(415,1375,o),
(415,1319,qs),
(415,461,ls),
(415,392,o),
(447,308,o),
(501,308,qs)
);
},
{
closed = 1;
nodes = (
(257,1950,l),
(257,2173,l),
(732,2391,l),
(732,2044,l)
);
}
);
width = 996;
}
);
unicode = 510;
},
{
glyphname = Otilde;
layers = (
{
anchors = (
{
name = m.uni0328_3;
position = "{677, 80}";
},
{
name = m.uni032E;
position = "{498, 0}";
},
{
name = t.uni0304;
position = "{498, 1760}";
}
);
layerId = "6C046C9F-D66B-4CE6-B064-C5BDB7BD1C21";
shapes = (
{
closed = 1;
nodes = (
(287,-16,o),
(64,239,o),
(64,480,qs),
(64,1316,ls),
(64,1542,o),
(285,1776,o),
(498,1776,qs),
(711,1776,o),
(932,1542,o),
(932,1316,qs),
(932,480,ls),
(932,239,o),
(709,-16,o),
(498,-16,qs)
);
},
{
closed = 1;
nodes = (
(581,308,o),
(581,463,qs),
(581,1322,ls),
(581,1452,o),
(503,1452,qs),
(415,1452,o),
(415,1319,qs),
(415,461,ls),
(415,379,o),
(455,308,o),
(501,308,qs)
);
},
{
closed = 1;
nodes = (
(590,1871,o),
(467,1917,o),
(367,1962,o),
(326,1962,qs),
(300,1962,o),
(254,1932,o),
(234,1894,q),
(86,1972,l),
(111,2033,o),
(170,2134,o),
(262,2195,o),
(333,2195,qs),
(404,2195,o),
(519,2153,o),
(614,2111,o),
(653,2111,qs),
(680,2111,o),
(726,2145,o),
(746,2186,q),
(912,2132,l),
(888,2065,o),
(830,1945,o),
(739,1871,o),
(664,1871,qs)
);
}
);
width = 996;
}
);
unicode = 213;
},
{
glyphname = uni1E4C;
layers = (
{
anchors = (
{
name = m.uni0328_3;
position = "{677, 80}";
},
{
name = m.uni032E;
position = "{498, 0}";
},
{
name = t.uni0304;
position = "{498, 2540}";
}
);
layerId = "6C046C9F-D66B-4CE6-B064-C5BDB7BD1C21";
shapes = (
{
closed = 1;
nodes = (
(287,-16,o),
(64,239,o),
(64,480,qs),
(64,1316,ls),
(64,1542,o),
(285,1776,o),
(498,1776,qs),
(711,1776,o),
(932,1542,o),
(932,1316,qs),
(932,480,ls),
(932,239,o),
(709,-16,o),
(498,-16,qs)
);
},
{
closed = 1;
nodes = (
(581,308,o),
(581,463,qs),
(581,1322,ls),
(581,1452,o),
(503,1452,qs),
(415,1452,o),
(415,1319,qs),
(415,461,ls),
(415,379,o),
(455,308,o),
(501,308,qs)
);
},
{
closed = 1;
nodes = (
(589,1841,o),
(466,1887,o),
(366,1932,o),
(325,1932,qs),
(299,1932,o),
(253,1902,o),
(233,1864,q),
(85,1942,l),
(110,1997,o),
(169,2089,o),
(261,2145,o),
(332,2145,qs),
(403,2145,o),
(520,2103,o),
(614,2061,o),
(652,2061,qs),
(679,2061,o),
(725,2095,o),
(745,2136,q),
(911,2082,l),
(887,2020,o),
(829,1909,o),
(738,1841,o),
(663,1841,qs)
);
},
{
closed = 1;
nodes = (
(261,2204,l),
(261,2397,l),
(736,2565,l),
(736,2278,l)
);
}
);
width = 996;
}
);
unicode = 7756;
},
{
glyphname = uni1E4E;
layers = (
{
anchors = (
{
name = m.uni0328_3;
position = "{677, 80}";
},
{
name = m.uni032E;
position = "{498, 0}";
},
{
name = t.uni0304;
position = "{498, 2564}";
}
);
layerId = "6C046C9F-D66B-4CE6-B064-C5BDB7BD1C21";
shapes = (
{
closed = 1;
nodes = (
(287,-16,o),
(64,239,o),
(64,480,qs),
(64,1316,ls),
(64,1542,o),
(285,1776,o),
(498,1776,qs),
(711,1776,o),
(932,1542,o),
(932,1316,qs),
(932,480,ls),
(932,239,o),
(709,-16,o),
(498,-16,qs)
);
},
{
closed = 1;
nodes = (
(581,308,o),
(581,463,qs),
(581,1322,ls),
(581,1452,o),
(503,1452,qs),
(415,1452,o),
(415,1319,qs),
(415,461,ls),
(415,379,o),
(455,308,o),
(501,308,qs)
);
},
{
closed = 1;
nodes = (
(589,1841,o),
(466,1887,o),
(366,1932,o),
(325,1932,qs),
(299,1932,o),
(253,1902,o),
(233,1864,q),
(85,1942,l),
(110,1997,o),
(169,2089,o),
(261,2145,o),
(332,2145,qs),
(403,2145,o),
(520,2103,o),
(614,2061,o),
(652,2061,qs),
(679,2061,o),
(725,2095,o),
(745,2136,q),
(911,2082,l),
(887,2020,o),
(829,1909,o),
(738,1841,o),
(663,1841,qs)
);
},
{
closed = 1;
nodes = (
(561,2266,l),
(561,2514,l),
(919,2514,l),
(919,2266,l)
);
},
{
closed = 1;
nodes = (
(77,2266,l),
(77,2514,l),
(435,2514,l),
(435,2266,l)
);
}
);
width = 996;
}
);
unicode = 7758;
},
{
glyphname = uni022C;
layers = (
{
anchors = (
{
name = m.uni0328_3;
position = "{677, 80}";
},
{
name = m.uni032E;
position = "{498, 0}";
},
{
name = t.uni0304;
position = "{498, 2167}";
}
);
layerId = "6C046C9F-D66B-4CE6-B064-C5BDB7BD1C21";
shapes = (
{
closed = 1;
nodes = (
(287,-16,o),
(64,239,o),
(64,480,qs),
(64,1316,ls),
(64,1542,o),
(285,1776,o),
(498,1776,qs),
(711,1776,o),
(932,1542,o),
(932,1316,qs),
(932,480,ls),
(932,239,o),
(709,-16,o),
(498,-16,qs)
);
},
{
closed = 1;
nodes = (
(581,308,o),
(581,463,qs),
(581,1322,ls),
(581,1452,o),
(503,1452,qs),
(415,1452,o),
(415,1319,qs),
(415,461,ls),
(415,379,o),
(455,308,o),
(501,308,qs)
);
},
{
closed = 1;
nodes = (
(589,1841,o),
(466,1887,o),
(366,1932,o),
(325,1932,qs),
(299,1932,o),
(253,1902,o),
(233,1864,q),
(85,1942,l),
(110,1997,o),
(169,2089,o),
(261,2145,o),
(332,2145,qs),
(403,2145,o),
(520,2103,o),
(614,2061,o),
(652,2061,qs),
(679,2061,o),
(725,2095,o),
(745,2136,q),
(911,2082,l),
(887,2020,o),
(829,1909,o),
(738,1841,o),
(663,1841,qs)
);
},
{
closed = 1;
nodes = (
(173,2226,l),
(173,2379,l),
(823,2379,l),
(823,2226,l)
);
}
);
width = 996;
}
);
unicode = 556;
},
{
glyphname = P;
layers = (
{
anchors = (
{
name = t.uni1DC7;
position = "{483, 1760}";
}
);
layerId = "6C046C9F-D66B-4CE6-B064-C5BDB7BD1C21";
shapes = (
{
closed = 1;
nodes = (
(78,0,l),
(78,1760,l),
(543,1760,ls),
(689,1760,o),
(860,1630,o),
(934,1390,o),
(934,1224,qs),
(934,1064,o),
(872,827,o),
(713,697,o),
(567,697,qs),
(424,697,l),
(424,0,l)
);
},
{
closed = 1;
nodes = (
(424,1013,l),
(444,1013,ls),
(542,1013,o),
(586,1123,o),
(586,1230,qs),
(586,1330,o),
(543,1439,o),
(463,1439,qs),
(424,1439,l)
);
}
);
width = 967;
}
);
unicode = 80;
},
{
glyphname = uni01A4;
layers = (
{
layerId = "6C046C9F-D66B-4CE6-B064-C5BDB7BD1C21";
shapes = (
{
closed = 1;
nodes = (
(427,0,l),
(427,1464,l),
(368,1464,o),
(312,1392,o),
(312,1312,qs),
(312,1252,l),
(5,1252,l),
(5,1312,ls),
(5,1509,o),
(215,1760,o),
(427,1760,qs),
(892,1760,ls),
(1038,1760,o),
(1209,1630,o),
(1283,1390,o),
(1283,1224,qs),
(1283,1064,o),
(1221,827,o),
(1062,697,o),
(916,697,qs),
(773,697,l),
(773,0,l)
);
},
{
closed = 1;
nodes = (
(773,1013,l),
(793,1013,ls),
(891,1013,o),
(935,1123,o),
(935,1230,qs),
(935,1330,o),
(892,1439,o),
(812,1439,qs),
(773,1439,l)
);
}
);
width = 1316;
}
);
unicode = 420;
},
{
glyphname = uni2C63;
layers = (
{
anchors = (
{
name = t.uni1DC7;
position = "{483, 1760}";
}
);
layerId = "6C046C9F-D66B-4CE6-B064-C5BDB7BD1C21";
shapes = (
{
closed = 1;
nodes = (
(78,0,l),
(78,1115,l),
(0,1115,l),
(0,1347,l),
(78,1347,l),
(78,1760,l),
(543,1760,ls),
(689,1760,o),
(860,1630,o),
(934,1390,o),
(934,1224,qs),
(934,1064,o),
(872,827,o),
(713,697,o),
(567,697,qs),
(424,697,l),
(424,0,l)
);
},
{
closed = 1;
nodes = (
(424,1013,l),
(444,1013,ls),
(542,1013,o),
(586,1123,o),
(586,1230,qs),
(586,1330,o),
(543,1439,o),
(463,1439,qs),
(424,1439,l),
(424,1347,l),
(516,1347,l),
(516,1115,l),
(424,1115,l)
);
}
);
width = 967;
}
);
unicode = 11363;
},
{
glyphname = Q;
layers = (
{
layerId = "6C046C9F-D66B-4CE6-B064-C5BDB7BD1C21";
shapes = (
{
closed = 1;
nodes = (
(856,-187,l),
(576,-3,l),
(528,-16,o),
(477,-16,qs),
(271,-16,o),
(54,228,o),
(54,462,qs),
(54,1313,ls),
(54,1540,o),
(277,1776,o),
(488,1776,qs),
(699,1776,o),
(922,1540,o),
(922,1313,qs),
(922,462,ls),
(922,244,o),
(824,119,q),
(975,23,l)
);
},
{
closed = 1;
nodes = (
(526,308,o),
(559,364,o),
(568,446,o),
(568,484,qs),
(568,1307,ls),
(568,1363,o),
(537,1452,o),
(486,1452,qs),
(434,1452,o),
(402,1365,o),
(402,1308,qs),
(402,477,ls),
(402,442,o),
(411,363,o),
(447,308,o),
(488,308,qs)
);
}
);
width = 1011;
}
);
unicode = 81;
},
{
glyphname = uni024A;
layers = (
{
layerId = "6C046C9F-D66B-4CE6-B064-C5BDB7BD1C21";
shapes = (
{
closed = 1;
nodes = (
(1059,-196,l),
(932,-196,o),
(734,-132,o),
(621,11,o),
(621,130,qs),
(621,133,l),
(582,51,o),
(447,-16,o),
(363,-16,qs),
(234,-16,o),
(106,107,o),
(64,325,o),
(64,467,qs),
(64,1294,ls),
(64,1436,o),
(106,1653,o),
(234,1776,o),
(363,1776,qs),
(449,1776,o),
(551,1690,o),
(581,1604,q),
(581,1760,l),
(931,1760,l),
(931,253,ls),
(931,182,o),
(992,120,o),
(1059,120,q)
);
},
{
closed = 1;
nodes = (
(546,278,o),
(581,366,o),
(581,431,qs),
(581,1330,ls),
(581,1395,o),
(546,1482,o),
(499,1482,qs),
(448,1482,o),
(414,1401,o),
(414,1330,qs),
(414,431,ls),
(414,360,o),
(448,278,o),
(499,278,qs)
);
}
);
width = 1049;
}
);
unicode = 586;
},
{
glyphname = R;
layers = (
{
anchors = (
{
name = m.uni032E;
position = "{515, 0}";
},
{
name = t.uni1DC7;
position = "{479, 1760}";
}
);
layerId = "6C046C9F-D66B-4CE6-B064-C5BDB7BD1C21";
shapes = (
{
closed = 1;
nodes = (
(78,0,l),
(78,1760,l),
(618,1760,ls),
(753,1760,o),
(891,1637,o),
(938,1416,o),
(938,1267,qs),
(938,1123,o),
(865,951,o),
(764,918,q),
(847,901,o),
(914,770,o),
(914,666,qs),
(914,0,l),
(567,0,l),
(567,689,ls),
(567,766,o),
(504,803,o),
(434,803,q),
(434,0,l)
);
},
{
closed = 1;
nodes = (
(436,1108,l),
(521,1108,ls),
(594,1108,o),
(594,1267,qs),
(594,1370,o),
(562,1434,o),
(518,1434,qs),
(436,1434,l)
);
}
);
width = 976;
}
);
unicode = 82;
},
{
glyphname = Racute;
layers = (
{
anchors = (
{
name = m.uni032E;
position = "{515, 0}";
},
{
name = t.uni1DC7;
position = "{479, 1760}";
}
);
layerId = "6C046C9F-D66B-4CE6-B064-C5BDB7BD1C21";
shapes = (
{
closed = 1;
nodes = (
(78,0,l),
(78,1760,l),
(618,1760,ls),
(753,1760,o),
(891,1637,o),
(938,1416,o),
(938,1267,qs),
(938,1123,o),
(865,951,o),
(764,918,q),
(847,901,o),
(914,770,o),
(914,666,qs),
(914,0,l),
(567,0,l),
(567,689,ls),
(567,766,o),
(504,803,o),
(434,803,q),
(434,0,l)
);
},
{
closed = 1;
nodes = (
(436,1108,l),
(521,1108,ls),
(594,1108,o),
(594,1267,qs),
(594,1370,o),
(562,1434,o),
(518,1434,qs),
(436,1434,l)
);
},
{
closed = 1;
nodes = (
(241,1813,l),
(241,2036,l),
(716,2254,l),
(716,1907,l)
);
}
);
width = 976;
}
);
unicode = 340;
},
{
glyphname = Rcaron;
layers = (
{
anchors = (
{
name = m.uni032E;
position = "{515, 0}";
},
{
name = t.uni1DC7;
position = "{479, 1760}";
}
);
layerId = "6C046C9F-D66B-4CE6-B064-C5BDB7BD1C21";
shapes = (
{
closed = 1;
nodes = (
(78,0,l),
(78,1760,l),
(618,1760,ls),
(753,1760,o),
(891,1637,o),
(938,1416,o),
(938,1267,qs),
(938,1123,o),
(865,951,o),
(764,918,q),
(847,901,o),
(914,770,o),
(914,666,qs),
(914,0,l),
(567,0,l),
(567,689,ls),
(567,766,o),
(504,803,o),
(434,803,q),
(434,0,l)
);
},
{
closed = 1;
nodes = (
(436,1108,l),
(521,1108,ls),
(594,1108,o),
(594,1267,qs),
(594,1370,o),
(562,1434,o),
(518,1434,qs),
(436,1434,l)
);
},
{
closed = 1;
nodes = (
(275,1851,l),
(34,2254,l),
(393,2254,l),
(479,1969,l),
(565,2254,l),
(924,2254,l),
(683,1851,l)
);
}
);
width = 976;
}
);
unicode = 344;
},
{
glyphname = uni0156;
layers = (
{
anchors = (
{
name = m.uni032E;
position = "{502, -643}";
},
{
name = t.uni1DC7;
position = "{479, 1760}";
}
);
layerId = "6C046C9F-D66B-4CE6-B064-C5BDB7BD1C21";
shapes = (
{
closed = 1;
nodes = (
(78,0,l),
(78,1760,l),
(618,1760,ls),
(753,1760,o),
(891,1637,o),
(938,1416,o),
(938,1267,qs),
(938,1123,o),
(865,951,o),
(764,918,q),
(847,901,o),
(914,770,o),
(914,666,qs),
(914,0,l),
(567,0,l),
(567,689,ls),
(567,766,o),
(504,803,o),
(434,803,q),
(434,0,l)
);
},
{
closed = 1;
nodes = (
(436,1108,l),
(521,1108,ls),
(594,1108,o),
(594,1267,qs),
(594,1370,o),
(562,1434,o),
(518,1434,qs),
(436,1434,l)
);
},
{
closed = 1;
nodes = (
(376,-643,l),
(442,-407,l),
(315,-407,l),
(315,-109,l),
(689,-109,l),
(689,-398,l),
(587,-643,l)
);
}
);
width = 976;
}
);
unicode = 342;
},
{
glyphname = uni0210;
layers = (
{
anchors = (
{
name = m.uni032E;
position = "{515, 0}";
},
{
name = t.uni1DC7;
position = "{479, 1760}";
}
);
layerId = "6C046C9F-D66B-4CE6-B064-C5BDB7BD1C21";
shapes = (
{
closed = 1;
nodes = (
(78,0,l),
(78,1760,l),
(618,1760,ls),
(753,1760,o),
(891,1637,o),
(938,1416,o),
(938,1267,qs),
(938,1123,o),
(865,951,o),
(764,918,q),
(847,901,o),
(914,770,o),
(914,666,qs),
(914,0,l),
(567,0,l),
(567,689,ls),
(567,766,o),
(504,803,o),
(434,803,q),
(434,0,l)
);
},
{
closed = 1;
nodes = (
(436,1108,l),
(521,1108,ls),
(594,1108,o),
(594,1267,qs),
(594,1370,o),
(562,1434,o),
(518,1434,qs),
(436,1434,l)
);
},
{
closed = 1;
nodes = (
(282,1846,l),
(-7,2275,l),
(227,2383,l),
(448,1904,l)
);
},
{
closed = 1;
nodes = (
(584,1846,l),
(336,2275,l),
(566,2383,l),
(750,1904,l)
);
}
);
width = 976;
}
);
unicode = 528;
},
{
glyphname = uni1E5A;
layers = (
{
anchors = (
{
name = m.uni032E;
position = "{515, 0}";
},
{
name = t.uni1DC7;
position = "{479, 1760}";
}
);
layerId = "6C046C9F-D66B-4CE6-B064-C5BDB7BD1C21";
shapes = (
{
closed = 1;
nodes = (
(78,0,l),
(78,1760,l),
(618,1760,ls),
(753,1760,o),
(891,1637,o),
(938,1416,o),
(938,1267,qs),
(938,1123,o),
(865,951,o),
(764,918,q),
(847,901,o),
(914,770,o),
(914,666,qs),
(914,0,l),
(567,0,l),
(567,689,ls),
(567,766,o),
(504,803,o),
(434,803,q),
(434,0,l)
);
},
{
closed = 1;
nodes = (
(436,1108,l),
(521,1108,ls),
(594,1108,o),
(594,1267,qs),
(594,1370,o),
(562,1434,o),
(518,1434,qs),
(436,1434,l)
);
},
{
closed = 1;
nodes = (
(336,-417,l),
(336,-119,l),
(694,-119,l),
(694,-417,l)
);
}
);
width = 976;
}
);
unicode = 7770;
},
{
glyphname = uni0212;
layers = (
{
anchors = (
{
name = m.uni032E;
position = "{515, 0}";
},
{
name = t.uni1DC7;
position = "{478, 2220}";
}
);
layerId = "6C046C9F-D66B-4CE6-B064-C5BDB7BD1C21";
shapes = (
{
closed = 1;
nodes = (
(78,0,l),
(78,1760,l),
(618,1760,ls),
(753,1760,o),
(891,1637,o),
(938,1416,o),
(938,1267,qs),
(938,1123,o),
(865,951,o),
(764,918,q),
(847,901,o),
(914,770,o),
(914,666,qs),
(914,0,l),
(567,0,l),
(567,689,ls),
(567,766,o),
(504,803,o),
(434,803,q),
(434,0,l)
);
},
{
closed = 1;
nodes = (
(436,1108,l),
(521,1108,ls),
(594,1108,o),
(594,1267,qs),
(594,1370,o),
(562,1434,o),
(518,1434,qs),
(436,1434,l)
);
},
{
closed = 1;
nodes = (
(108,1868,l),
(105,1888,o),
(105,1909,qs),
(105,2072,o),
(302,2220,o),
(477,2220,qs),
(657,2220,o),
(852,2069,o),
(852,1902,qs),
(852,1897,o),
(851,1878,o),
(850,1868,q),
(614,1868,l),
(614,1936,o),
(538,2002,o),
(479,2002,qs),
(421,2002,o),
(344,1936,o),
(344,1868,q)
);
}
);
width = 976;
}
);
unicode = 530;
},
{
glyphname = uni1E5E;
layers = (
{
anchors = (
{
name = m.uni032E;
position = "{515, -272}";
},
{
name = t.uni1DC7;
position = "{479, 1760}";
}
);
layerId = "6C046C9F-D66B-4CE6-B064-C5BDB7BD1C21";
shapes = (
{
closed = 1;
nodes = (
(78,0,l),
(78,1760,l),
(618,1760,ls),
(753,1760,o),
(891,1637,o),
(938,1416,o),
(938,1267,qs),
(938,1123,o),
(865,951,o),
(764,918,q),
(847,901,o),
(914,770,o),
(914,666,qs),
(914,0,l),
(567,0,l),
(567,689,ls),
(567,766,o),
(504,803,o),
(434,803,q),
(434,0,l)
);
},
{
closed = 1;
nodes = (
(436,1108,l),
(521,1108,ls),
(594,1108,o),
(594,1267,qs),
(594,1370,o),
(562,1434,o),
(518,1434,qs),
(436,1434,l)
);
},
{
closed = 1;
nodes = (
(190,-272,l),
(190,-119,l),
(840,-119,l),
(840,-272,l)
);
}
);
width = 976;
}
);
unicode = 7774;
},
{
glyphname = uni024C;
layers = (
{
anchors = (
{
name = m.uni032E;
position = "{515, 0}";
},
{
name = t.uni1DC7;
position = "{479, 1760}";
}
);
layerId = "6C046C9F-D66B-4CE6-B064-C5BDB7BD1C21";
shapes = (
{
closed = 1;
nodes = (
(78,0,l),
(78,843,l),
(0,843,l),
(0,1075,l),
(78,1075,l),
(78,1760,l),
(618,1760,ls),
(753,1760,o),
(891,1637,o),
(938,1416,o),
(938,1267,qs),
(938,1123,o),
(865,951,o),
(764,918,q),
(847,901,o),
(914,770,o),
(914,666,qs),
(914,0,l),
(567,0,l),
(567,689,ls),
(567,766,o),
(504,803,o),
(434,803,q),
(434,0,l)
);
},
{
closed = 1;
nodes = (
(436,1108,l),
(521,1108,ls),
(594,1108,o),
(594,1267,qs),
(594,1370,o),
(562,1434,o),
(518,1434,qs),
(436,1434,l)
);
}
);
width = 976;
}
);
unicode = 588;
},
{
glyphname = uni2C64;
layers = (
{
layerId = "6C046C9F-D66B-4CE6-B064-C5BDB7BD1C21";
shapes = (
{
closed = 1;
nodes = (
(504,-196,l),
(382,-196,o),
(189,-99,o),
(78,91,o),
(78,232,qs),
(78,1760,l),
(618,1760,ls),
(753,1760,o),
(891,1637,o),
(938,1416,o),
(938,1267,qs),
(938,1123,o),
(865,951,o),
(764,918,q),
(847,901,o),
(914,770,o),
(914,666,qs),
(914,0,l),
(567,0,l),
(567,689,ls),
(567,766,o),
(504,803,o),
(434,803,q),
(434,252,ls),
(434,167,o),
(474,120,o),
(504,120,q)
);
},
{
closed = 1;
nodes = (
(436,1108,l),
(521,1108,ls),
(594,1108,o),
(594,1267,qs),
(594,1370,o),
(562,1434,o),
(518,1434,qs),
(436,1434,l)
);
}
);
width = 976;
}
);
unicode = 11364;
},
{
glyphname = S;
layers = (
{
anchors = (
{
name = m.uni032E;
position = "{476, 0}";
},
{
name = t.uni1DC7;
position = "{468, 1760}";
}
);
layerId = "6C046C9F-D66B-4CE6-B064-C5BDB7BD1C21";
shapes = (
{
closed = 1;
nodes = (
(255,-16,o),
(42,224,o),
(42,486,qs),
(42,658,l),
(390,658,l),
(390,438,ls),
(390,377,o),
(427,308,o),
(473,308,qs),
(521,308,o),
(558,364,o),
(558,428,qs),
(558,509,o),
(526,618,o),
(447,717,o),
(377,783,qs),
(219,933,ls),
(42,1100,o),
(42,1315,qs),
(42,1540,o),
(251,1776,o),
(449,1776,qs),
(691,1776,o),
(894,1518,o),
(894,1255,q),
(536,1255,l),
(536,1376,ls),
(536,1412,o),
(495,1452,o),
(460,1452,qs),
(418,1452,o),
(379,1405,o),
(379,1368,qs),
(379,1331,o),
(419,1245,o),
(478,1189,qs),
(681,994,ls),
(742,936,o),
(844,807,o),
(906,636,o),
(906,513,qs),
(906,265,o),
(723,-16,o),
(496,-16,qs)
);
}
);
width = 945;
}
);
unicode = 83;
},
{
glyphname = Sacute;
layers = (
{
anchors = (
{
name = m.uni032E;
position = "{476, 0}";
},
{
name = t.uni1DC7;
position = "{468, 1760}";
}
);
layerId = "6C046C9F-D66B-4CE6-B064-C5BDB7BD1C21";
shapes = (
{
closed = 1;
nodes = (
(255,-16,o),
(42,224,o),
(42,486,qs),
(42,658,l),
(390,658,l),
(390,438,ls),
(390,377,o),
(427,308,o),
(473,308,qs),
(521,308,o),
(558,364,o),
(558,428,qs),
(558,509,o),
(526,618,o),
(447,717,o),
(377,783,qs),
(219,933,ls),
(42,1100,o),
(42,1315,qs),
(42,1540,o),
(251,1776,o),
(449,1776,qs),
(691,1776,o),
(894,1518,o),
(894,1255,q),
(536,1255,l),
(536,1376,ls),
(536,1412,o),
(495,1452,o),
(460,1452,qs),
(418,1452,o),
(379,1405,o),
(379,1368,qs),
(379,1331,o),
(419,1245,o),
(478,1189,qs),
(681,994,ls),
(742,936,o),
(844,807,o),
(906,636,o),
(906,513,qs),
(906,265,o),
(723,-16,o),
(496,-16,qs)
);
},
{
closed = 1;
nodes = (
(230,1813,l),
(230,2036,l),
(705,2254,l),
(705,1907,l)
);
}
);
width = 945;
}
);
unicode = 346;
},
{
glyphname = uni1E64;
layers = (
{
anchors = (
{
name = m.uni032E;
position = "{476, 0}";
},
{
name = t.uni1DC7;
position = "{468, 1760}";
}
);
layerId = "6C046C9F-D66B-4CE6-B064-C5BDB7BD1C21";
shapes = (
{
closed = 1;
nodes = (
(255,-16,o),
(42,224,o),
(42,486,qs),
(42,658,l),
(390,658,l),
(390,438,ls),
(390,377,o),
(427,308,o),
(473,308,qs),
(521,308,o),
(558,364,o),
(558,428,qs),
(558,509,o),
(526,618,o),
(447,717,o),
(377,783,qs),
(219,933,ls),
(42,1100,o),
(42,1315,qs),
(42,1540,o),
(251,1776,o),
(449,1776,qs),
(691,1776,o),
(894,1518,o),
(894,1255,q),
(536,1255,l),
(536,1376,ls),
(536,1412,o),
(495,1452,o),
(460,1452,qs),
(418,1452,o),
(379,1405,o),
(379,1368,qs),
(379,1331,o),
(419,1245,o),
(478,1189,qs),
(681,994,ls),
(742,936,o),
(844,807,o),
(906,636,o),
(906,513,qs),
(906,265,o),
(723,-16,o),
(496,-16,qs)
);
},
{
closed = 1;
nodes = (
(233,1792,l),
(233,1985,l),
(708,2153,l),
(708,1866,l)
);
},
{
closed = 1;
nodes = (
(291,2170,l),
(291,2428,l),
(649,2428,l),
(649,2170,l)
);
}
);
width = 945;
}
);
unicode = 7780;
},
{
glyphname = uniA78B;
layers = (
{
layerId = "6C046C9F-D66B-4CE6-B064-C5BDB7BD1C21";
shapes = (
{
closed = 1;
nodes = (
(125,479,l),
(55,1760,l),
(413,1760,l),
(343,479,l)
);
}
);
width = 469;
}
);
unicode = 42891;
},
{
glyphname = Scaron;
layers = (
{
anchors = (
{
name = m.uni032E;
position = "{476, 0}";
},
{
name = t.uni1DC7;
position = "{468, 1760}";
}
);
layerId = "6C046C9F-D66B-4CE6-B064-C5BDB7BD1C21";
shapes = (
{
closed = 1;
nodes = (
(255,-16,o),
(42,224,o),
(42,486,qs),
(42,658,l),
(390,658,l),
(390,438,ls),
(390,377,o),
(427,308,o),
(473,308,qs),
(521,308,o),
(558,364,o),
(558,428,qs),
(558,509,o),
(526,618,o),
(447,717,o),
(377,783,qs),
(219,933,ls),
(42,1100,o),
(42,1315,qs),
(42,1540,o),
(251,1776,o),
(449,1776,qs),
(691,1776,o),
(894,1518,o),
(894,1255,q),
(536,1255,l),
(536,1376,ls),
(536,1412,o),
(495,1452,o),
(460,1452,qs),
(418,1452,o),
(379,1405,o),
(379,1368,qs),
(379,1331,o),
(419,1245,o),
(478,1189,qs),
(681,994,ls),
(742,936,o),
(844,807,o),
(906,636,o),
(906,513,qs),
(906,265,o),
(723,-16,o),
(496,-16,qs)
);
},
{
closed = 1;
nodes = (
(264,1851,l),
(23,2254,l),
(382,2254,l),
(468,1969,l),
(554,2254,l),
(913,2254,l),
(672,1851,l)
);
}
);
width = 945;
}
);
unicode = 352;
},
{
glyphname = uni1E66;
layers = (
{
anchors = (
{
name = m.uni032E;
position = "{476, 0}";
},
{
name = t.uni1DC7;
position = "{468, 1760}";
}
);
layerId = "6C046C9F-D66B-4CE6-B064-C5BDB7BD1C21";
shapes = (
{
closed = 1;
nodes = (
(291,2125,l),
(291,2383,l),
(649,2383,l),
(649,2125,l)
);
},
{
closed = 1;
nodes = (
(324,1837,l),
(87,2092,l),
(372,2092,l),
(471,1956,l),
(570,2092,l),
(855,2092,l),
(618,1837,l)
);
},
{
closed = 1;
nodes = (
(255,-16,o),
(42,224,o),
(42,486,qs),
(42,658,l),
(390,658,l),
(390,438,ls),
(390,377,o),
(427,308,o),
(473,308,qs),
(521,308,o),
(558,364,o),
(558,428,qs),
(558,509,o),
(526,618,o),
(447,717,o),
(377,783,qs),
(219,933,ls),
(42,1100,o),
(42,1315,qs),
(42,1540,o),
(251,1776,o),
(449,1776,qs),
(691,1776,o),
(894,1518,o),
(894,1255,q),
(536,1255,l),
(536,1376,ls),
(536,1412,o),
(495,1452,o),
(460,1452,qs),
(418,1452,o),
(379,1405,o),
(379,1368,qs),
(379,1331,o),
(419,1245,o),
(478,1189,qs),
(681,994,ls),
(742,936,o),
(844,807,o),
(906,636,o),
(906,513,qs),
(906,265,o),
(723,-16,o),
(496,-16,qs)
);
}
);
width = 945;
}
);
unicode = 7782;
},
{
glyphname = uni018F;
layers = (
{
layerId = "6C046C9F-D66B-4CE6-B064-C5BDB7BD1C21";
shapes = (
{
closed = 1;
nodes = (
(375,-16,o),
(180,76,o),
(68,260,o),
(68,398,qs),
(68,890,l),
(583,890,l),
(583,1319,ls),
(583,1392,o),
(541,1452,o),
(500,1452,qs),
(455,1452,o),
(418,1378,o),
(418,1319,qs),
(418,1087,l),
(64,1087,l),
(64,1335,ls),
(64,1567,o),
(298,1776,o),
(508,1776,qs),
(699,1776,o),
(932,1538,o),
(932,1324,qs),
(932,512,ls),
(932,256,o),
(729,-16,o),
(500,-16,qs)
);
},
{
closed = 1;
nodes = (
(549,308,o),
(583,380,o),
(583,438,qs),
(583,620,l),
(418,620,l),
(418,442,ls),
(418,363,o),
(458,308,o),
(500,308,qs)
);
}
);
width = 1000;
}
);
unicode = 399;
},
{
glyphname = Scircumflex;
layers = (
{
anchors = (
{
name = m.uni032E;
position = "{476, 0}";
},
{
name = t.uni1DC7;
position = "{468, 1760}";
}
);
layerId = "6C046C9F-D66B-4CE6-B064-C5BDB7BD1C21";
shapes = (
{
closed = 1;
nodes = (
(255,-16,o),
(42,224,o),
(42,486,qs),
(42,658,l),
(390,658,l),
(390,438,ls),
(390,377,o),
(427,308,o),
(473,308,qs),
(521,308,o),
(558,364,o),
(558,428,qs),
(558,509,o),
(526,618,o),
(447,717,o),
(377,783,qs),
(219,933,ls),
(42,1100,o),
(42,1315,qs),
(42,1540,o),
(251,1776,o),
(449,1776,qs),
(691,1776,o),
(894,1518,o),
(894,1255,q),
(536,1255,l),
(536,1376,ls),
(536,1412,o),
(495,1452,o),
(460,1452,qs),
(418,1452,o),
(379,1405,o),
(379,1368,qs),
(379,1331,o),
(419,1245,o),
(478,1189,qs),
(681,994,ls),
(742,936,o),
(844,807,o),
(906,636,o),
(906,513,qs),
(906,265,o),
(723,-16,o),
(496,-16,qs)
);
},
{
closed = 1;
nodes = (
(23,1851,l),
(264,2254,l),
(672,2254,l),
(913,1851,l),
(554,1851,l),
(468,2136,l),
(382,1851,l)
);
}
);
width = 945;
}
);
unicode = 348;
},
{
glyphname = uni0218;
layers = (
{
anchors = (
{
name = m.uni032E;
position = "{463, -643}";
},
{
name = t.uni1DC7;
position = "{468, 1760}";
}
);
layerId = "6C046C9F-D66B-4CE6-B064-C5BDB7BD1C21";
shapes = (
{
closed = 1;
nodes = (
(255,-16,o),
(42,224,o),
(42,486,qs),
(42,658,l),
(390,658,l),
(390,438,ls),
(390,377,o),
(427,308,o),
(473,308,qs),
(521,308,o),
(558,364,o),
(558,428,qs),
(558,509,o),
(526,618,o),
(447,717,o),
(377,783,qs),
(219,933,ls),
(42,1100,o),
(42,1315,qs),
(42,1540,o),
(251,1776,o),
(449,1776,qs),
(691,1776,o),
(894,1518,o),
(894,1255,q),
(536,1255,l),
(536,1376,ls),
(536,1412,o),
(495,1452,o),
(460,1452,qs),
(418,1452,o),
(379,1405,o),
(379,1368,qs),
(379,1331,o),
(419,1245,o),
(478,1189,qs),
(681,994,ls),
(742,936,o),
(844,807,o),
(906,636,o),
(906,513,qs),
(906,265,o),
(723,-16,o),
(496,-16,qs)
);
},
{
closed = 1;
nodes = (
(337,-643,l),
(403,-407,l),
(276,-407,l),
(276,-109,l),
(650,-109,l),
(650,-398,l),
(548,-643,l)
);
}
);
width = 945;
}
);
unicode = 536;
},
{
glyphname = uni1E60;
layers = (
{
anchors = (
{
name = m.uni032E;
position = "{476, 0}";
},
{
name = t.uni1DC7;
position = "{468, 1760}";
}
);
layerId = "6C046C9F-D66B-4CE6-B064-C5BDB7BD1C21";
shapes = (
{
closed = 1;
nodes = (
(255,-16,o),
(42,224,o),
(42,486,qs),
(42,658,l),
(390,658,l),
(390,438,ls),
(390,377,o),
(427,308,o),
(473,308,qs),
(521,308,o),
(558,364,o),
(558,428,qs),
(558,509,o),
(526,618,o),
(447,717,o),
(377,783,qs),
(219,933,ls),
(42,1100,o),
(42,1315,qs),
(42,1540,o),
(251,1776,o),
(449,1776,qs),
(691,1776,o),
(894,1518,o),
(894,1255,q),
(536,1255,l),
(536,1376,ls),
(536,1412,o),
(495,1452,o),
(460,1452,qs),
(418,1452,o),
(379,1405,o),
(379,1368,qs),
(379,1331,o),
(419,1245,o),
(478,1189,qs),
(681,994,ls),
(742,936,o),
(844,807,o),
(906,636,o),
(906,513,qs),
(906,265,o),
(723,-16,o),
(496,-16,qs)
);
},
{
closed = 1;
nodes = (
(289,1852,l),
(289,2150,l),
(647,2150,l),
(647,1852,l)
);
}
);
width = 945;
}
);
unicode = 7776;
},
{
glyphname = uni1E62;
layers = (
{
anchors = (
{
name = m.uni032E;
position = "{476, 0}";
},
{
name = t.uni1DC7;
position = "{468, 1760}";
}
);
layerId = "6C046C9F-D66B-4CE6-B064-C5BDB7BD1C21";
shapes = (
{
closed = 1;
nodes = (
(255,-16,o),
(42,224,o),
(42,486,qs),
(42,658,l),
(390,658,l),
(390,438,ls),
(390,377,o),
(427,308,o),
(473,308,qs),
(521,308,o),
(558,364,o),
(558,428,qs),
(558,509,o),
(526,618,o),
(447,717,o),
(377,783,qs),
(219,933,ls),
(42,1100,o),
(42,1315,qs),
(42,1540,o),
(251,1776,o),
(449,1776,qs),
(691,1776,o),
(894,1518,o),
(894,1255,q),
(536,1255,l),
(536,1376,ls),
(536,1412,o),
(495,1452,o),
(460,1452,qs),
(418,1452,o),
(379,1405,o),
(379,1368,qs),
(379,1331,o),
(419,1245,o),
(478,1189,qs),
(681,994,ls),
(742,936,o),
(844,807,o),
(906,636,o),
(906,513,qs),
(906,265,o),
(723,-16,o),
(496,-16,qs)
);
},
{
closed = 1;
nodes = (
(297,-417,l),
(297,-119,l),
(655,-119,l),
(655,-417,l)
);
}
);
width = 945;
}
);
unicode = 7778;
},
{
glyphname = uni1E68;
layers = (
{
anchors = (
{
name = m.uni032E;
position = "{476, 0}";
},
{
name = t.uni1DC7;
position = "{468, 2150}";
}
);
layerId = "6C046C9F-D66B-4CE6-B064-C5BDB7BD1C21";
shapes = (
{
closed = 1;
nodes = (
(255,-16,o),
(42,224,o),
(42,486,qs),
(42,658,l),
(390,658,l),
(390,438,ls),
(390,377,o),
(427,308,o),
(473,308,qs),
(521,308,o),
(558,364,o),
(558,428,qs),
(558,509,o),
(526,618,o),
(447,717,o),
(377,783,qs),
(219,933,ls),
(42,1100,o),
(42,1315,qs),
(42,1540,o),
(251,1776,o),
(449,1776,qs),
(691,1776,o),
(894,1518,o),
(894,1255,q),
(536,1255,l),
(536,1376,ls),
(536,1412,o),
(495,1452,o),
(460,1452,qs),
(418,1452,o),
(379,1405,o),
(379,1368,qs),
(379,1331,o),
(419,1245,o),
(478,1189,qs),
(681,994,ls),
(742,936,o),
(844,807,o),
(906,636,o),
(906,513,qs),
(906,265,o),
(723,-16,o),
(496,-16,qs)
);
},
{
closed = 1;
nodes = (
(297,-417,l),
(297,-119,l),
(655,-119,l),
(655,-417,l)
);
},
{
closed = 1;
nodes = (
(289,1852,l),
(289,2150,l),
(647,2150,l),
(647,1852,l)
);
}
);
width = 945;
}
);
unicode = 7784;
},
{
glyphname = Sigma;
layers = (
{
layerId = "6C046C9F-D66B-4CE6-B064-C5BDB7BD1C21";
shapes = (
{
closed = 1;
nodes = (
(62,-119,l),
(62,149,l),
(399,822,l),
(62,1455,l),
(62,1760,l),
(779,1760,l),
(779,1444,l),
(387,1444,l),
(692,866,l),
(692,790,l),
(387,176,l),
(795,176,l),
(795,-119,l)
);
}
);
width = 836;
}
);
unicode = 931;
},
{
glyphname = uniA7A8;
layers = (
{
anchors = (
{
name = m.uni032E;
position = "{476, 0}";
},
{
name = t.uni1DC7;
position = "{468, 1760}";
}
);
layerId = "6C046C9F-D66B-4CE6-B064-C5BDB7BD1C21";
shapes = (
{
closed = 1;
nodes = (
(255,-16,o),
(42,224,o),
(42,486,qs),
(42,658,l),
(390,658,l),
(390,438,ls),
(390,377,o),
(427,308,o),
(473,308,qs),
(521,308,o),
(558,364,o),
(558,428,qs),
(558,509,o),
(526,618,o),
(447,717,o),
(377,783,qs),
(353,805,l),
(63,736,l),
(63,982,l),
(154,1004,l),
(42,1143,o),
(42,1315,qs),
(42,1540,o),
(251,1776,o),
(449,1776,qs),
(691,1776,o),
(894,1518,o),
(894,1255,q),
(536,1255,l),
(536,1376,ls),
(536,1412,o),
(495,1452,o),
(460,1452,qs),
(418,1452,o),
(379,1405,o),
(379,1368,qs),
(379,1331,o),
(419,1245,o),
(478,1189,qs),
(568,1103,l),
(875,1176,l),
(875,930,l),
(767,904,l),
(827,833,o),
(906,651,o),
(906,513,qs),
(906,265,o),
(723,-16,o),
(496,-16,qs)
);
}
);
width = 945;
}
);
unicode = 42920;
},
{
glyphname = T;
layers = (
{
anchors = (
{
name = m.uni032E;
position = "{405, 0}";
},
{
name = t.uni0304_2;
position = "{405, 883}";
},
{
name = t.uni1DC7;
position = "{405, 1760}";
}
);
layerId = "6C046C9F-D66B-4CE6-B064-C5BDB7BD1C21";
shapes = (
{
closed = 1;
nodes = (
(229,0,l),
(229,1422,l),
(20,1422,l),
(20,1760,l),
(790,1760,l),
(790,1422,l),
(581,1422,l),
(581,0,l)
);
}
);
width = 810;
}
);
leftKerningGroup = T2;
rightKerningGroup = T;
unicode = 84;
},
{
glyphname = Tbar;
layers = (
{
layerId = "6C046C9F-D66B-4CE6-B064-C5BDB7BD1C21";
shapes = (
{
closed = 1;
nodes = (
(790,1760,l),
(790,1422,l),
(581,1422,l),
(581,985,l),
(727,985,l),
(727,752,l),
(581,752,l),
(581,0,l),
(229,0,l),
(229,752,l),
(77,752,l),
(77,985,l),
(229,985,l),
(229,1422,l),
(20,1422,l),
(20,1760,l)
);
}
);
width = 810;
}
);
leftKerningGroup = T2;
rightKerningGroup = T;
unicode = 358;
},
{
glyphname = Tcaron;
layers = (
{
anchors = (
{
name = m.uni032E;
position = "{405, 0}";
},
{
name = t.uni0304_2;
position = "{405, 883}";
},
{
name = t.uni1DC7;
position = "{405, 1760}";
}
);
layerId = "6C046C9F-D66B-4CE6-B064-C5BDB7BD1C21";
shapes = (
{
closed = 1;
nodes = (
(229,0,l),
(229,1422,l),
(20,1422,l),
(20,1760,l),
(790,1760,l),
(790,1422,l),
(581,1422,l),
(581,0,l)
);
},
{
closed = 1;
nodes = (
(201,1851,l),
(-40,2254,l),
(319,2254,l),
(405,1969,l),
(491,2254,l),
(850,2254,l),
(609,1851,l)
);
}
);
width = 810;
}
);
leftKerningGroup = T2;
rightKerningGroup = T;
unicode = 356;
},
{
glyphname = uni0162;
layers = (
{
anchors = (
{
name = m.uni032E;
position = "{405, 0}";
},
{
name = t.uni0304_2;
position = "{405, 883}";
},
{
name = t.uni1DC7;
position = "{405, 1760}";
}
);
layerId = "6C046C9F-D66B-4CE6-B064-C5BDB7BD1C21";
shapes = (
{
closed = 1;
nodes = (
(229,0,l),
(229,1422,l),
(20,1422,l),
(20,1760,l),
(790,1760,l),
(790,1422,l),
(581,1422,l),
(581,0,l)
);
},
{
closed = 1;
nodes = (
(273,-631,o),
(178,-591,q),
(178,-368,l),
(209,-378,o),
(269,-391,o),
(296,-391,qs),
(346,-391,o),
(413,-338,o),
(413,-273,qs),
(413,-217,o),
(358,-73,o),
(309,0,q),
(470,0,l),
(567,-85,o),
(674,-294,o),
(674,-387,qs),
(674,-490,o),
(532,-631,o),
(376,-631,qs)
);
}
);
width = 810;
}
);
leftKerningGroup = T2;
rightKerningGroup = T;
unicode = 354;
},
{
glyphname = uni1E70;
layers = (
{
anchors = (
{
name = m.uni032E;
position = "{405, -505}";
},
{
name = t.uni0304_2;
position = "{405, 883}";
},
{
name = t.uni1DC7;
position = "{405, 1760}";
}
);
layerId = "6C046C9F-D66B-4CE6-B064-C5BDB7BD1C21";
shapes = (
{
closed = 1;
nodes = (
(229,0,l),
(229,1422,l),
(20,1422,l),
(20,1760,l),
(790,1760,l),
(790,1422,l),
(581,1422,l),
(581,0,l)
);
},
{
closed = 1;
nodes = (
(-40,-512,l),
(201,-109,l),
(609,-109,l),
(850,-512,l),
(491,-512,l),
(405,-227,l),
(319,-512,l)
);
}
);
width = 810;
}
);
leftKerningGroup = T2;
rightKerningGroup = T;
unicode = 7792;
},
{
glyphname = uni021A;
layers = (
{
anchors = (
{
name = m.uni032E;
position = "{412, -643}";
},
{
name = t.uni0304_2;
position = "{405, 883}";
},
{
name = t.uni1DC7;
position = "{405, 1760}";
}
);
layerId = "6C046C9F-D66B-4CE6-B064-C5BDB7BD1C21";
shapes = (
{
closed = 1;
nodes = (
(229,0,l),
(229,1422,l),
(20,1422,l),
(20,1760,l),
(790,1760,l),
(790,1422,l),
(581,1422,l),
(581,0,l)
);
},
{
closed = 1;
nodes = (
(286,-643,l),
(352,-407,l),
(225,-407,l),
(225,-109,l),
(599,-109,l),
(599,-398,l),
(497,-643,l)
);
}
);
width = 810;
}
);
leftKerningGroup = T2;
rightKerningGroup = T;
unicode = 538;
},
{
glyphname = uni023E;
layers = (
{
anchors = (
{
name = m.uni032E;
position = "{405, 0}";
},
{
name = t.uni0304_2;
position = "{405, 883}";
},
{
name = t.uni1DC7;
position = "{405, 1760}";
}
);
layerId = "6C046C9F-D66B-4CE6-B064-C5BDB7BD1C21";
shapes = (
{
closed = 1;
nodes = (
(6,-186,l),
(226,666,l),
(229,666,l),
(229,1422,l),
(20,1422,l),
(20,1760,l),
(557,1760,l),
(619,2000,l),
(759,2000,l),
(697,1760,l),
(790,1760,l),
(790,1422,l),
(581,1422,l),
(581,0,l),
(229,0,l),
(229,135,l),
(146,-186,l)
);
}
);
width = 810;
}
);
leftKerningGroup = T2;
rightKerningGroup = T;
unicode = 574;
},
{
glyphname = uni1E6A;
layers = (
{
anchors = (
{
name = m.uni032E;
position = "{405, 0}";
},
{
name = t.uni0304_2;
position = "{405, 883}";
},
{
name = t.uni1DC7;
position = "{405, 1760}";
}
);
layerId = "6C046C9F-D66B-4CE6-B064-C5BDB7BD1C21";
shapes = (
{
closed = 1;
nodes = (
(229,0,l),
(229,1422,l),
(20,1422,l),
(20,1760,l),
(790,1760,l),
(790,1422,l),
(581,1422,l),
(581,0,l)
);
},
{
closed = 1;
nodes = (
(226,1852,l),
(226,2150,l),
(584,2150,l),
(584,1852,l)
);
}
);
width = 810;
}
);
leftKerningGroup = T2;
rightKerningGroup = T;
unicode = 7786;
},
{
glyphname = uni1E6C;
layers = (
{
anchors = (
{
name = m.uni032E;
position = "{405, 0}";
},
{
name = t.uni0304_2;
position = "{405, 883}";
},
{
name = t.uni1DC7;
position = "{405, 1760}";
}
);
layerId = "6C046C9F-D66B-4CE6-B064-C5BDB7BD1C21";
shapes = (
{
closed = 1;
nodes = (
(229,0,l),
(229,1422,l),
(20,1422,l),
(20,1760,l),
(790,1760,l),
(790,1422,l),
(581,1422,l),
(581,0,l)
);
},
{
closed = 1;
nodes = (
(226,-417,l),
(226,-119,l),
(584,-119,l),
(584,-417,l)
);
}
);
width = 810;
}
);
leftKerningGroup = T2;
rightKerningGroup = T;
unicode = 7788;
},
{
glyphname = uni01AC;
layers = (
{
layerId = "6C046C9F-D66B-4CE6-B064-C5BDB7BD1C21";
shapes = (
{
closed = 1;
nodes = (
(419,0,l),
(419,1422,l),
(418,1422,l),
(358,1422,o),
(302,1350,o),
(302,1270,qs),
(302,1252,l),
(-5,1252,l),
(-5,1312,ls),
(-5,1443,o),
(88,1645,o),
(275,1760,o),
(416,1760,qs),
(980,1760,l),
(980,1422,l),
(771,1422,l),
(771,0,l)
);
}
);
width = 1000;
}
);
rightKerningGroup = T;
unicode = 428;
},
{
glyphname = Thorn;
layers = (
{
layerId = "6C046C9F-D66B-4CE6-B064-C5BDB7BD1C21";
shapes = (
{
closed = 1;
nodes = (
(62,0,l),
(62,1760,l),
(407,1760,l),
(407,1516,l),
(527,1516,ls),
(681,1516,o),
(851,1377,o),
(918,1132,o),
(918,973,qs),
(918,820,o),
(862,576,o),
(704,434,o),
(551,434,qs),
(408,434,l),
(408,0,l)
);
},
{
closed = 1;
nodes = (
(408,721,l),
(428,721,ls),
(510,721,o),
(570,819,o),
(570,967,qs),
(570,1044,o),
(556,1161,o),
(505,1226,o),
(447,1226,qs),
(408,1226,l)
);
}
);
width = 947;
}
);
unicode = 222;
},
{
glyphname = uni1E6E;
layers = (
{
anchors = (
{
name = m.uni032E;
position = "{405, -272}";
},
{
name = t.uni0304_2;
position = "{405, 883}";
},
{
name = t.uni1DC7;
position = "{405, 1760}";
}
);
layerId = "6C046C9F-D66B-4CE6-B064-C5BDB7BD1C21";
shapes = (
{
closed = 1;
nodes = (
(229,0,l),
(229,1422,l),
(20,1422,l),
(20,1760,l),
(790,1760,l),
(790,1422,l),
(581,1422,l),
(581,0,l)
);
},
{
closed = 1;
nodes = (
(80,-272,l),
(80,-119,l),
(730,-119,l),
(730,-272,l)
);
}
);
width = 810;
}
);
leftKerningGroup = T2;
rightKerningGroup = T;
unicode = 7790;
},
{
glyphname = uni01AE;
layers = (
{
layerId = "6C046C9F-D66B-4CE6-B064-C5BDB7BD1C21";
shapes = (
{
closed = 1;
nodes = (
(651,-196,l),
(467,-196,o),
(229,21,o),
(229,232,qs),
(229,1422,l),
(20,1422,l),
(20,1760,l),
(790,1760,l),
(790,1422,l),
(581,1422,l),
(581,252,ls),
(581,167,o),
(621,120,o),
(651,120,q)
);
}
);
width = 810;
}
);
leftKerningGroup = T2;
rightKerningGroup = T;
unicode = 430;
},
{
glyphname = U;
layers = (
{
anchors = (
{
name = m.uni0328_3;
position = "{507, 0}";
},
{
name = m.uni032E;
position = "{485, 0}";
},
{
name = t.uni0304;
position = "{485, 1760}";
},
{
name = t.uni1DC7;
position = "{485, 1760}";
}
);
layerId = "6C046C9F-D66B-4CE6-B064-C5BDB7BD1C21";
shapes = (
{
closed = 1;
nodes = (
(265,-16,o),
(57,231,o),
(57,471,qs),
(57,1760,l),
(399,1760,l),
(399,485,ls),
(399,441,o),
(409,360,o),
(445,308,o),
(485,308,qs),
(526,308,o),
(562,359,o),
(571,441,o),
(571,485,qs),
(571,1760,l),
(913,1760,l),
(913,471,ls),
(913,231,o),
(705,-16,o),
(485,-16,qs)
);
}
);
width = 970;
}
);
unicode = 85;
},
{
glyphname = Uacute;
layers = (
{
anchors = (
{
name = m.uni0328_3;
position = "{507, 0}";
},
{
name = m.uni032E;
position = "{485, 0}";
},
{
name = t.uni0304;
position = "{485, 1760}";
},
{
name = t.uni1DC7;
position = "{485, 1760}";
}
);
layerId = "6C046C9F-D66B-4CE6-B064-C5BDB7BD1C21";
shapes = (
{
closed = 1;
nodes = (
(265,-16,o),
(57,231,o),
(57,471,qs),
(57,1760,l),
(399,1760,l),
(399,485,ls),
(399,441,o),
(409,360,o),
(445,308,o),
(485,308,qs),
(526,308,o),
(562,359,o),
(571,441,o),
(571,485,qs),
(571,1760,l),
(913,1760,l),
(913,471,ls),
(913,231,o),
(705,-16,o),
(485,-16,qs)
);
},
{
closed = 1;
nodes = (
(247,1813,l),
(247,2036,l),
(722,2254,l),
(722,1907,l)
);
}
);
width = 970;
}
);
unicode = 218;
},
{
glyphname = uni0244;
layers = (
{
anchors = (
{
name = m.uni0328_3;
position = "{542, 0}";
},
{
name = m.uni032E;
position = "{520, 0}";
},
{
name = t.uni0304;
position = "{520, 1760}";
},
{
name = t.uni1DC7;
position = "{520, 1760}";
}
);
layerId = "6C046C9F-D66B-4CE6-B064-C5BDB7BD1C21";
shapes = (
{
closed = 1;
nodes = (
(300,-16,o),
(92,231,o),
(92,471,qs),
(92,912,l),
(-10,912,l),
(-10,1132,l),
(92,1132,l),
(92,1760,l),
(434,1760,l),
(434,1132,l),
(606,1132,l),
(606,1760,l),
(948,1760,l),
(948,1132,l),
(1050,1132,l),
(1050,912,l),
(948,912,l),
(948,471,ls),
(948,231,o),
(740,-16,o),
(520,-16,qs)
);
},
{
closed = 1;
nodes = (
(434,485,ls),
(434,441,o),
(444,360,o),
(480,308,o),
(520,308,qs),
(561,308,o),
(597,359,o),
(606,441,o),
(606,485,qs),
(606,912,l),
(434,912,l)
);
}
);
width = 1040;
}
);
unicode = 580;
},
{
glyphname = Ubreve;
layers = (
{
anchors = (
{
name = m.uni0328_3;
position = "{507, 0}";
},
{
name = m.uni032E;
position = "{485, 0}";
},
{
name = t.uni0304;
position = "{485, 1760}";
},
{
name = t.uni1DC7;
position = "{485, 1760}";
}
);
layerId = "6C046C9F-D66B-4CE6-B064-C5BDB7BD1C21";
shapes = (
{
closed = 1;
nodes = (
(265,-16,o),
(57,231,o),
(57,471,qs),
(57,1760,l),
(399,1760,l),
(399,485,ls),
(399,441,o),
(409,360,o),
(445,308,o),
(485,308,qs),
(526,308,o),
(562,359,o),
(571,441,o),
(571,485,qs),
(571,1760,l),
(913,1760,l),
(913,471,ls),
(913,231,o),
(705,-16,o),
(485,-16,qs)
);
},
{
closed = 1;
nodes = (
(313,1852,o),
(96,2000,o),
(96,2163,qs),
(96,2184,o),
(99,2205,q),
(355,2205,l),
(355,2148,o),
(413,2089,o),
(490,2089,qs),
(567,2089,o),
(625,2148,o),
(625,2205,q),
(881,2205,l),
(882,2195,o),
(883,2175,o),
(883,2170,qs),
(883,2003,o),
(668,1852,o),
(488,1852,qs)
);
}
);
width = 970;
}
);
unicode = 364;
},
{
glyphname = Ucircumflex;
layers = (
{
anchors = (
{
name = m.uni0328_3;
position = "{507, 0}";
},
{
name = m.uni032E;
position = "{485, 0}";
},
{
name = t.uni0304;
position = "{485, 1760}";
},
{
name = t.uni1DC7;
position = "{485, 1760}";
}
);
layerId = "6C046C9F-D66B-4CE6-B064-C5BDB7BD1C21";
shapes = (
{
closed = 1;
nodes = (
(265,-16,o),
(57,231,o),
(57,471,qs),
(57,1760,l),
(399,1760,l),
(399,485,ls),
(399,441,o),
(409,360,o),
(445,308,o),
(485,308,qs),
(526,308,o),
(562,359,o),
(571,441,o),
(571,485,qs),
(571,1760,l),
(913,1760,l),
(913,471,ls),
(913,231,o),
(705,-16,o),
(485,-16,qs)
);
},
{
closed = 1;
nodes = (
(40,1851,l),
(281,2254,l),
(689,2254,l),
(930,1851,l),
(571,1851,l),
(485,2136,l),
(399,1851,l)
);
}
);
width = 970;
}
);
unicode = 219;
},
{
glyphname = uni0214;
layers = (
{
anchors = (
{
name = m.uni0328_3;
position = "{507, 0}";
},
{
name = m.uni032E;
position = "{485, 0}";
},
{
name = t.uni0304;
position = "{485, 1760}";
},
{
name = t.uni1DC7;
position = "{485, 1760}";
}
);
layerId = "6C046C9F-D66B-4CE6-B064-C5BDB7BD1C21";
shapes = (
{
closed = 1;
nodes = (
(265,-16,o),
(57,231,o),
(57,471,qs),
(57,1760,l),
(399,1760,l),
(399,485,ls),
(399,441,o),
(409,360,o),
(445,308,o),
(485,308,qs),
(526,308,o),
(562,359,o),
(571,441,o),
(571,485,qs),
(571,1760,l),
(913,1760,l),
(913,471,ls),
(913,231,o),
(705,-16,o),
(485,-16,qs)
);
},
{
closed = 1;
nodes = (
(288,1846,l),
(-1,2275,l),
(233,2383,l),
(454,1904,l)
);
},
{
closed = 1;
nodes = (
(590,1846,l),
(342,2275,l),
(572,2383,l),
(756,1904,l)
);
}
);
width = 970;
}
);
unicode = 532;
},
{
glyphname = Udieresis;
layers = (
{
anchors = (
{
name = m.uni0328_3;
position = "{507, 0}";
},
{
name = m.uni032E;
position = "{485, 0}";
},
{
name = t.uni0304;
position = "{485, 1760}";
},
{
name = t.uni1DC7;
position = "{485, 1760}";
}
);
layerId = "6C046C9F-D66B-4CE6-B064-C5BDB7BD1C21";
shapes = (
{
closed = 1;
nodes = (
(265,-16,o),
(57,231,o),
(57,471,qs),
(57,1760,l),
(399,1760,l),
(399,485,ls),
(399,441,o),
(409,360,o),
(445,308,o),
(485,308,qs),
(526,308,o),
(562,359,o),
(571,441,o),
(571,485,qs),
(571,1760,l),
(913,1760,l),
(913,471,ls),
(913,231,o),
(705,-16,o),
(485,-16,qs)
);
},
{
closed = 1;
nodes = (
(541,1859,l),
(541,2157,l),
(899,2157,l),
(899,1859,l)
);
},
{
closed = 1;
nodes = (
(57,1859,l),
(57,2157,l),
(415,2157,l),
(415,1859,l)
);
}
);
width = 970;
}
);
unicode = 220;
},
{
glyphname = uni01D9;
layers = (
{
anchors = (
{
name = m.uni0328_3;
position = "{507, 0}";
},
{
name = m.uni032E;
position = "{485, 0}";
},
{
name = t.uni0304;
position = "{485, 2155}";
},
{
name = t.uni1DC7;
position = "{485, 1760}";
}
);
layerId = "6C046C9F-D66B-4CE6-B064-C5BDB7BD1C21";
shapes = (
{
closed = 1;
nodes = (
(338,2204,l),
(101,2459,l),
(386,2459,l),
(485,2323,l),
(584,2459,l),
(869,2459,l),
(632,2204,l)
);
},
{
closed = 1;
nodes = (
(548,1857,l),
(548,2105,l),
(906,2105,l),
(906,1857,l)
);
},
{
closed = 1;
nodes = (
(64,1857,l),
(64,2105,l),
(422,2105,l),
(422,1857,l)
);
},
{
closed = 1;
nodes = (
(265,-16,o),
(57,231,o),
(57,471,qs),
(57,1760,l),
(399,1760,l),
(399,485,ls),
(399,441,o),
(409,360,o),
(445,308,o),
(485,308,qs),
(526,308,o),
(562,359,o),
(571,441,o),
(571,485,qs),
(571,1760,l),
(913,1760,l),
(913,471,ls),
(913,231,o),
(705,-16,o),
(485,-16,qs)
);
}
);
width = 970;
}
);
unicode = 473;
},
{
glyphname = uni1EE4;
layers = (
{
anchors = (
{
name = m.uni0328_3;
position = "{507, 0}";
},
{
name = m.uni032E;
position = "{485, 0}";
},
{
name = t.uni0304;
position = "{485, 1760}";
},
{
name = t.uni1DC7;
position = "{485, 1760}";
}
);
layerId = "6C046C9F-D66B-4CE6-B064-C5BDB7BD1C21";
shapes = (
{
closed = 1;
nodes = (
(265,-16,o),
(57,231,o),
(57,471,qs),
(57,1760,l),
(399,1760,l),
(399,485,ls),
(399,441,o),
(409,360,o),
(445,308,o),
(485,308,qs),
(526,308,o),
(562,359,o),
(571,441,o),
(571,485,qs),
(571,1760,l),
(913,1760,l),
(913,471,ls),
(913,231,o),
(705,-16,o),
(485,-16,qs)
);
},
{
closed = 1;
nodes = (
(306,-417,l),
(306,-119,l),
(664,-119,l),
(664,-417,l)
);
}
);
width = 970;
}
);
unicode = 7908;
},
{
glyphname = Ugrave;
layers = (
{
anchors = (
{
name = m.uni0328_3;
position = "{507, 0}";
},
{
name = m.uni032E;
position = "{485, 0}";
},
{
name = t.uni0304;
position = "{485, 1760}";
},
{
name = t.uni1DC7;
position = "{485, 1760}";
}
);
layerId = "6C046C9F-D66B-4CE6-B064-C5BDB7BD1C21";
shapes = (
{
closed = 1;
nodes = (
(265,-16,o),
(57,231,o),
(57,471,qs),
(57,1760,l),
(399,1760,l),
(399,485,ls),
(399,441,o),
(409,360,o),
(445,308,o),
(485,308,qs),
(526,308,o),
(562,359,o),
(571,441,o),
(571,485,qs),
(571,1760,l),
(913,1760,l),
(913,471,ls),
(913,231,o),
(705,-16,o),
(485,-16,qs)
);
},
{
closed = 1;
nodes = (
(722,1813,l),
(247,1907,l),
(247,2254,l),
(722,2036,l)
);
}
);
width = 970;
}
);
unicode = 217;
},
{
glyphname = Uhorn;
layers = (
{
anchors = (
{
name = m.uni0328_3;
position = "{507, 0}";
},
{
name = m.uni032E;
position = "{485, 0}";
},
{
name = t.uni0304;
position = "{485, 1760}";
}
);
layerId = "6C046C9F-D66B-4CE6-B064-C5BDB7BD1C21";
shapes = (
{
closed = 1;
nodes = (
(265,-16,o),
(57,231,o),
(57,471,qs),
(57,1760,l),
(399,1760,l),
(399,485,ls),
(399,441,o),
(409,360,o),
(445,308,o),
(485,308,qs),
(526,308,o),
(562,359,o),
(571,441,o),
(571,485,qs),
(571,1760,l),
(700,1760,ls),
(815,1760,o),
(815,1885,qs),
(815,1908,l),
(1093,1908,l),
(1093,1893,ls),
(1093,1762,o),
(993,1610,o),
(913,1577,q),
(913,471,ls),
(913,231,o),
(705,-16,o),
(485,-16,qs)
);
}
);
width = 1083;
}
);
unicode = 431;
},
{
glyphname = uni1EE8;
layers = (
{
anchors = (
{
name = m.uni0328_3;
position = "{507, 0}";
},
{
name = m.uni032E;
position = "{485, 0}";
},
{
name = t.uni0304;
position = "{485, 2133}";
}
);
layerId = "6C046C9F-D66B-4CE6-B064-C5BDB7BD1C21";
shapes = (
{
closed = 1;
nodes = (
(265,-16,o),
(57,231,o),
(57,471,qs),
(57,1760,l),
(399,1760,l),
(399,485,ls),
(399,441,o),
(409,360,o),
(445,308,o),
(485,308,qs),
(526,308,o),
(562,359,o),
(571,441,o),
(571,485,qs),
(571,1760,l),
(700,1760,ls),
(815,1760,o),
(815,1885,qs),
(815,1908,l),
(1093,1908,l),
(1093,1893,ls),
(1093,1762,o),
(993,1610,o),
(913,1577,q),
(913,471,ls),
(913,231,o),
(705,-16,o),
(485,-16,qs)
);
},
{
closed = 1;
nodes = (
(248,1797,l),
(248,1990,l),
(723,2158,l),
(723,1871,l)
);
}
);
width = 1083;
}
);
unicode = 7912;
},
{
glyphname = uni1EF0;
layers = (
{
anchors = (
{
name = m.uni0328_3;
position = "{507, 0}";
},
{
name = m.uni032E;
position = "{485, 0}";
},
{
name = t.uni0304;
position = "{485, 1760}";
}
);
layerId = "6C046C9F-D66B-4CE6-B064-C5BDB7BD1C21";
shapes = (
{
closed = 1;
nodes = (
(265,-16,o),
(57,231,o),
(57,471,qs),
(57,1760,l),
(399,1760,l),
(399,485,ls),
(399,441,o),
(409,360,o),
(445,308,o),
(485,308,qs),
(526,308,o),
(562,359,o),
(571,441,o),
(571,485,qs),
(571,1760,l),
(700,1760,ls),
(815,1760,o),
(815,1885,qs),
(815,1908,l),
(1093,1908,l),
(1093,1893,ls),
(1093,1762,o),
(993,1610,o),
(913,1577,q),
(913,471,ls),
(913,231,o),
(705,-16,o),
(485,-16,qs)
);
},
{
closed = 1;
nodes = (
(306,-417,l),
(306,-119,l),
(664,-119,l),
(664,-417,l)
);
}
);
width = 1083;
}
);
unicode = 7920;
},
{
glyphname = uni1EEA;
layers = (
{
anchors = (
{
name = m.uni0328_3;
position = "{507, 0}";
},
{
name = m.uni032E;
position = "{485, 0}";
},
{
name = t.uni0304;
position = "{484, 2124}";
}
);
layerId = "6C046C9F-D66B-4CE6-B064-C5BDB7BD1C21";
shapes = (
{
closed = 1;
nodes = (
(265,-16,o),
(57,231,o),
(57,471,qs),
(57,1760,l),
(399,1760,l),
(399,485,ls),
(399,441,o),
(409,360,o),
(445,308,o),
(485,308,qs),
(526,308,o),
(562,359,o),
(571,441,o),
(571,485,qs),
(571,1760,l),
(700,1760,ls),
(815,1760,o),
(815,1885,qs),
(815,1908,l),
(1093,1908,l),
(1093,1893,ls),
(1093,1762,o),
(993,1610,o),
(913,1577,q),
(913,471,ls),
(913,231,o),
(705,-16,o),
(485,-16,qs)
);
},
{
closed = 1;
nodes = (
(722,1797,l),
(247,1871,l),
(247,2158,l),
(722,1990,l)
);
}
);
width = 1083;
}
);
unicode = 7914;
},
{
glyphname = uni1EEC;
layers = (
{
anchors = (
{
name = m.uni0328_3;
position = "{507, 0}";
},
{
name = m.uni032E;
position = "{485, 0}";
},
{
name = t.uni0304;
position = "{539, 2450}";
}
);
layerId = "6C046C9F-D66B-4CE6-B064-C5BDB7BD1C21";
shapes = (
{
closed = 1;
nodes = (
(265,-16,o),
(57,231,o),
(57,471,qs),
(57,1760,l),
(399,1760,l),
(399,485,ls),
(399,441,o),
(409,360,o),
(445,308,o),
(485,308,qs),
(526,308,o),
(562,359,o),
(571,441,o),
(571,485,qs),
(571,1760,l),
(700,1760,ls),
(815,1760,o),
(815,1885,qs),
(815,1908,l),
(1093,1908,l),
(1093,1893,ls),
(1093,1762,o),
(993,1610,o),
(913,1577,q),
(913,471,ls),
(913,231,o),
(705,-16,o),
(485,-16,qs)
);
},
{
closed = 1;
nodes = (
(350,1961,l),
(404,1981,o),
(470,2041,o),
(470,2091,qs),
(470,2186,o),
(369,2186,qs),
(322,2186,o),
(279,2170,q),
(279,2350,l),
(367,2383,o),
(462,2383,qs),
(587,2383,o),
(728,2258,o),
(728,2145,qs),
(728,2018,o),
(572,1873,o),
(456,1837,q)
);
}
);
width = 1083;
}
);
unicode = 7916;
},
{
glyphname = uni1EEE;
layers = (
{
anchors = (
{
name = m.uni0328_3;
position = "{507, 0}";
},
{
name = m.uni032E;
position = "{485, 0}";
},
{
name = t.uni0304;
position = "{485, 1760}";
}
);
layerId = "6C046C9F-D66B-4CE6-B064-C5BDB7BD1C21";
shapes = (
{
closed = 1;
nodes = (
(526,1841,o),
(428,1887,o),
(353,1932,o),
(312,1932,qs),
(286,1932,o),
(240,1902,o),
(220,1864,q),
(72,1942,l),
(97,1997,o),
(156,2089,o),
(247,2145,o),
(319,2145,qs),
(390,2145,o),
(481,2103,o),
(551,2061,o),
(589,2061,qs),
(616,2061,o),
(662,2095,o),
(682,2136,q),
(848,2082,l),
(824,2020,o),
(766,1909,o),
(675,1841,o),
(600,1841,qs)
);
},
{
closed = 1;
nodes = (
(265,-16,o),
(57,231,o),
(57,471,qs),
(57,1760,l),
(399,1760,l),
(399,485,ls),
(399,441,o),
(409,360,o),
(445,308,o),
(485,308,qs),
(526,308,o),
(562,359,o),
(571,441,o),
(571,485,qs),
(571,1760,l),
(700,1760,ls),
(815,1760,o),
(815,1885,qs),
(815,1908,l),
(1093,1908,l),
(1093,1893,ls),
(1093,1762,o),
(993,1610,o),
(913,1577,q),
(913,471,ls),
(913,231,o),
(705,-16,o),
(485,-16,qs)
);
}
);
width = 1083;
}
);
unicode = 7918;
},
{
glyphname = Uhungarumlaut;
layers = (
{
anchors = (
{
name = m.uni0328_3;
position = "{507, 0}";
},
{
name = m.uni032E;
position = "{485, 0}";
},
{
name = t.uni0304;
position = "{485, 1760}";
},
{
name = t.uni1DC7;
position = "{485, 1760}";
}
);
layerId = "6C046C9F-D66B-4CE6-B064-C5BDB7BD1C21";
shapes = (
{
closed = 1;
nodes = (
(265,-16,o),
(57,231,o),
(57,471,qs),
(57,1760,l),
(399,1760,l),
(399,485,ls),
(399,441,o),
(409,360,o),
(445,308,o),
(485,308,qs),
(526,308,o),
(562,359,o),
(571,441,o),
(571,485,qs),
(571,1760,l),
(913,1760,l),
(913,471,ls),
(913,231,o),
(705,-16,o),
(485,-16,qs)
);
},
{
closed = 1;
nodes = (
(714,1866,l),
(548,1924,l),
(769,2403,l),
(1003,2295,l)
);
},
{
closed = 1;
nodes = (
(412,1866,l),
(246,1924,l),
(430,2403,l),
(660,2295,l)
);
}
);
width = 970;
}
);
unicode = 368;
},
{
glyphname = uni0216;
layers = (
{
anchors = (
{
name = m.uni0328_3;
position = "{507, 0}";
},
{
name = m.uni032E;
position = "{485, 0}";
},
{
name = t.uni0304;
position = "{485, 1760}";
},
{
name = t.uni1DC7;
position = "{484, 2220}";
}
);
layerId = "6C046C9F-D66B-4CE6-B064-C5BDB7BD1C21";
shapes = (
{
closed = 1;
nodes = (
(265,-16,o),
(57,231,o),
(57,471,qs),
(57,1760,l),
(399,1760,l),
(399,485,ls),
(399,441,o),
(409,360,o),
(445,308,o),
(485,308,qs),
(526,308,o),
(562,359,o),
(571,441,o),
(571,485,qs),
(571,1760,l),
(913,1760,l),
(913,471,ls),
(913,231,o),
(705,-16,o),
(485,-16,qs)
);
},
{
closed = 1;
nodes = (
(114,1868,l),
(111,1888,o),
(111,1909,qs),
(111,2072,o),
(308,2220,o),
(483,2220,qs),
(663,2220,o),
(858,2069,o),
(858,1902,qs),
(858,1897,o),
(857,1878,o),
(856,1868,q),
(620,1868,l),
(620,1936,o),
(544,2002,o),
(485,2002,qs),
(427,2002,o),
(350,1936,o),
(350,1868,q)
);
}
);
width = 970;
}
);
unicode = 534;
},
{
glyphname = Umacron;
layers = (
{
anchors = (
{
name = m.uni0328_3;
position = "{507, 0}";
},
{
name = m.uni032E;
position = "{485, 0}";
},
{
name = t.uni0304;
position = "{485, 1760}";
},
{
name = t.uni1DC7;
position = "{485, 1760}";
}
);
layerId = "6C046C9F-D66B-4CE6-B064-C5BDB7BD1C21";
shapes = (
{
closed = 1;
nodes = (
(265,-16,o),
(57,231,o),
(57,471,qs),
(57,1760,l),
(399,1760,l),
(399,485,ls),
(399,441,o),
(409,360,o),
(445,308,o),
(485,308,qs),
(526,308,o),
(562,359,o),
(571,441,o),
(571,485,qs),
(571,1760,l),
(913,1760,l),
(913,471,ls),
(913,231,o),
(705,-16,o),
(485,-16,qs)
);
},
{
closed = 1;
nodes = (
(156,1879,l),
(156,2032,l),
(806,2032,l),
(806,1879,l)
);
}
);
width = 970;
}
);
unicode = 362;
},
{
glyphname = uni1E7A;
layers = (
{
anchors = (
{
name = m.uni0328_3;
position = "{507, 0}";
},
{
name = m.uni032E;
position = "{485, 0}";
},
{
name = t.uni0304;
position = "{485, 2427}";
},
{
name = t.uni1DC7;
position = "{485, 2028}";
}
);
layerId = "6C046C9F-D66B-4CE6-B064-C5BDB7BD1C21";
shapes = (
{
closed = 1;
nodes = (
(265,-16,o),
(57,231,o),
(57,471,qs),
(57,1760,l),
(399,1760,l),
(399,485,ls),
(399,441,o),
(409,360,o),
(445,308,o),
(485,308,qs),
(526,308,o),
(562,359,o),
(571,441,o),
(571,485,qs),
(571,1760,l),
(913,1760,l),
(913,471,ls),
(913,231,o),
(705,-16,o),
(485,-16,qs)
);
},
{
closed = 1;
nodes = (
(160,1878,l),
(160,2031,l),
(810,2031,l),
(810,1878,l)
);
},
{
closed = 1;
nodes = (
(548,2129,l),
(548,2377,l),
(906,2377,l),
(906,2129,l)
);
},
{
closed = 1;
nodes = (
(64,2129,l),
(64,2377,l),
(422,2377,l),
(422,2129,l)
);
}
);
width = 970;
}
);
unicode = 7802;
},
{
glyphname = Uogonek;
layers = (
{
anchors = (
{
name = m.uni0328_3;
position = "{507, 0}";
},
{
name = m.uni032E;
position = "{485, 0}";
},
{
name = t.uni0304;
position = "{485, 1760}";
},
{
name = t.uni1DC7;
position = "{485, 1760}";
}
);
layerId = "6C046C9F-D66B-4CE6-B064-C5BDB7BD1C21";
shapes = (
{
closed = 1;
nodes = (
(265,-16,o),
(57,231,o),
(57,471,qs),
(57,1760,l),
(399,1760,l),
(399,485,ls),
(399,441,o),
(409,360,o),
(445,308,o),
(485,308,qs),
(526,308,o),
(562,359,o),
(571,441,o),
(571,485,qs),
(571,1760,l),
(913,1760,l),
(913,471,ls),
(913,231,o),
(705,-16,o),
(485,-16,qs)
);
},
{
closed = 1;
nodes = (
(397,-631,o),
(239,-559,o),
(144,-424,o),
(144,-330,qs),
(144,-148,o),
(408,0,q),
(619,0,l),
(563,-58,o),
(459,-196,o),
(459,-279,qs),
(459,-391,o),
(574,-391,qs),
(623,-391,o),
(690,-368,q),
(690,-591,l),
(595,-631,o),
(492,-631,qs)
);
}
);
width = 970;
}
);
unicode = 370;
},
{
glyphname = uni01B1;
layers = (
{
layerId = "6C046C9F-D66B-4CE6-B064-C5BDB7BD1C21";
shapes = (
{
closed = 1;
nodes = (
(288,-16,o),
(72,197,o),
(72,402,qs),
(72,958,ls),
(72,1274,o),
(169,1422,q),
(47,1422,l),
(47,1760,l),
(463,1760,l),
(463,1421,l),
(441,1404,o),
(419,1348,o),
(411,1217,o),
(411,1087,qs),
(411,380,ls),
(411,328,o),
(444,256,o),
(496,256,qs),
(548,256,o),
(581,328,o),
(581,380,qs),
(581,1087,ls),
(581,1217,o),
(573,1348,o),
(551,1404,o),
(529,1421,q),
(529,1760,l),
(945,1760,l),
(945,1422,l),
(823,1422,l),
(920,1274,o),
(920,958,qs),
(920,402,ls),
(920,197,o),
(705,-16,o),
(496,-16,qs)
);
}
);
width = 992;
}
);
unicode = 433;
},
{
glyphname = Uring;
layers = (
{
anchors = (
{
name = m.uni0328_3;
position = "{507, 0}";
},
{
name = m.uni032E;
position = "{485, 0}";
},
{
name = t.uni0304;
position = "{485, 1760}";
},
{
name = t.uni1DC7;
position = "{485, 1760}";
}
);
layerId = "6C046C9F-D66B-4CE6-B064-C5BDB7BD1C21";
shapes = (
{
closed = 1;
nodes = (
(265,-16,o),
(57,231,o),
(57,471,qs),
(57,1760,l),
(399,1760,l),
(399,485,ls),
(399,441,o),
(409,360,o),
(445,308,o),
(485,308,qs),
(526,308,o),
(562,359,o),
(571,441,o),
(571,485,qs),
(571,1760,l),
(913,1760,l),
(913,471,ls),
(913,231,o),
(705,-16,o),
(485,-16,qs)
);
},
{
closed = 1;
nodes = (
(324,1840,o),
(131,2019,o),
(131,2178,qs),
(131,2336,o),
(324,2516,o),
(484,2516,qs),
(645,2516,o),
(838,2336,o),
(838,2178,qs),
(838,2020,o),
(645,1840,o),
(484,1840,qs)
);
},
{
closed = 1;
nodes = (
(552,2021,o),
(627,2113,o),
(627,2178,qs),
(627,2243,o),
(552,2335,o),
(485,2335,qs),
(418,2335,o),
(343,2243,o),
(343,2178,qs),
(343,2113,o),
(418,2021,o),
(485,2021,qs)
);
}
);
width = 970;
}
);
unicode = 366;
},
{
glyphname = Utilde;
layers = (
{
anchors = (
{
name = m.uni0328_3;
position = "{507, 0}";
},
{
name = m.uni032E;
position = "{485, 0}";
},
{
name = t.uni0304;
position = "{485, 1760}";
},
{
name = t.uni1DC7;
position = "{485, 1760}";
}
);
layerId = "6C046C9F-D66B-4CE6-B064-C5BDB7BD1C21";
shapes = (
{
closed = 1;
nodes = (
(265,-16,o),
(57,231,o),
(57,471,qs),
(57,1760,l),
(399,1760,l),
(399,485,ls),
(399,441,o),
(409,360,o),
(445,308,o),
(485,308,qs),
(526,308,o),
(562,359,o),
(571,441,o),
(571,485,qs),
(571,1760,l),
(913,1760,l),
(913,471,ls),
(913,231,o),
(705,-16,o),
(485,-16,qs)
);
},
{
closed = 1;
nodes = (
(576,1871,o),
(453,1917,o),
(353,1962,o),
(312,1962,qs),
(286,1962,o),
(240,1932,o),
(220,1894,q),
(72,1972,l),
(97,2033,o),
(156,2134,o),
(248,2195,o),
(319,2195,qs),
(390,2195,o),
(505,2153,o),
(600,2111,o),
(639,2111,qs),
(666,2111,o),
(712,2145,o),
(732,2186,q),
(898,2132,l),
(874,2065,o),
(816,1945,o),
(725,1871,o),
(650,1871,qs)
);
}
);
width = 970;
}
);
unicode = 360;
},
{
glyphname = uni1E78;
layers = (
{
anchors = (
{
name = m.uni0328_3;
position = "{507, 0}";
},
{
name = m.uni032E;
position = "{485, 0}";
},
{
name = t.uni0304;
position = "{485, 2540}";
},
{
name = t.uni1DC7;
position = "{485, 1760}";
}
);
layerId = "6C046C9F-D66B-4CE6-B064-C5BDB7BD1C21";
shapes = (
{
closed = 1;
nodes = (
(265,-16,o),
(57,231,o),
(57,471,qs),
(57,1760,l),
(399,1760,l),
(399,485,ls),
(399,441,o),
(409,360,o),
(445,308,o),
(485,308,qs),
(526,308,o),
(562,359,o),
(571,441,o),
(571,485,qs),
(571,1760,l),
(913,1760,l),
(913,471,ls),
(913,231,o),
(705,-16,o),
(485,-16,qs)
);
},
{
closed = 1;
nodes = (
(576,1841,o),
(453,1887,o),
(353,1932,o),
(312,1932,qs),
(286,1932,o),
(240,1902,o),
(220,1864,q),
(72,1942,l),
(97,1997,o),
(156,2089,o),
(248,2145,o),
(319,2145,qs),
(390,2145,o),
(507,2103,o),
(601,2061,o),
(639,2061,qs),
(666,2061,o),
(712,2095,o),
(732,2136,q),
(898,2082,l),
(874,2020,o),
(816,1909,o),
(725,1841,o),
(650,1841,qs)
);
},
{
closed = 1;
nodes = (
(248,2204,l),
(248,2397,l),
(723,2565,l),
(723,2278,l)
);
}
);
width = 970;
}
);
unicode = 7800;
},
{
glyphname = V;
layers = (
{
anchors = (
{
name = m.uni032E;
position = "{481, 0}";
},
{
name = t.uni1DC7;
position = "{481, 1760}";
}
);
layerId = "6C046C9F-D66B-4CE6-B064-C5BDB7BD1C21";
shapes = (
{
closed = 1;
nodes = (
(240,0,l),
(23,1761,l),
(358,1761,l),
(487,563,l),
(602,1761,l),
(937,1761,l),
(720,0,l)
);
}
);
width = 961;
}
);
leftKerningGroup = V2;
rightKerningGroup = V;
unicode = 86;
},
{
glyphname = uni1E7E;
layers = (
{
anchors = (
{
name = m.uni032E;
position = "{481, 0}";
},
{
name = t.uni1DC7;
position = "{481, 1760}";
}
);
layerId = "6C046C9F-D66B-4CE6-B064-C5BDB7BD1C21";
shapes = (
{
closed = 1;
nodes = (
(240,0,l),
(23,1761,l),
(358,1761,l),
(487,563,l),
(602,1761,l),
(937,1761,l),
(720,0,l)
);
},
{
closed = 1;
nodes = (
(302,-417,l),
(302,-119,l),
(660,-119,l),
(660,-417,l)
);
}
);
width = 961;
}
);
leftKerningGroup = V2;
rightKerningGroup = V;
unicode = 7806;
},
{
glyphname = uni01B2;
layers = (
{
layerId = "6C046C9F-D66B-4CE6-B064-C5BDB7BD1C21";
shapes = (
{
closed = 1;
nodes = (
(239,0,l),
(23,1749,l),
(357,1749,l),
(485,560,l),
(564,1367,ls),
(565,1373,o),
(565,1385,o),
(565,1390,qs),
(565,1461,o),
(501,1461,q),
(501,1762,l),
(697,1762,o),
(887,1603,o),
(887,1421,qs),
(887,1372,o),
(879,1306,qs),
(717,0,l)
);
}
);
width = 911;
}
);
leftKerningGroup = V2;
unicode = 434;
},
{
glyphname = uni1E7C;
layers = (
{
anchors = (
{
name = m.uni032E;
position = "{481, 0}";
},
{
name = t.uni1DC7;
position = "{481, 2195}";
}
);
layerId = "6C046C9F-D66B-4CE6-B064-C5BDB7BD1C21";
shapes = (
{
closed = 1;
nodes = (
(240,0,l),
(23,1761,l),
(358,1761,l),
(487,563,l),
(602,1761,l),
(937,1761,l),
(720,0,l)
);
},
{
closed = 1;
nodes = (
(569,1871,o),
(451,1917,o),
(354,1962,o),
(308,1962,qs),
(282,1962,o),
(236,1932,o),
(216,1894,q),
(68,1972,l),
(93,2033,o),
(152,2134,o),
(244,2195,o),
(315,2195,qs),
(389,2195,o),
(503,2153,o),
(596,2111,o),
(635,2111,qs),
(662,2111,o),
(708,2145,o),
(728,2186,q),
(894,2132,l),
(870,2065,o),
(812,1945,o),
(721,1871,o),
(646,1871,qs)
);
}
);
width = 961;
}
);
leftKerningGroup = V2;
rightKerningGroup = V;
unicode = 7804;
},
{
glyphname = uni0245;
layers = (
{
layerId = "6C046C9F-D66B-4CE6-B064-C5BDB7BD1C21";
shapes = (
{
closed = 1;
nodes = (
(721,1760,l),
(938,-1,l),
(603,-1,l),
(474,1197,l),
(359,-1,l),
(24,-1,l),
(241,1760,l)
);
}
);
width = 961;
}
);
leftKerningGroup = A2;
rightKerningGroup = A;
unicode = 581;
},
{
glyphname = W;
layers = (
{
anchors = (
{
name = m.uni032E;
position = "{729, 0}";
},
{
name = t.uni1DC7;
position = "{743, 1760}";
}
);
layerId = "6C046C9F-D66B-4CE6-B064-C5BDB7BD1C21";
shapes = (
{
closed = 1;
nodes = (
(216,0,l),
(27,1760,l),
(371,1760,l),
(468,649,l),
(567,1760,l),
(895,1760,l),
(989,649,l),
(1083,1760,l),
(1431,1760,l),
(1239,0,l),
(817,0,l),
(729,847,l),
(645,0,l)
);
}
);
width = 1458;
}
);
rightKerningGroup = W;
unicode = 87;
},
{
glyphname = Wacute;
layers = (
{
anchors = (
{
name = m.uni032E;
position = "{729, 0}";
},
{
name = t.uni1DC7;
position = "{743, 1760}";
}
);
layerId = "6C046C9F-D66B-4CE6-B064-C5BDB7BD1C21";
shapes = (
{
closed = 1;
nodes = (
(216,0,l),
(27,1760,l),
(371,1760,l),
(468,649,l),
(567,1760,l),
(895,1760,l),
(989,649,l),
(1083,1760,l),
(1431,1760,l),
(1239,0,l),
(817,0,l),
(729,847,l),
(645,0,l)
);
},
{
closed = 1;
nodes = (
(505,1813,l),
(505,2036,l),
(980,2254,l),
(980,1907,l)
);
}
);
width = 1458;
}
);
rightKerningGroup = W;
unicode = 7810;
},
{
glyphname = Wcircumflex;
layers = (
{
anchors = (
{
name = m.uni032E;
position = "{729, 0}";
},
{
name = t.uni1DC7;
position = "{743, 1760}";
}
);
layerId = "6C046C9F-D66B-4CE6-B064-C5BDB7BD1C21";
shapes = (
{
closed = 1;
nodes = (
(216,0,l),
(27,1760,l),
(371,1760,l),
(468,649,l),
(567,1760,l),
(895,1760,l),
(989,649,l),
(1083,1760,l),
(1431,1760,l),
(1239,0,l),
(817,0,l),
(729,847,l),
(645,0,l)
);
},
{
closed = 1;
nodes = (
(298,1851,l),
(539,2254,l),
(947,2254,l),
(1188,1851,l),
(829,1851,l),
(743,2136,l),
(657,1851,l)
);
}
);
width = 1458;
}
);
rightKerningGroup = W;
unicode = 372;
},
{
glyphname = Wdieresis;
layers = (
{
anchors = (
{
name = m.uni032E;
position = "{729, 0}";
},
{
name = t.uni1DC7;
position = "{743, 1760}";
}
);
layerId = "6C046C9F-D66B-4CE6-B064-C5BDB7BD1C21";
shapes = (
{
closed = 1;
nodes = (
(216,0,l),
(27,1760,l),
(371,1760,l),
(468,649,l),
(567,1760,l),
(895,1760,l),
(989,649,l),
(1083,1760,l),
(1431,1760,l),
(1239,0,l),
(817,0,l),
(729,847,l),
(645,0,l)
);
},
{
closed = 1;
nodes = (
(799,1859,l),
(799,2157,l),
(1157,2157,l),
(1157,1859,l)
);
},
{
closed = 1;
nodes = (
(315,1859,l),
(315,2157,l),
(673,2157,l),
(673,1859,l)
);
}
);
width = 1458;
}
);
rightKerningGroup = W;
unicode = 7812;
},
{
glyphname = uni1E86;
layers = (
{
anchors = (
{
name = m.uni032E;
position = "{729, 0}";
},
{
name = t.uni1DC7;
position = "{743, 2150}";
}
);
layerId = "6C046C9F-D66B-4CE6-B064-C5BDB7BD1C21";
shapes = (
{
closed = 1;
nodes = (
(216,0,l),
(27,1760,l),
(371,1760,l),
(468,649,l),
(567,1760,l),
(895,1760,l),
(989,649,l),
(1083,1760,l),
(1431,1760,l),
(1239,0,l),
(817,0,l),
(729,847,l),
(645,0,l)
);
},
{
closed = 1;
nodes = (
(564,1852,l),
(564,2150,l),
(922,2150,l),
(922,1852,l)
);
}
);
width = 1458;
}
);
rightKerningGroup = W;
unicode = 7814;
},
{
glyphname = uni1E88;
layers = (
{
anchors = (
{
name = m.uni032E;
position = "{729, 0}";
},
{
name = t.uni1DC7;
position = "{743, 1760}";
}
);
layerId = "6C046C9F-D66B-4CE6-B064-C5BDB7BD1C21";
shapes = (
{
closed = 1;
nodes = (
(216,0,l),
(27,1760,l),
(371,1760,l),
(468,649,l),
(567,1760,l),
(895,1760,l),
(989,649,l),
(1083,1760,l),
(1431,1760,l),
(1239,0,l),
(817,0,l),
(729,847,l),
(645,0,l)
);
},
{
closed = 1;
nodes = (
(550,-417,l),
(550,-119,l),
(908,-119,l),
(908,-417,l)
);
}
);
width = 1458;
}
);
rightKerningGroup = W;
unicode = 7816;
},
{
glyphname = Wgrave;
layers = (
{
anchors = (
{
name = m.uni032E;
position = "{729, 0}";
},
{
name = t.uni1DC7;
position = "{743, 1760}";
}
);
layerId = "6C046C9F-D66B-4CE6-B064-C5BDB7BD1C21";
shapes = (
{
closed = 1;
nodes = (
(216,0,l),
(27,1760,l),
(371,1760,l),
(468,649,l),
(567,1760,l),
(895,1760,l),
(989,649,l),
(1083,1760,l),
(1431,1760,l),
(1239,0,l),
(817,0,l),
(729,847,l),
(645,0,l)
);
},
{
closed = 1;
nodes = (
(980,1813,l),
(505,1907,l),
(505,2254,l),
(980,2036,l)
);
}
);
width = 1458;
}
);
rightKerningGroup = W;
unicode = 7808;
},
{
glyphname = uni2C72;
layers = (
{
layerId = "6C046C9F-D66B-4CE6-B064-C5BDB7BD1C21";
shapes = (
{
closed = 1;
nodes = (
(215,0,l),
(26,1760,l),
(371,1760,l),
(469,647,l),
(568,1760,l),
(897,1760,l),
(992,647,l),
(1056,1417,ls),
(1072,1604,o),
(1279,1775,o),
(1505,1775,q),
(1505,1471,l),
(1435,1471,o),
(1394,1396,o),
(1385,1315,qs),
(1242,0,l),
(819,0,l),
(730,846,l),
(646,0,l)
);
}
);
width = 1495;
}
);
unicode = 11378;
},
{
glyphname = X;
layers = (
{
anchors = (
{
name = m.uni032E;
position = "{496, 0}";
},
{
name = t.uni1DC7;
position = "{496, 1760}";
}
);
layerId = "6C046C9F-D66B-4CE6-B064-C5BDB7BD1C21";
shapes = (
{
closed = 1;
nodes = (
(27,0,l),
(216,933,l),
(66,1761,l),
(410,1761,l),
(501,1156,l),
(582,1761,l),
(927,1761,l),
(777,933,l),
(965,0,l),
(609,0,l),
(498,688,l),
(384,0,l)
);
}
);
width = 991;
}
);
unicode = 88;
},
{
glyphname = Y;
layers = (
{
anchors = (
{
name = m.uni032E;
position = "{457, 0}";
},
{
name = t.uni0304;
position = "{456, 1760}";
}
);
layerId = "6C046C9F-D66B-4CE6-B064-C5BDB7BD1C21";
shapes = (
{
closed = 1;
nodes = (
(291,0,l),
(291,579,l),
(10,1760,l),
(359,1760,l),
(457,1164,l),
(555,1760,l),
(903,1760,l),
(623,579,l),
(623,0,l)
);
}
);
width = 914;
}
);
leftKerningGroup = Y2;
rightKerningGroup = Y;
unicode = 89;
},
